<svg id="svg" version="1.1" xmlns="http://www.w3.org/2000/svg" xmlns:xlink="http://www.w3.org/1999/xlink" width="400" height="400" viewBox="0, 0, 400,400"><g id="svgg"><path id="path0" d="M217.600 96.263 C 210.668 97.287,207.538 100.137,208.132 104.883 C 208.596 108.596,209.225 111.736,209.744 112.939 C 210.935 115.700,211.245 116.582,210.889 116.200 C 210.684 115.980,209.007 114.090,207.163 112.000 C 198.960 102.706,193.556 98.690,187.256 97.205 C 183.236 96.257,178.388 97.610,176.727 100.143 C 176.251 100.869,175.282 101.843,174.572 102.308 C 170.762 104.805,166.620 119.405,169.259 121.036 C 169.446 121.152,169.600 121.611,169.600 122.057 C 169.600 123.123,173.277 126.800,174.344 126.800 C 174.841 126.800,175.100 127.001,174.990 127.300 C 174.765 127.907,177.272 129.600,178.394 129.600 C 178.837 129.600,179.200 129.780,179.200 130.000 C 179.200 130.220,179.549 130.400,179.976 130.400 C 180.403 130.400,180.864 130.580,181.000 130.800 C 181.136 131.020,181.569 131.200,181.962 131.200 C 182.355 131.200,183.253 131.487,183.957 131.839 C 184.702 132.210,185.648 132.374,186.219 132.231 C 186.780 132.090,187.200 132.159,187.200 132.392 C 187.200 132.635,188.493 132.800,190.400 132.800 C 192.267 132.800,193.600 132.967,193.600 133.200 C 193.600 133.443,195.343 133.600,198.028 133.600 C 202.391 133.600,202.454 133.613,202.328 134.500 C 202.231 135.184,201.960 135.383,201.200 135.328 C 200.650 135.289,198.850 135.226,197.200 135.187 C 195.550 135.149,194.020 134.973,193.800 134.796 C 193.293 134.387,183.682 134.164,182.567 134.534 C 182.106 134.688,180.955 134.537,179.994 134.198 C 178.813 133.781,178.125 133.715,177.848 133.992 C 177.623 134.217,176.566 134.400,175.497 134.400 C 168.058 134.400,164.145 140.243,167.870 145.789 C 168.162 146.223,168.400 146.898,168.400 147.289 C 168.400 147.680,168.689 148.000,169.043 148.000 C 169.473 148.000,169.603 148.216,169.435 148.653 C 169.130 149.447,173.769 159.026,174.615 159.351 C 174.937 159.474,175.200 159.934,175.200 160.373 C 175.200 160.813,175.560 161.365,176.000 161.600 C 176.440 161.835,176.800 162.207,176.800 162.425 C 176.800 162.941,180.259 166.400,180.775 166.400 C 180.993 166.400,181.365 166.760,181.600 167.200 C 181.835 167.640,182.284 168.000,182.596 168.000 C 182.909 168.000,184.028 168.503,185.082 169.119 C 189.724 171.827,199.125 173.048,201.108 171.200 C 201.580 170.760,202.251 170.400,202.598 170.400 C 204.133 170.400,208.800 164.426,208.800 162.461 C 208.800 162.070,209.195 160.951,209.678 159.975 C 210.400 158.517,210.545 157.582,210.494 154.736 C 210.404 149.774,210.756 149.606,216.200 152.016 C 217.080 152.405,218.271 152.829,218.847 152.956 C 219.639 153.132,222.923 155.086,224.325 156.216 C 224.393 156.271,224.249 157.778,224.005 159.565 C 223.158 165.749,223.583 172.734,224.903 174.324 C 225.157 174.630,225.404 175.149,225.452 175.476 C 225.500 175.804,226.310 176.731,227.251 177.536 C 228.192 178.341,229.368 179.405,229.863 179.900 C 230.358 180.395,231.042 180.800,231.382 180.800 C 231.722 180.800,232.000 180.984,232.000 181.210 C 232.000 183.814,243.022 182.756,248.400 179.636 C 248.730 179.445,249.680 178.955,250.512 178.547 C 252.446 177.598,256.800 173.705,256.800 172.924 C 256.800 172.597,257.140 172.029,257.555 171.664 C 261.204 168.453,258.463 160.707,251.776 155.334 C 250.401 154.229,249.945 152.855,251.290 153.871 C 257.203 158.334,269.566 158.105,271.310 153.500 C 271.456 153.115,271.758 152.800,271.981 152.800 C 273.795 152.800,275.247 143.741,273.949 140.519 C 272.872 137.843,271.788 135.897,271.111 135.423 C 270.710 135.142,270.481 134.653,270.603 134.337 C 270.725 134.019,270.371 133.337,269.812 132.811 C 269.255 132.288,268.800 131.664,268.800 131.424 C 268.800 131.184,267.990 130.203,267.000 129.244 C 266.010 128.284,265.200 127.289,265.200 127.031 C 265.200 124.861,254.396 118.293,252.091 119.062 C 249.819 119.820,246.416 121.883,246.232 122.614 C 246.050 123.341,242.748 125.200,241.639 125.200 C 241.445 125.200,241.189 125.451,241.072 125.758 C 240.954 126.064,240.049 126.719,239.061 127.212 C 238.073 127.706,236.575 128.712,235.732 129.447 C 233.741 131.185,232.772 131.163,231.387 129.347 L 230.279 127.895 231.138 127.247 C 231.610 126.891,232.850 126.150,233.893 125.600 C 234.936 125.050,236.107 124.285,236.495 123.900 C 236.883 123.515,237.465 123.200,237.788 123.200 C 238.926 123.200,242.613 121.248,243.775 120.031 C 244.421 119.354,245.197 118.800,245.499 118.800 C 246.199 118.800,250.400 114.848,250.400 114.189 C 250.400 113.916,250.748 113.602,251.174 113.491 C 251.683 113.358,252.040 112.794,252.219 111.840 C 252.368 111.043,252.650 110.293,252.845 110.172 C 253.332 109.871,253.295 106.906,252.800 106.600 C 252.580 106.464,252.400 106.003,252.400 105.576 C 252.400 105.149,252.220 104.800,252.000 104.800 C 251.780 104.800,251.600 104.561,251.600 104.270 C 251.600 103.640,249.940 102.000,249.303 102.000 C 249.058 102.000,248.542 101.685,248.157 101.300 C 247.772 100.915,247.303 100.600,247.114 100.600 C 246.925 100.600,246.642 100.411,246.485 100.179 C 246.049 99.535,243.335 98.370,241.680 98.116 C 240.866 97.991,239.985 97.720,239.721 97.513 C 239.458 97.306,238.828 97.187,238.321 97.248 C 237.815 97.309,237.038 97.160,236.596 96.917 C 236.153 96.673,235.297 96.569,234.693 96.684 C 234.090 96.800,233.326 96.671,232.997 96.398 C 232.114 95.664,222.237 95.578,217.600 96.263 M213.705 154.708 C 213.034 155.528,212.809 156.324,212.805 157.900 C 212.802 159.055,212.620 160.000,212.400 160.000 C 212.180 160.000,212.000 160.900,212.000 162.000 C 212.000 163.100,211.820 164.000,211.600 164.000 C 211.380 164.000,211.200 164.720,211.200 165.600 C 211.200 166.480,211.020 167.200,210.800 167.200 C 210.580 167.200,210.400 167.920,210.400 168.800 C 210.400 169.680,210.220 170.400,210.000 170.400 C 209.780 170.400,209.600 171.120,209.600 172.000 C 209.600 172.880,209.420 173.600,209.200 173.600 C 208.980 173.600,208.800 174.140,208.800 174.800 C 208.800 175.460,208.620 176.000,208.400 176.000 C 208.180 176.000,208.000 176.529,208.000 177.176 C 208.000 177.823,207.820 178.464,207.600 178.600 C 207.380 178.736,207.200 179.467,207.200 180.224 C 207.200 180.981,207.020 181.600,206.800 181.600 C 206.580 181.600,206.400 182.140,206.400 182.800 C 206.400 183.460,206.220 184.000,206.000 184.000 C 205.780 184.000,205.600 184.349,205.600 184.776 C 205.600 185.203,205.420 185.664,205.200 185.800 C 204.980 185.936,204.800 186.487,204.800 187.024 C 204.800 187.561,204.620 188.000,204.400 188.000 C 204.180 188.000,204.000 188.540,204.000 189.200 C 204.000 189.860,203.820 190.400,203.600 190.400 C 203.380 190.400,203.200 190.760,203.200 191.200 C 203.200 191.640,203.020 192.000,202.800 192.000 C 202.580 192.000,202.400 192.265,202.400 192.588 C 202.400 192.911,202.040 193.817,201.600 194.600 C 201.160 195.383,200.800 196.379,200.800 196.812 C 200.800 197.245,200.620 197.600,200.400 197.600 C 200.180 197.600,200.000 197.960,200.000 198.400 C 200.000 198.840,199.820 199.200,199.600 199.200 C 199.380 199.200,199.200 199.560,199.200 200.000 C 199.200 200.440,199.020 200.800,198.800 200.800 C 198.580 200.800,198.400 201.160,198.400 201.600 C 198.400 202.040,198.220 202.400,198.000 202.400 C 197.780 202.400,197.600 202.760,197.600 203.200 C 197.600 203.640,197.420 204.000,197.200 204.000 C 196.980 204.000,196.800 204.320,196.800 204.712 C 196.800 205.103,196.440 205.683,196.000 206.000 C 195.560 206.317,195.200 206.897,195.200 207.288 C 195.200 207.680,195.020 208.000,194.800 208.000 C 194.580 208.000,194.400 208.320,194.400 208.712 C 194.400 209.103,194.040 209.683,193.600 210.000 C 193.160 210.317,192.800 210.897,192.800 211.288 C 192.800 211.680,192.650 212.000,192.468 212.000 C 192.285 212.000,191.881 212.495,191.570 213.100 C 191.260 213.705,190.689 214.491,190.303 214.847 C 189.916 215.203,189.600 215.699,189.600 215.951 C 189.600 216.202,189.060 216.972,188.400 217.663 C 187.740 218.354,187.200 219.090,187.200 219.299 C 187.200 219.508,186.660 220.183,186.000 220.800 C 185.340 221.417,184.800 222.124,184.800 222.371 C 184.800 222.619,182.460 225.152,179.600 228.000 C 176.740 230.848,174.400 233.376,174.400 233.618 C 174.400 234.358,175.709 235.473,175.901 234.896 C 175.992 234.623,176.412 234.400,176.833 234.400 C 177.344 234.400,177.600 234.121,177.600 233.567 C 177.600 233.076,177.805 232.803,178.100 232.904 C 178.375 232.998,178.543 233.465,178.474 233.943 C 178.366 234.684,178.897 236.798,180.395 241.600 C 180.567 242.150,180.941 243.410,181.226 244.400 C 182.466 248.707,186.303 248.465,187.568 244.000 C 187.848 243.010,188.240 241.887,188.439 241.505 C 188.638 241.123,188.800 240.506,188.800 240.134 C 188.800 239.377,189.511 236.971,190.049 235.905 C 190.927 234.168,190.497 233.200,188.849 233.200 C 186.987 233.200,186.584 233.623,185.978 236.216 C 184.871 240.949,184.680 241.600,184.401 241.600 C 184.238 241.600,183.996 240.925,183.862 240.100 C 182.932 234.357,182.420 233.200,180.810 233.200 C 180.170 233.200,179.537 233.022,179.402 232.803 C 179.131 232.364,180.917 230.400,181.588 230.400 C 182.143 230.400,188.800 223.739,188.800 223.184 C 188.800 222.948,189.880 221.696,191.200 220.400 C 192.520 219.104,193.600 217.837,193.600 217.583 C 193.600 217.329,194.140 216.617,194.800 216.000 C 195.460 215.383,196.000 214.631,196.000 214.328 C 196.000 214.025,196.360 213.517,196.800 213.200 C 197.240 212.883,197.600 212.343,197.600 212.000 C 197.600 211.657,197.960 211.117,198.400 210.800 C 198.840 210.483,199.200 209.943,199.200 209.600 C 199.200 209.257,199.560 208.717,200.000 208.400 C 200.440 208.083,200.800 207.543,200.800 207.200 C 200.800 206.857,201.160 206.317,201.600 206.000 C 202.040 205.683,202.400 205.103,202.400 204.712 C 202.400 204.320,202.580 204.000,202.800 204.000 C 203.020 204.000,203.200 203.640,203.200 203.200 C 203.200 202.760,203.380 202.400,203.600 202.400 C 203.820 202.400,204.000 202.040,204.000 201.600 C 204.000 201.160,204.180 200.800,204.400 200.800 C 204.620 200.800,204.800 200.522,204.800 200.183 C 204.800 199.844,205.160 199.180,205.600 198.708 C 206.040 198.236,206.400 197.613,206.400 197.325 C 206.400 197.036,206.580 196.800,206.800 196.800 C 207.020 196.800,207.200 196.440,207.200 196.000 C 207.200 195.560,207.380 195.200,207.600 195.200 C 207.820 195.200,208.000 194.840,208.000 194.400 C 208.000 193.960,208.180 193.600,208.400 193.600 C 208.620 193.600,208.800 193.240,208.800 192.800 C 208.800 192.360,208.980 192.000,209.200 192.000 C 209.420 192.000,209.600 191.460,209.600 190.800 C 209.600 190.140,209.780 189.600,210.000 189.600 C 210.220 189.600,210.400 189.240,210.400 188.800 C 210.400 188.360,210.580 188.000,210.800 188.000 C 211.020 188.000,211.200 187.640,211.200 187.200 C 211.200 186.760,211.380 186.400,211.600 186.400 C 211.820 186.400,212.000 186.051,212.000 185.624 C 212.000 185.197,212.180 184.736,212.400 184.600 C 212.620 184.464,212.800 183.913,212.800 183.376 C 212.800 182.839,212.980 182.400,213.200 182.400 C 213.420 182.400,213.600 182.040,213.600 181.600 C 213.600 181.160,213.780 180.800,214.000 180.800 C 214.220 180.800,214.400 180.260,214.400 179.600 C 214.400 178.940,214.580 178.400,214.800 178.400 C 215.020 178.400,215.200 178.040,215.200 177.600 C 215.200 177.160,215.380 176.800,215.600 176.800 C 215.820 176.800,216.000 176.260,216.000 175.600 C 216.000 174.940,216.180 174.400,216.400 174.400 C 216.620 174.400,216.800 173.860,216.800 173.200 C 216.800 172.540,216.980 172.000,217.200 172.000 C 217.420 172.000,217.600 171.460,217.600 170.800 C 217.600 170.140,217.780 169.600,218.000 169.600 C 218.220 169.600,218.400 169.060,218.400 168.400 C 218.400 167.740,218.580 167.200,218.800 167.200 C 219.020 167.200,219.200 166.660,219.200 166.000 C 219.200 165.340,219.380 164.800,219.600 164.800 C 219.820 164.800,220.000 164.080,220.000 163.200 C 220.000 162.320,220.180 161.600,220.400 161.600 C 220.620 161.600,220.800 161.060,220.800 160.400 C 220.800 159.740,220.980 159.200,221.200 159.200 C 221.420 159.200,221.600 158.564,221.600 157.787 C 221.600 154.199,215.932 151.989,213.705 154.708 M151.200 170.000 C 151.200 170.220,150.660 170.400,150.000 170.400 C 149.340 170.400,148.800 170.580,148.800 170.800 C 148.800 171.020,148.260 171.200,147.600 171.200 C 146.940 171.200,146.400 171.380,146.400 171.600 C 146.400 171.820,146.080 172.000,145.688 172.000 C 145.297 172.000,144.717 172.360,144.400 172.800 C 144.083 173.240,143.543 173.600,143.200 173.600 C 142.857 173.600,142.317 173.960,142.000 174.400 C 141.683 174.840,141.222 175.200,140.975 175.200 C 140.265 175.200,136.800 178.653,136.800 179.360 C 136.800 179.712,136.620 180.000,136.400 180.000 C 136.174 180.000,136.000 181.139,136.000 182.618 C 136.000 185.236,137.028 187.200,138.399 187.200 C 138.638 187.200,139.220 187.560,139.692 188.000 C 140.164 188.440,140.967 188.800,141.475 188.800 C 141.984 188.800,142.400 188.980,142.400 189.200 C 142.400 189.420,143.120 189.600,144.000 189.600 C 144.880 189.600,145.600 189.780,145.600 190.000 C 145.600 190.220,146.500 190.400,147.600 190.400 C 148.700 190.400,149.600 190.580,149.600 190.800 C 149.600 191.048,151.733 191.200,155.200 191.200 C 158.667 191.200,160.800 191.352,160.800 191.600 C 160.800 191.848,162.933 192.000,166.400 192.000 C 169.867 192.000,172.000 191.848,172.000 191.600 C 172.000 191.349,174.469 191.200,178.608 191.200 L 185.215 191.200 184.940 190.100 C 184.789 189.495,184.156 188.523,183.533 187.940 C 182.910 187.356,182.400 186.670,182.400 186.414 C 182.400 186.158,181.500 185.071,180.400 184.000 C 179.300 182.929,178.400 181.895,178.400 181.704 C 178.400 181.174,175.753 178.400,175.248 178.400 C 175.004 178.400,173.885 177.500,172.761 176.400 C 171.638 175.300,170.507 174.400,170.248 174.400 C 169.989 174.400,169.517 174.040,169.200 173.600 C 168.883 173.160,168.303 172.800,167.912 172.800 C 167.520 172.800,167.200 172.620,167.200 172.400 C 167.200 172.180,166.840 172.000,166.400 172.000 C 165.960 172.000,165.600 171.820,165.600 171.600 C 165.600 171.380,165.060 171.200,164.400 171.200 C 163.740 171.200,163.200 171.020,163.200 170.800 C 163.200 170.580,162.671 170.400,162.024 170.400 C 161.377 170.400,160.736 170.220,160.600 170.000 C 160.458 169.771,158.396 169.600,155.776 169.600 C 152.992 169.600,151.200 169.757,151.200 170.000 M123.869 226.900 C 123.251 227.352,123.196 228.341,123.293 237.200 L 123.400 247.000 124.360 247.136 C 124.888 247.210,125.750 247.041,126.276 246.759 C 127.086 246.326,127.414 246.354,128.411 246.943 C 133.799 250.126,137.681 238.657,132.729 234.183 C 131.204 232.806,129.147 232.316,128.600 233.200 C 127.770 234.543,127.200 233.494,127.200 230.623 C 127.200 226.947,125.857 225.446,123.869 226.900 M140.089 227.023 C 138.991 227.791,138.910 229.613,139.931 230.538 C 142.167 232.561,144.874 229.336,142.674 227.270 C 141.572 226.234,141.257 226.204,140.089 227.023 M150.914 233.637 C 146.889 236.215,146.652 243.668,150.503 246.538 C 152.965 248.374,159.088 247.341,158.653 245.163 C 158.459 244.193,158.551 244.000,159.210 244.000 C 159.644 244.000,160.000 243.820,160.000 243.600 C 160.000 243.380,160.525 243.200,161.167 243.200 C 161.808 243.200,162.404 242.988,162.490 242.729 C 162.834 241.697,163.600 242.949,163.600 244.544 C 163.600 246.496,164.130 247.200,165.600 247.200 C 167.263 247.200,167.600 246.513,167.600 243.120 C 167.600 241.168,167.760 240.000,168.029 240.000 C 168.852 240.000,169.600 238.847,169.600 237.580 C 169.600 236.534,169.701 236.386,170.156 236.764 C 170.592 237.125,170.667 238.118,170.503 241.339 C 170.243 246.425,170.580 247.301,172.726 247.123 L 174.200 247.000 174.310 240.944 L 174.420 234.888 173.179 233.844 C 171.767 232.656,170.484 232.529,168.780 233.410 C 167.756 233.940,167.455 233.946,166.500 233.458 C 164.213 232.290,163.600 233.078,163.600 237.187 C 163.600 240.132,163.489 240.800,163.000 240.800 C 162.670 240.800,162.400 240.980,162.400 241.200 C 162.400 241.420,162.040 241.600,161.600 241.600 C 161.160 241.600,160.800 241.780,160.800 242.000 C 160.800 242.220,160.279 242.400,159.643 242.400 C 159.006 242.400,158.387 242.657,158.266 242.972 C 157.707 244.430,152.719 244.098,152.130 242.563 C 151.757 241.590,152.726 241.213,155.620 241.206 C 159.260 241.198,160.019 240.058,158.619 236.707 C 157.182 233.268,153.673 231.870,150.914 233.637 M196.596 233.452 C 192.846 235.326,192.098 242.685,195.330 245.917 C 197.681 248.268,204.000 247.892,204.000 245.400 C 204.000 244.024,203.152 243.567,201.119 243.846 C 198.893 244.151,197.499 243.514,197.676 242.273 C 197.789 241.475,198.062 241.390,200.864 241.284 C 204.761 241.136,205.143 240.770,204.421 237.875 C 203.380 233.708,199.958 231.773,196.596 233.452 M214.227 233.467 C 213.322 233.957,212.890 233.999,212.333 233.651 C 209.498 231.880,208.800 233.179,208.800 240.231 C 208.800 246.974,208.936 247.352,211.274 247.127 L 212.600 247.000 212.800 242.510 C 212.993 238.185,213.552 236.383,214.696 236.406 C 215.769 236.428,215.980 237.275,216.087 242.016 L 216.200 247.000 218.000 247.000 L 219.800 247.000 219.915 241.600 C 220.087 233.552,218.435 231.189,214.227 233.467 M225.423 233.575 C 224.189 234.938,224.542 244.687,225.875 246.078 C 227.192 247.453,228.947 247.553,231.048 246.373 C 231.857 245.918,232.628 245.693,232.760 245.873 C 234.961 248.868,236.003 247.113,235.987 240.438 C 235.973 234.492,235.695 233.600,233.856 233.600 L 232.800 233.600 232.800 237.779 C 232.800 241.619,232.723 242.042,231.854 242.979 C 229.648 245.360,228.800 244.135,228.800 238.569 C 228.800 235.467,228.647 233.978,228.300 233.707 C 227.312 232.934,226.055 232.876,225.423 233.575 M243.590 233.421 C 239.176 235.765,238.721 243.496,242.826 246.418 C 245.839 248.564,252.048 247.180,250.883 244.622 C 250.444 243.660,250.305 243.622,248.069 243.856 C 245.922 244.080,245.660 244.021,245.070 243.178 C 244.077 241.760,244.868 241.137,247.570 241.207 C 251.451 241.309,251.203 241.467,251.171 238.900 C 251.111 234.207,247.298 231.452,243.590 233.421 M139.698 233.662 C 139.344 234.016,139.200 235.919,139.200 240.231 C 139.200 246.974,139.336 247.352,141.674 247.127 L 143.000 247.000 143.000 240.200 L 143.000 233.400 141.598 233.282 C 140.827 233.217,139.972 233.388,139.698 233.662 M154.720 236.480 C 156.000 237.760,154.619 239.465,152.926 238.693 C 151.457 238.024,151.963 236.000,153.600 236.000 C 153.952 236.000,154.456 236.216,154.720 236.480 M246.720 236.480 C 247.397 237.157,247.316 238.270,246.568 238.557 C 245.665 238.903,243.924 238.389,244.182 237.852 C 244.302 237.604,244.511 237.085,244.646 236.700 C 244.931 235.894,246.018 235.778,246.720 236.480 M129.674 236.900 C 131.174 238.096,130.945 242.969,129.355 243.693 C 127.794 244.404,127.200 243.519,127.200 240.483 C 127.200 237.137,128.184 235.712,129.674 236.900 M199.985 236.982 C 200.666 237.803,200.157 238.400,198.776 238.400 C 197.884 238.400,197.600 238.215,197.600 237.633 C 197.600 236.432,199.173 236.003,199.985 236.982 M124.814 253.474 C 123.746 254.831,124.275 255.439,127.695 256.785 C 132.462 258.662,132.553 255.750,127.806 253.242 C 125.805 252.185,125.829 252.183,124.814 253.474 M146.880 253.280 C 146.536 253.624,146.400 256.263,146.400 262.622 L 146.400 271.483 147.400 272.562 C 148.280 273.512,148.653 273.627,150.500 273.521 L 152.600 273.400 152.725 271.888 C 152.838 270.515,152.737 270.336,151.625 269.949 L 150.400 269.522 150.400 261.404 C 150.400 254.370,150.315 253.253,149.767 253.043 C 148.748 252.652,147.397 252.763,146.880 253.280 M181.900 253.702 C 181.094 254.360,180.691 255.182,180.395 256.779 C 180.035 258.721,179.533 259.575,178.743 259.594 C 177.663 259.620,178.310 262.400,179.396 262.400 C 180.212 262.400,180.539 264.712,180.304 268.829 C 180.080 272.756,180.470 273.600,182.508 273.600 C 184.028 273.600,184.179 273.120,184.400 267.603 L 184.600 262.606 185.800 262.400 C 187.914 262.038,187.516 259.200,185.351 259.200 C 184.609 259.200,184.400 258.985,184.400 258.224 C 184.400 257.139,185.049 256.562,186.079 256.732 C 187.256 256.925,188.234 254.521,187.367 253.564 C 186.356 252.446,183.345 252.523,181.900 253.702 M124.465 259.704 C 123.692 260.076,123.572 260.362,123.773 261.364 C 124.124 263.120,124.462 263.287,126.538 262.732 C 128.160 262.298,128.489 262.317,129.050 262.878 C 129.964 263.793,129.491 264.265,127.338 264.588 C 122.518 265.311,120.956 269.156,123.962 272.900 C 124.604 273.700,127.551 273.868,128.839 273.179 C 129.406 272.876,130.019 272.900,131.031 273.266 C 133.543 274.174,133.744 273.740,133.636 267.620 C 133.534 261.798,133.235 260.852,131.160 259.780 C 129.846 259.100,125.816 259.054,124.465 259.704 M157.900 259.829 C 155.914 260.906,157.318 263.822,159.372 262.886 C 160.803 262.233,162.197 262.273,162.785 262.982 C 163.542 263.894,162.967 264.322,160.586 264.619 C 157.366 265.021,156.000 266.397,156.000 269.239 C 156.000 272.837,159.461 274.942,162.381 273.119 C 162.985 272.742,163.358 272.749,164.116 273.155 C 167.920 275.191,168.837 263.322,165.117 260.192 C 163.714 259.011,159.773 258.813,157.900 259.829 M192.919 259.984 C 189.191 262.257,188.728 269.195,192.101 272.243 C 194.719 274.609,200.800 274.013,200.800 271.391 C 200.800 270.067,199.619 269.495,198.027 270.050 C 196.311 270.649,194.307 269.854,194.480 268.643 C 194.587 267.889,194.928 267.779,197.716 267.600 C 201.018 267.388,201.808 266.915,201.390 265.400 C 201.268 264.960,201.062 264.015,200.932 263.299 C 200.330 259.991,195.908 258.162,192.919 259.984 M206.229 259.829 C 205.712 260.345,205.600 261.547,205.600 266.580 C 205.600 273.378,205.733 273.752,208.074 273.527 L 209.400 273.400 209.600 268.718 C 209.825 263.457,209.903 263.299,212.386 263.125 C 214.071 263.007,214.187 262.921,214.455 261.604 C 214.917 259.329,213.215 258.481,210.589 259.678 C 209.777 260.048,209.369 260.048,208.776 259.678 C 207.742 259.032,206.980 259.077,206.229 259.829 M218.480 259.680 C 218.148 260.012,218.000 262.080,218.000 266.400 C 218.000 273.125,218.136 273.600,220.056 273.600 C 221.613 273.600,221.776 273.140,222.000 268.114 C 222.368 259.865,224.800 259.945,224.800 268.206 C 224.800 273.458,224.857 273.600,226.953 273.600 C 228.547 273.600,228.800 272.886,228.800 268.390 C 228.800 264.413,228.862 264.081,229.766 263.232 C 231.200 261.885,231.600 262.990,231.600 268.294 C 231.600 272.994,231.832 273.600,233.631 273.600 C 235.489 273.600,235.673 272.941,235.531 266.783 L 235.400 261.122 234.200 260.163 C 232.838 259.074,230.933 258.912,229.776 259.787 C 228.771 260.547,227.824 260.552,227.200 259.800 C 226.565 259.034,224.422 259.029,222.958 259.788 C 221.960 260.306,221.716 260.306,220.926 259.788 C 219.837 259.075,219.117 259.043,218.480 259.680 M242.728 260.102 C 238.912 263.299,238.983 270.684,242.852 272.904 C 245.720 274.550,251.048 273.542,250.627 271.433 C 250.285 269.724,249.812 269.375,248.592 269.931 C 247.071 270.624,246.171 270.509,244.958 269.466 C 243.361 268.092,243.989 267.600,247.344 267.600 C 250.640 267.600,251.200 267.258,251.200 265.246 C 251.200 260.561,245.970 257.386,242.728 260.102 M196.804 263.208 C 197.385 264.294,196.995 264.800,195.576 264.800 C 194.710 264.800,194.400 264.610,194.400 264.080 C 194.400 262.476,196.086 261.865,196.804 263.208 M246.950 263.292 C 247.595 264.317,246.461 265.331,245.062 264.980 C 243.830 264.671,243.626 263.460,244.700 262.827 C 245.626 262.280,246.416 262.444,246.950 263.292 M163.537 267.247 C 163.916 267.855,163.943 268.217,163.633 268.527 C 163.395 268.765,163.200 269.219,163.200 269.536 C 163.200 271.154,160.782 271.643,159.846 270.214 C 158.996 268.916,159.028 268.555,160.100 267.410 C 161.238 266.195,162.832 266.120,163.537 267.247 M129.600 268.409 C 129.600 269.994,127.943 270.914,126.924 269.895 C 126.328 269.299,126.329 269.167,126.947 268.224 C 127.953 266.689,129.600 266.804,129.600 268.409 " stroke="none" fill="#f5f9f4" fill-rule="evenodd"></path><path id="path1" d="M170.800 47.200 C 170.800 47.433,169.467 47.600,167.600 47.600 C 165.733 47.600,164.400 47.767,164.400 48.000 C 164.400 48.222,163.333 48.400,162.000 48.400 C 160.667 48.400,159.600 48.578,159.600 48.800 C 159.600 49.020,158.880 49.200,158.000 49.200 C 157.120 49.200,156.400 49.380,156.400 49.600 C 156.400 49.820,155.500 50.000,154.400 50.000 C 153.300 50.000,152.400 50.180,152.400 50.400 C 152.400 50.620,151.680 50.800,150.800 50.800 C 149.920 50.800,149.200 50.980,149.200 51.200 C 149.200 51.420,148.660 51.600,148.000 51.600 C 147.340 51.600,146.800 51.780,146.800 52.000 C 146.800 52.220,146.080 52.400,145.200 52.400 C 144.320 52.400,143.600 52.580,143.600 52.800 C 143.600 53.020,143.060 53.200,142.400 53.200 C 141.740 53.200,141.200 53.380,141.200 53.600 C 141.200 53.820,140.660 54.000,140.000 54.000 C 139.340 54.000,138.800 54.180,138.800 54.400 C 138.800 54.620,138.260 54.800,137.600 54.800 C 136.940 54.800,136.400 54.980,136.400 55.200 C 136.400 55.420,136.040 55.600,135.600 55.600 C 135.160 55.600,134.800 55.780,134.800 56.000 C 134.800 56.220,134.260 56.400,133.600 56.400 C 132.940 56.400,132.400 56.580,132.400 56.800 C 132.400 57.020,132.040 57.200,131.600 57.200 C 131.160 57.200,130.800 57.380,130.800 57.600 C 130.800 57.820,130.440 58.000,130.000 58.000 C 129.560 58.000,129.200 58.180,129.200 58.400 C 129.200 58.620,128.660 58.800,128.000 58.800 C 127.340 58.800,126.800 58.980,126.800 59.200 C 126.800 59.420,126.440 59.600,126.000 59.600 C 125.560 59.600,125.200 59.780,125.200 60.000 C 125.200 60.220,124.840 60.400,124.400 60.400 C 123.960 60.400,123.600 60.580,123.600 60.800 C 123.600 61.020,123.240 61.200,122.800 61.200 C 122.360 61.200,122.000 61.380,122.000 61.600 C 122.000 61.820,121.640 62.000,121.200 62.000 C 120.760 62.000,120.400 62.180,120.400 62.400 C 120.400 62.620,120.040 62.800,119.600 62.800 C 119.160 62.800,118.800 62.980,118.800 63.200 C 118.800 63.420,118.480 63.600,118.088 63.600 C 117.697 63.600,117.117 63.960,116.800 64.400 C 116.483 64.840,115.903 65.200,115.512 65.200 C 115.120 65.200,114.800 65.380,114.800 65.600 C 114.800 65.820,114.480 66.000,114.088 66.000 C 113.697 66.000,113.117 66.360,112.800 66.800 C 112.483 67.240,111.903 67.600,111.512 67.600 C 111.120 67.600,110.800 67.780,110.800 68.000 C 110.800 68.220,110.480 68.400,110.088 68.400 C 109.697 68.400,109.117 68.760,108.800 69.200 C 108.483 69.640,107.943 70.000,107.600 70.000 C 107.257 70.000,106.717 70.360,106.400 70.800 C 106.083 71.240,105.575 71.600,105.272 71.600 C 104.969 71.600,104.217 72.140,103.600 72.800 C 102.983 73.460,102.263 74.000,102.000 74.000 C 101.737 74.000,101.017 74.540,100.400 75.200 C 99.783 75.860,99.067 76.400,98.808 76.400 C 98.549 76.400,97.646 77.120,96.800 78.000 C 95.954 78.880,95.068 79.600,94.829 79.600 C 94.266 79.600,78.000 95.860,78.000 96.424 C 78.000 96.659,77.100 97.729,76.000 98.800 C 74.900 99.871,74.000 100.958,74.000 101.214 C 74.000 101.470,73.460 102.183,72.800 102.800 C 72.140 103.417,71.600 104.169,71.600 104.472 C 71.600 104.775,71.240 105.283,70.800 105.600 C 70.360 105.917,70.000 106.425,70.000 106.728 C 70.000 107.031,69.460 107.783,68.800 108.400 C 68.140 109.017,67.600 109.809,67.600 110.160 C 67.600 110.512,67.420 110.800,67.200 110.800 C 66.980 110.800,66.800 111.120,66.800 111.512 C 66.800 111.903,66.440 112.483,66.000 112.800 C 65.560 113.117,65.200 113.657,65.200 114.000 C 65.200 114.343,64.840 114.883,64.400 115.200 C 63.960 115.517,63.600 116.097,63.600 116.488 C 63.600 116.880,63.420 117.200,63.200 117.200 C 62.980 117.200,62.800 117.560,62.800 118.000 C 62.800 118.440,62.620 118.800,62.400 118.800 C 62.180 118.800,62.000 119.160,62.000 119.600 C 62.000 120.040,61.820 120.400,61.600 120.400 C 61.380 120.400,61.200 120.720,61.200 121.112 C 61.200 121.503,60.840 122.083,60.400 122.400 C 59.960 122.717,59.600 123.297,59.600 123.688 C 59.600 124.080,59.420 124.400,59.200 124.400 C 58.980 124.400,58.800 124.760,58.800 125.200 C 58.800 125.640,58.620 126.000,58.400 126.000 C 58.180 126.000,58.000 126.540,58.000 127.200 C 58.000 127.860,57.820 128.400,57.600 128.400 C 57.380 128.400,57.200 128.760,57.200 129.200 C 57.200 129.640,57.020 130.000,56.800 130.000 C 56.580 130.000,56.400 130.360,56.400 130.800 C 56.400 131.240,56.220 131.600,56.000 131.600 C 55.780 131.600,55.600 131.960,55.600 132.400 C 55.600 132.840,55.420 133.200,55.200 133.200 C 54.980 133.200,54.800 133.740,54.800 134.400 C 54.800 135.060,54.620 135.600,54.400 135.600 C 54.180 135.600,54.000 135.960,54.000 136.400 C 54.000 136.840,53.820 137.200,53.600 137.200 C 53.380 137.200,53.200 137.740,53.200 138.400 C 53.200 139.060,53.020 139.600,52.800 139.600 C 52.580 139.600,52.400 140.140,52.400 140.800 C 52.400 141.460,52.220 142.000,52.000 142.000 C 51.780 142.000,51.600 142.540,51.600 143.200 C 51.600 143.860,51.420 144.400,51.200 144.400 C 50.980 144.400,50.800 144.940,50.800 145.600 C 50.800 146.260,50.620 146.800,50.400 146.800 C 50.180 146.800,50.000 147.340,50.000 148.000 C 50.000 148.660,49.820 149.200,49.600 149.200 C 49.380 149.200,49.200 149.920,49.200 150.800 C 49.200 151.680,49.020 152.400,48.800 152.400 C 48.580 152.400,48.400 153.120,48.400 154.000 C 48.400 154.880,48.220 155.600,48.000 155.600 C 47.780 155.600,47.600 156.320,47.600 157.200 C 47.600 158.080,47.420 158.800,47.200 158.800 C 46.980 158.800,46.800 159.700,46.800 160.800 C 46.800 161.900,46.620 162.800,46.400 162.800 C 46.178 162.800,46.000 163.867,46.000 165.200 C 46.000 166.533,45.822 167.600,45.600 167.600 C 45.367 167.600,45.200 168.933,45.200 170.800 C 45.200 172.667,45.033 174.000,44.800 174.000 C 44.540 174.000,44.400 179.467,44.400 189.600 C 44.400 199.733,44.540 205.200,44.800 205.200 C 45.033 205.200,45.200 206.533,45.200 208.400 C 45.200 210.267,45.367 211.600,45.600 211.600 C 45.822 211.600,46.000 212.667,46.000 214.000 C 46.000 215.333,46.178 216.400,46.400 216.400 C 46.620 216.400,46.800 217.300,46.800 218.400 C 46.800 219.500,46.980 220.400,47.200 220.400 C 47.420 220.400,47.600 221.120,47.600 222.000 C 47.600 222.880,47.780 223.600,48.000 223.600 C 48.220 223.600,48.400 224.320,48.400 225.200 C 48.400 226.080,48.580 226.800,48.800 226.800 C 49.020 226.800,49.200 227.520,49.200 228.400 C 49.200 229.280,49.380 230.000,49.600 230.000 C 49.820 230.000,50.000 230.540,50.000 231.200 C 50.000 231.860,50.180 232.400,50.400 232.400 C 50.620 232.400,50.800 232.940,50.800 233.600 C 50.800 234.260,50.980 234.800,51.200 234.800 C 51.420 234.800,51.600 235.340,51.600 236.000 C 51.600 236.660,51.780 237.200,52.000 237.200 C 52.220 237.200,52.400 237.740,52.400 238.400 C 52.400 239.060,52.580 239.600,52.800 239.600 C 53.020 239.600,53.200 240.140,53.200 240.800 C 53.200 241.460,53.380 242.000,53.600 242.000 C 53.820 242.000,54.000 242.360,54.000 242.800 C 54.000 243.240,54.180 243.600,54.400 243.600 C 54.620 243.600,54.800 244.140,54.800 244.800 C 54.800 245.460,54.980 246.000,55.200 246.000 C 55.420 246.000,55.600 246.360,55.600 246.800 C 55.600 247.240,55.780 247.600,56.000 247.600 C 56.220 247.600,56.400 247.960,56.400 248.400 C 56.400 248.840,56.580 249.200,56.800 249.200 C 57.020 249.200,57.200 249.560,57.200 250.000 C 57.200 250.440,57.380 250.800,57.600 250.800 C 57.820 250.800,58.000 251.340,58.000 252.000 C 58.000 252.660,58.180 253.200,58.400 253.200 C 58.620 253.200,58.800 253.560,58.800 254.000 C 58.800 254.440,58.980 254.800,59.200 254.800 C 59.420 254.800,59.600 255.160,59.600 255.600 C 59.600 256.040,59.780 256.400,60.000 256.400 C 60.220 256.400,60.400 256.720,60.400 257.112 C 60.400 257.503,60.760 258.083,61.200 258.400 C 61.640 258.717,62.000 259.297,62.000 259.688 C 62.000 260.080,62.180 260.400,62.400 260.400 C 62.620 260.400,62.800 260.760,62.800 261.200 C 62.800 261.640,62.980 262.000,63.200 262.000 C 63.420 262.000,63.600 262.320,63.600 262.712 C 63.600 263.103,63.960 263.683,64.400 264.000 C 64.840 264.317,65.200 264.857,65.200 265.200 C 65.200 265.543,65.560 266.083,66.000 266.400 C 66.440 266.717,66.800 267.297,66.800 267.688 C 66.800 268.080,66.980 268.400,67.200 268.400 C 67.420 268.400,67.600 268.688,67.600 269.040 C 67.600 269.391,68.140 270.183,68.800 270.800 C 69.460 271.417,70.000 272.169,70.000 272.472 C 70.000 272.775,70.360 273.283,70.800 273.600 C 71.240 273.917,71.600 274.425,71.600 274.728 C 71.600 275.031,72.140 275.783,72.800 276.400 C 73.460 277.017,74.000 277.730,74.000 277.986 C 74.000 278.242,74.900 279.329,76.000 280.400 C 77.100 281.471,78.000 282.541,78.000 282.776 C 78.000 283.340,94.266 299.600,94.829 299.600 C 95.068 299.600,95.954 300.320,96.800 301.200 C 97.646 302.080,98.549 302.800,98.808 302.800 C 99.067 302.800,99.783 303.340,100.400 304.000 C 101.017 304.660,101.737 305.200,102.000 305.200 C 102.263 305.200,102.983 305.740,103.600 306.400 C 104.217 307.060,104.969 307.600,105.272 307.600 C 105.575 307.600,106.083 307.960,106.400 308.400 C 106.717 308.840,107.257 309.200,107.600 309.200 C 107.943 309.200,108.483 309.560,108.800 310.000 C 109.117 310.440,109.657 310.800,110.000 310.800 C 110.343 310.800,110.883 311.160,111.200 311.600 C 111.517 312.040,112.097 312.400,112.488 312.400 C 112.880 312.400,113.200 312.580,113.200 312.800 C 113.200 313.020,113.560 313.200,114.000 313.200 C 114.440 313.200,114.800 313.380,114.800 313.600 C 114.800 313.820,115.120 314.000,115.512 314.000 C 115.903 314.000,116.483 314.360,116.800 314.800 C 117.117 315.240,117.697 315.600,118.088 315.600 C 118.480 315.600,118.800 315.780,118.800 316.000 C 118.800 316.220,119.160 316.400,119.600 316.400 C 120.040 316.400,120.400 316.580,120.400 316.800 C 120.400 317.020,120.760 317.200,121.200 317.200 C 121.640 317.200,122.000 317.380,122.000 317.600 C 122.000 317.820,122.360 318.000,122.800 318.000 C 123.240 318.000,123.600 318.180,123.600 318.400 C 123.600 318.620,123.960 318.800,124.400 318.800 C 124.840 318.800,125.200 318.980,125.200 319.200 C 125.200 319.420,125.560 319.600,126.000 319.600 C 126.440 319.600,126.800 319.780,126.800 320.000 C 126.800 320.220,127.160 320.400,127.600 320.400 C 128.040 320.400,128.400 320.580,128.400 320.800 C 128.400 321.020,128.940 321.200,129.600 321.200 C 130.260 321.200,130.800 321.380,130.800 321.600 C 130.800 321.820,131.160 322.000,131.600 322.000 C 132.040 322.000,132.400 322.180,132.400 322.400 C 132.400 322.620,132.940 322.800,133.600 322.800 C 134.260 322.800,134.800 322.980,134.800 323.200 C 134.800 323.420,135.160 323.600,135.600 323.600 C 136.040 323.600,136.400 323.780,136.400 324.000 C 136.400 324.220,136.940 324.400,137.600 324.400 C 138.260 324.400,138.800 324.580,138.800 324.800 C 138.800 325.020,139.340 325.200,140.000 325.200 C 140.660 325.200,141.200 325.380,141.200 325.600 C 141.200 325.820,141.740 326.000,142.400 326.000 C 143.060 326.000,143.600 326.180,143.600 326.400 C 143.600 326.620,144.140 326.800,144.800 326.800 C 145.460 326.800,146.000 326.980,146.000 327.200 C 146.000 327.420,146.720 327.600,147.600 327.600 C 148.480 327.600,149.200 327.780,149.200 328.000 C 149.200 328.220,149.920 328.400,150.800 328.400 C 151.680 328.400,152.400 328.580,152.400 328.800 C 152.400 329.020,153.120 329.200,154.000 329.200 C 154.880 329.200,155.600 329.380,155.600 329.600 C 155.600 329.820,156.500 330.000,157.600 330.000 C 158.700 330.000,159.600 330.180,159.600 330.400 C 159.600 330.622,160.667 330.800,162.000 330.800 C 163.333 330.800,164.400 330.978,164.400 331.200 C 164.400 331.433,165.733 331.600,167.600 331.600 C 169.467 331.600,170.800 331.767,170.800 332.000 C 170.800 332.260,176.267 332.400,186.400 332.400 C 196.533 332.400,202.000 332.260,202.000 332.000 C 202.000 331.767,203.333 331.600,205.200 331.600 C 207.067 331.600,208.400 331.433,208.400 331.200 C 208.400 330.978,209.467 330.800,210.800 330.800 C 212.133 330.800,213.200 330.622,213.200 330.400 C 213.200 330.180,214.100 330.000,215.200 330.000 C 216.300 330.000,217.200 329.820,217.200 329.600 C 217.200 329.380,217.920 329.200,218.800 329.200 C 219.680 329.200,220.400 329.020,220.400 328.800 C 220.400 328.580,221.120 328.400,222.000 328.400 C 222.880 328.400,223.600 328.220,223.600 328.000 C 223.600 327.780,224.320 327.600,225.200 327.600 C 226.080 327.600,226.800 327.420,226.800 327.200 C 226.800 326.980,227.340 326.800,228.000 326.800 C 228.660 326.800,229.200 326.620,229.200 326.400 C 229.200 326.180,229.740 326.000,230.400 326.000 C 231.060 326.000,231.600 325.820,231.600 325.600 C 231.600 325.380,232.140 325.200,232.800 325.200 C 233.460 325.200,234.000 325.020,234.000 324.800 C 234.000 324.580,234.540 324.400,235.200 324.400 C 235.860 324.400,236.400 324.220,236.400 324.000 C 236.400 323.780,236.760 323.600,237.200 323.600 C 237.640 323.600,238.000 323.420,238.000 323.200 C 238.000 322.980,238.540 322.800,239.200 322.800 C 239.860 322.800,240.400 322.620,240.400 322.400 C 240.400 322.180,240.760 322.000,241.200 322.000 C 241.640 322.000,242.000 321.820,242.000 321.600 C 242.000 321.380,242.540 321.200,243.200 321.200 C 243.860 321.200,244.400 321.020,244.400 320.800 C 244.400 320.580,244.760 320.400,245.200 320.400 C 245.640 320.400,246.000 320.220,246.000 320.000 C 246.000 319.780,246.360 319.600,246.800 319.600 C 247.240 319.600,247.600 319.420,247.600 319.200 C 247.600 318.980,247.960 318.800,248.400 318.800 C 248.840 318.800,249.200 318.620,249.200 318.400 C 249.200 318.180,249.560 318.000,250.000 318.000 C 250.440 318.000,250.800 317.820,250.800 317.600 C 250.800 317.380,251.160 317.200,251.600 317.200 C 252.040 317.200,252.400 317.020,252.400 316.800 C 252.400 316.580,252.760 316.400,253.200 316.400 C 253.640 316.400,254.000 316.220,254.000 316.000 C 254.000 315.780,254.360 315.600,254.800 315.600 C 255.240 315.600,255.600 315.420,255.600 315.200 C 255.600 314.980,255.920 314.800,256.312 314.800 C 256.703 314.800,257.283 314.440,257.600 314.000 C 257.917 313.560,258.497 313.200,258.888 313.200 C 259.280 313.200,259.600 313.020,259.600 312.800 C 259.600 312.580,259.920 312.400,260.312 312.400 C 260.703 312.400,261.283 312.040,261.600 311.600 C 261.917 311.160,262.457 310.800,262.800 310.800 C 263.143 310.800,263.683 310.440,264.000 310.000 C 264.317 309.560,264.857 309.200,265.200 309.200 C 265.543 309.200,266.083 308.840,266.400 308.400 C 266.717 307.960,267.257 307.600,267.600 307.600 C 267.943 307.600,268.483 307.240,268.800 306.800 C 269.117 306.360,269.621 306.000,269.920 306.000 C 270.218 306.000,271.154 305.280,272.000 304.400 C 272.846 303.520,273.746 302.800,274.000 302.800 C 274.254 302.800,275.154 302.080,276.000 301.200 C 276.846 300.320,277.732 299.600,277.971 299.600 C 278.538 299.600,295.600 282.538,295.600 281.971 C 295.600 281.732,296.320 280.846,297.200 280.000 C 298.080 279.154,298.800 278.251,298.800 277.992 C 298.800 277.733,299.340 277.017,300.000 276.400 C 300.660 275.783,301.200 275.063,301.200 274.800 C 301.200 274.537,301.740 273.817,302.400 273.200 C 303.060 272.583,303.600 271.831,303.600 271.528 C 303.600 271.225,303.960 270.717,304.400 270.400 C 304.840 270.083,305.200 269.543,305.200 269.200 C 305.200 268.857,305.560 268.317,306.000 268.000 C 306.440 267.683,306.800 267.103,306.800 266.712 C 306.800 266.320,306.980 266.000,307.200 266.000 C 307.420 266.000,307.600 265.680,307.600 265.288 C 307.600 264.897,307.960 264.317,308.400 264.000 C 308.840 263.683,309.200 263.103,309.200 262.712 C 309.200 262.320,309.380 262.000,309.600 262.000 C 309.820 262.000,310.000 261.640,310.000 261.200 C 310.000 260.760,310.180 260.400,310.400 260.400 C 310.620 260.400,310.800 260.080,310.800 259.688 C 310.800 259.297,311.160 258.717,311.600 258.400 C 312.040 258.083,312.400 257.503,312.400 257.112 C 312.400 256.720,312.580 256.400,312.800 256.400 C 313.020 256.400,313.200 256.040,313.200 255.600 C 313.200 255.160,313.380 254.800,313.600 254.800 C 313.820 254.800,314.000 254.440,314.000 254.000 C 314.000 253.560,314.180 253.200,314.400 253.200 C 314.620 253.200,314.800 252.840,314.800 252.400 C 314.800 251.960,314.980 251.600,315.200 251.600 C 315.420 251.600,315.600 251.060,315.600 250.400 C 315.600 249.740,315.780 249.200,316.000 249.200 C 316.220 249.200,316.400 248.840,316.400 248.400 C 316.400 247.960,316.580 247.600,316.800 247.600 C 317.020 247.600,317.200 247.240,317.200 246.800 C 317.200 246.360,317.380 246.000,317.600 246.000 C 317.820 246.000,318.000 245.460,318.000 244.800 C 318.000 244.140,318.180 243.600,318.400 243.600 C 318.620 243.600,318.800 243.240,318.800 242.800 C 318.800 242.360,318.980 242.000,319.200 242.000 C 319.420 242.000,319.600 241.460,319.600 240.800 C 319.600 240.140,319.780 239.600,320.000 239.600 C 320.220 239.600,320.400 239.060,320.400 238.400 C 320.400 237.740,320.580 237.200,320.800 237.200 C 321.020 237.200,321.200 236.660,321.200 236.000 C 321.200 235.340,321.380 234.800,321.600 234.800 C 321.820 234.800,322.000 234.260,322.000 233.600 C 322.000 232.940,322.180 232.400,322.400 232.400 C 322.620 232.400,322.800 231.860,322.800 231.200 C 322.800 230.540,322.980 230.000,323.200 230.000 C 323.420 230.000,323.600 229.460,323.600 228.800 C 323.600 228.140,323.780 227.600,324.000 227.600 C 324.220 227.600,324.400 226.880,324.400 226.000 C 324.400 225.120,324.580 224.400,324.800 224.400 C 325.020 224.400,325.200 223.500,325.200 222.400 C 325.200 221.300,325.380 220.400,325.600 220.400 C 325.820 220.400,326.000 219.500,326.000 218.400 C 326.000 217.300,326.180 216.400,326.400 216.400 C 326.622 216.400,326.800 215.333,326.800 214.000 C 326.800 212.667,326.978 211.600,327.200 211.600 C 327.433 211.600,327.600 210.267,327.600 208.400 C 327.600 206.533,327.767 205.200,328.000 205.200 C 328.260 205.200,328.400 199.733,328.400 189.600 C 328.400 179.467,328.260 174.000,328.000 174.000 C 327.767 174.000,327.600 172.667,327.600 170.800 C 327.600 168.933,327.433 167.600,327.200 167.600 C 326.978 167.600,326.800 166.533,326.800 165.200 C 326.800 163.867,326.622 162.800,326.400 162.800 C 326.180 162.800,326.000 161.900,326.000 160.800 C 326.000 159.700,325.820 158.800,325.600 158.800 C 325.380 158.800,325.200 158.080,325.200 157.200 C 325.200 156.320,325.020 155.600,324.800 155.600 C 324.580 155.600,324.400 154.880,324.400 154.000 C 324.400 153.120,324.220 152.400,324.000 152.400 C 323.780 152.400,323.600 151.680,323.600 150.800 C 323.600 149.920,323.420 149.200,323.200 149.200 C 322.980 149.200,322.800 148.660,322.800 148.000 C 322.800 147.340,322.620 146.800,322.400 146.800 C 322.180 146.800,322.000 146.260,322.000 145.600 C 322.000 144.940,321.820 144.400,321.600 144.400 C 321.380 144.400,321.200 143.860,321.200 143.200 C 321.200 142.540,321.020 142.000,320.800 142.000 C 320.580 142.000,320.400 141.460,320.400 140.800 C 320.400 140.140,320.220 139.600,320.000 139.600 C 319.780 139.600,319.600 139.060,319.600 138.400 C 319.600 137.740,319.420 137.200,319.200 137.200 C 318.980 137.200,318.800 136.840,318.800 136.400 C 318.800 135.960,318.620 135.600,318.400 135.600 C 318.180 135.600,318.000 135.060,318.000 134.400 C 318.000 133.740,317.820 133.200,317.600 133.200 C 317.380 133.200,317.200 132.840,317.200 132.400 C 317.200 131.960,317.020 131.600,316.800 131.600 C 316.580 131.600,316.400 131.240,316.400 130.800 C 316.400 130.360,316.220 130.000,316.000 130.000 C 315.780 130.000,315.600 129.460,315.600 128.800 C 315.600 128.140,315.420 127.600,315.200 127.600 C 314.980 127.600,314.800 127.240,314.800 126.800 C 314.800 126.360,314.620 126.000,314.400 126.000 C 314.180 126.000,314.000 125.640,314.000 125.200 C 314.000 124.760,313.820 124.400,313.600 124.400 C 313.380 124.400,313.200 124.040,313.200 123.600 C 313.200 123.160,313.020 122.800,312.800 122.800 C 312.580 122.800,312.400 122.480,312.400 122.088 C 312.400 121.697,312.040 121.117,311.600 120.800 C 311.160 120.483,310.800 119.903,310.800 119.512 C 310.800 119.120,310.620 118.800,310.400 118.800 C 310.180 118.800,310.000 118.440,310.000 118.000 C 310.000 117.560,309.820 117.200,309.600 117.200 C 309.380 117.200,309.200 116.880,309.200 116.488 C 309.200 116.097,308.840 115.517,308.400 115.200 C 307.960 114.883,307.600 114.343,307.600 114.000 C 307.600 113.657,307.240 113.117,306.800 112.800 C 306.360 112.483,306.000 111.903,306.000 111.512 C 306.000 111.120,305.820 110.800,305.600 110.800 C 305.380 110.800,305.200 110.512,305.200 110.160 C 305.200 109.809,304.660 109.017,304.000 108.400 C 303.340 107.783,302.800 107.031,302.800 106.728 C 302.800 106.425,302.440 105.917,302.000 105.600 C 301.560 105.283,301.200 104.775,301.200 104.472 C 301.200 104.169,300.660 103.417,300.000 102.800 C 299.340 102.183,298.800 101.470,298.800 101.214 C 298.800 100.958,297.900 99.871,296.800 98.800 C 295.700 97.729,294.800 96.659,294.800 96.424 C 294.800 95.860,278.534 79.600,277.971 79.600 C 277.732 79.600,276.846 78.880,276.000 78.000 C 275.154 77.120,274.251 76.400,273.992 76.400 C 273.733 76.400,273.017 75.860,272.400 75.200 C 271.783 74.540,271.063 74.000,270.800 74.000 C 270.537 74.000,269.817 73.460,269.200 72.800 C 268.583 72.140,267.831 71.600,267.528 71.600 C 267.225 71.600,266.717 71.240,266.400 70.800 C 266.083 70.360,265.543 70.000,265.200 70.000 C 264.857 70.000,264.317 69.640,264.000 69.200 C 263.683 68.760,263.103 68.400,262.712 68.400 C 262.320 68.400,262.000 68.220,262.000 68.000 C 262.000 67.780,261.680 67.600,261.288 67.600 C 260.897 67.600,260.317 67.240,260.000 66.800 C 259.683 66.360,259.103 66.000,258.712 66.000 C 258.320 66.000,258.000 65.820,258.000 65.600 C 258.000 65.380,257.680 65.200,257.288 65.200 C 256.897 65.200,256.317 64.840,256.000 64.400 C 255.683 63.960,255.103 63.600,254.712 63.600 C 254.320 63.600,254.000 63.420,254.000 63.200 C 254.000 62.980,253.640 62.800,253.200 62.800 C 252.760 62.800,252.400 62.620,252.400 62.400 C 252.400 62.180,252.040 62.000,251.600 62.000 C 251.160 62.000,250.800 61.820,250.800 61.600 C 250.800 61.380,250.440 61.200,250.000 61.200 C 249.560 61.200,249.200 61.020,249.200 60.800 C 249.200 60.580,248.840 60.400,248.400 60.400 C 247.960 60.400,247.600 60.220,247.600 60.000 C 247.600 59.780,247.240 59.600,246.800 59.600 C 246.360 59.600,246.000 59.420,246.000 59.200 C 246.000 58.980,245.460 58.800,244.800 58.800 C 244.140 58.800,243.600 58.620,243.600 58.400 C 243.600 58.180,243.240 58.000,242.800 58.000 C 242.360 58.000,242.000 57.820,242.000 57.600 C 242.000 57.380,241.640 57.200,241.200 57.200 C 240.760 57.200,240.400 57.020,240.400 56.800 C 240.400 56.580,239.860 56.400,239.200 56.400 C 238.540 56.400,238.000 56.220,238.000 56.000 C 238.000 55.780,237.640 55.600,237.200 55.600 C 236.760 55.600,236.400 55.420,236.400 55.200 C 236.400 54.980,235.860 54.800,235.200 54.800 C 234.540 54.800,234.000 54.620,234.000 54.400 C 234.000 54.180,233.460 54.000,232.800 54.000 C 232.140 54.000,231.600 53.820,231.600 53.600 C 231.600 53.380,231.060 53.200,230.400 53.200 C 229.740 53.200,229.200 53.020,229.200 52.800 C 229.200 52.580,228.480 52.400,227.600 52.400 C 226.720 52.400,226.000 52.220,226.000 52.000 C 226.000 51.780,225.460 51.600,224.800 51.600 C 224.140 51.600,223.600 51.420,223.600 51.200 C 223.600 50.980,222.880 50.800,222.000 50.800 C 221.120 50.800,220.400 50.620,220.400 50.400 C 220.400 50.180,219.500 50.000,218.400 50.000 C 217.300 50.000,216.400 49.820,216.400 49.600 C 216.400 49.380,215.680 49.200,214.800 49.200 C 213.920 49.200,213.200 49.020,213.200 48.800 C 213.200 48.578,212.133 48.400,210.800 48.400 C 209.467 48.400,208.400 48.222,208.400 48.000 C 208.400 47.767,207.067 47.600,205.200 47.600 C 203.333 47.600,202.000 47.433,202.000 47.200 C 202.000 46.940,196.533 46.800,186.400 46.800 C 176.267 46.800,170.800 46.940,170.800 47.200 M232.997 96.398 C 233.326 96.671,234.090 96.800,234.693 96.684 C 235.297 96.569,236.153 96.673,236.596 96.917 C 237.038 97.160,237.815 97.309,238.321 97.248 C 238.828 97.187,239.458 97.306,239.721 97.513 C 239.985 97.720,240.866 97.991,241.680 98.116 C 243.335 98.370,246.049 99.535,246.485 100.179 C 246.642 100.411,246.925 100.600,247.114 100.600 C 247.303 100.600,247.772 100.915,248.157 101.300 C 248.542 101.685,249.058 102.000,249.303 102.000 C 249.940 102.000,251.600 103.640,251.600 104.270 C 251.600 104.561,251.780 104.800,252.000 104.800 C 252.220 104.800,252.400 105.149,252.400 105.576 C 252.400 106.003,252.580 106.464,252.800 106.600 C 253.295 106.906,253.332 109.871,252.845 110.172 C 252.650 110.293,252.368 111.043,252.219 111.840 C 252.040 112.794,251.683 113.358,251.174 113.491 C 250.748 113.602,250.400 113.916,250.400 114.189 C 250.400 114.848,246.199 118.800,245.499 118.800 C 245.197 118.800,244.421 119.354,243.775 120.031 C 242.613 121.248,238.926 123.200,237.788 123.200 C 237.465 123.200,236.883 123.515,236.495 123.900 C 236.107 124.285,234.936 125.050,233.893 125.600 C 232.850 126.150,231.610 126.891,231.138 127.247 L 230.279 127.895 231.387 129.347 C 232.772 131.163,233.741 131.185,235.732 129.447 C 236.575 128.712,238.073 127.706,239.061 127.212 C 240.049 126.719,240.954 126.064,241.072 125.758 C 241.189 125.451,241.445 125.200,241.639 125.200 C 242.748 125.200,246.050 123.341,246.232 122.614 C 246.416 121.883,249.819 119.820,252.091 119.062 C 254.396 118.293,265.200 124.861,265.200 127.031 C 265.200 127.289,266.010 128.284,267.000 129.244 C 267.990 130.203,268.800 131.184,268.800 131.424 C 268.800 131.664,269.255 132.288,269.812 132.811 C 270.371 133.337,270.725 134.019,270.603 134.337 C 270.481 134.653,270.710 135.142,271.111 135.423 C 271.788 135.897,272.872 137.843,273.949 140.519 C 275.247 143.741,273.795 152.800,271.981 152.800 C 271.758 152.800,271.456 153.115,271.310 153.500 C 269.566 158.105,257.203 158.334,251.290 153.871 C 249.945 152.855,250.401 154.229,251.776 155.334 C 258.463 160.707,261.204 168.453,257.555 171.664 C 257.140 172.029,256.800 172.597,256.800 172.924 C 256.800 173.705,252.446 177.598,250.512 178.547 C 249.680 178.955,248.730 179.445,248.400 179.636 C 243.022 182.756,232.000 183.814,232.000 181.210 C 232.000 180.984,231.722 180.800,231.382 180.800 C 231.042 180.800,230.358 180.395,229.863 179.900 C 229.368 179.405,228.192 178.341,227.251 177.536 C 226.310 176.731,225.500 175.804,225.452 175.476 C 225.404 175.149,225.157 174.630,224.903 174.324 C 223.583 172.734,223.158 165.749,224.005 159.565 C 224.249 157.778,224.393 156.271,224.325 156.216 C 222.923 155.086,219.639 153.132,218.847 152.956 C 218.271 152.829,217.080 152.405,216.200 152.016 C 210.756 149.606,210.404 149.774,210.494 154.736 C 210.545 157.582,210.400 158.517,209.678 159.975 C 209.195 160.951,208.800 162.070,208.800 162.461 C 208.800 164.426,204.133 170.400,202.598 170.400 C 202.251 170.400,201.580 170.760,201.108 171.200 C 199.125 173.048,189.724 171.827,185.082 169.119 C 184.028 168.503,182.909 168.000,182.596 168.000 C 182.284 168.000,181.835 167.640,181.600 167.200 C 181.365 166.760,180.993 166.400,180.775 166.400 C 180.259 166.400,176.800 162.941,176.800 162.425 C 176.800 162.207,176.440 161.835,176.000 161.600 C 175.560 161.365,175.200 160.813,175.200 160.373 C 175.200 159.934,174.937 159.474,174.615 159.351 C 173.769 159.026,169.130 149.447,169.435 148.653 C 169.603 148.216,169.473 148.000,169.043 148.000 C 168.689 148.000,168.400 147.680,168.400 147.289 C 168.400 146.898,168.162 146.223,167.870 145.789 C 164.145 140.243,168.058 134.400,175.497 134.400 C 176.566 134.400,177.623 134.217,177.848 133.992 C 178.125 133.715,178.813 133.781,179.994 134.198 C 180.955 134.537,182.106 134.688,182.567 134.534 C 183.682 134.164,193.293 134.387,193.800 134.796 C 194.020 134.973,195.550 135.149,197.200 135.187 C 198.850 135.226,200.650 135.289,201.200 135.328 C 201.960 135.383,202.231 135.184,202.328 134.500 C 202.454 133.613,202.391 133.600,198.028 133.600 C 195.343 133.600,193.600 133.443,193.600 133.200 C 193.600 132.967,192.267 132.800,190.400 132.800 C 188.493 132.800,187.200 132.635,187.200 132.392 C 187.200 132.159,186.780 132.090,186.219 132.231 C 185.648 132.374,184.702 132.210,183.957 131.839 C 183.253 131.487,182.355 131.200,181.962 131.200 C 181.569 131.200,181.136 131.020,181.000 130.800 C 180.864 130.580,180.403 130.400,179.976 130.400 C 179.549 130.400,179.200 130.220,179.200 130.000 C 179.200 129.780,178.837 129.600,178.394 129.600 C 177.272 129.600,174.765 127.907,174.990 127.300 C 175.100 127.001,174.841 126.800,174.344 126.800 C 173.277 126.800,169.600 123.123,169.600 122.057 C 169.600 121.611,169.446 121.152,169.259 121.036 C 166.620 119.405,170.762 104.805,174.572 102.308 C 175.282 101.843,176.251 100.869,176.727 100.143 C 178.388 97.610,183.236 96.257,187.256 97.205 C 193.556 98.690,198.960 102.706,207.163 112.000 C 209.007 114.090,210.684 115.980,210.889 116.200 C 211.245 116.582,210.935 115.700,209.744 112.939 C 209.225 111.736,208.596 108.596,208.132 104.883 C 207.763 101.936,209.339 99.058,212.072 97.689 C 215.579 95.934,231.271 94.965,232.997 96.398 M220.213 154.987 C 221.578 156.351,222.245 159.200,221.200 159.200 C 220.980 159.200,220.800 159.740,220.800 160.400 C 220.800 161.060,220.620 161.600,220.400 161.600 C 220.180 161.600,220.000 162.320,220.000 163.200 C 220.000 164.080,219.820 164.800,219.600 164.800 C 219.380 164.800,219.200 165.340,219.200 166.000 C 219.200 166.660,219.020 167.200,218.800 167.200 C 218.580 167.200,218.400 167.740,218.400 168.400 C 218.400 169.060,218.220 169.600,218.000 169.600 C 217.780 169.600,217.600 170.140,217.600 170.800 C 217.600 171.460,217.420 172.000,217.200 172.000 C 216.980 172.000,216.800 172.540,216.800 173.200 C 216.800 173.860,216.620 174.400,216.400 174.400 C 216.180 174.400,216.000 174.940,216.000 175.600 C 216.000 176.260,215.820 176.800,215.600 176.800 C 215.380 176.800,215.200 177.160,215.200 177.600 C 215.200 178.040,215.020 178.400,214.800 178.400 C 214.580 178.400,214.400 178.940,214.400 179.600 C 214.400 180.260,214.220 180.800,214.000 180.800 C 213.780 180.800,213.600 181.160,213.600 181.600 C 213.600 182.040,213.420 182.400,213.200 182.400 C 212.980 182.400,212.800 182.839,212.800 183.376 C 212.800 183.913,212.620 184.464,212.400 184.600 C 212.180 184.736,212.000 185.197,212.000 185.624 C 212.000 186.051,211.820 186.400,211.600 186.400 C 211.380 186.400,211.200 186.760,211.200 187.200 C 211.200 187.640,211.020 188.000,210.800 188.000 C 210.580 188.000,210.400 188.360,210.400 188.800 C 210.400 189.240,210.220 189.600,210.000 189.600 C 209.780 189.600,209.600 190.140,209.600 190.800 C 209.600 191.460,209.420 192.000,209.200 192.000 C 208.980 192.000,208.800 192.360,208.800 192.800 C 208.800 193.240,208.620 193.600,208.400 193.600 C 208.180 193.600,208.000 193.960,208.000 194.400 C 208.000 194.840,207.820 195.200,207.600 195.200 C 207.380 195.200,207.200 195.560,207.200 196.000 C 207.200 196.440,207.020 196.800,206.800 196.800 C 206.580 196.800,206.400 197.036,206.400 197.325 C 206.400 197.613,206.040 198.236,205.600 198.708 C 205.160 199.180,204.800 199.844,204.800 200.183 C 204.800 200.522,204.620 200.800,204.400 200.800 C 204.180 200.800,204.000 201.160,204.000 201.600 C 204.000 202.040,203.820 202.400,203.600 202.400 C 203.380 202.400,203.200 202.760,203.200 203.200 C 203.200 203.640,203.020 204.000,202.800 204.000 C 202.580 204.000,202.400 204.320,202.400 204.712 C 202.400 205.103,202.040 205.683,201.600 206.000 C 201.160 206.317,200.800 206.857,200.800 207.200 C 200.800 207.543,200.440 208.083,200.000 208.400 C 199.560 208.717,199.200 209.257,199.200 209.600 C 199.200 209.943,198.840 210.483,198.400 210.800 C 197.960 211.117,197.600 211.657,197.600 212.000 C 197.600 212.343,197.240 212.883,196.800 213.200 C 196.360 213.517,196.000 214.025,196.000 214.328 C 196.000 214.631,195.460 215.383,194.800 216.000 C 194.140 216.617,193.600 217.329,193.600 217.583 C 193.600 217.837,192.520 219.104,191.200 220.400 C 189.880 221.696,188.800 222.948,188.800 223.184 C 188.800 223.739,182.143 230.400,181.588 230.400 C 180.917 230.400,179.131 232.364,179.402 232.803 C 179.537 233.022,180.170 233.200,180.810 233.200 C 182.420 233.200,182.932 234.357,183.862 240.100 C 183.996 240.925,184.238 241.600,184.401 241.600 C 184.680 241.600,184.871 240.949,185.978 236.216 C 186.584 233.623,186.987 233.200,188.849 233.200 C 190.497 233.200,190.927 234.168,190.049 235.905 C 189.511 236.971,188.800 239.377,188.800 240.134 C 188.800 240.506,188.638 241.123,188.439 241.505 C 188.240 241.887,187.848 243.010,187.568 244.000 C 186.303 248.465,182.466 248.707,181.226 244.400 C 180.941 243.410,180.567 242.150,180.395 241.600 C 178.897 236.798,178.366 234.684,178.474 233.943 C 178.543 233.465,178.375 232.998,178.100 232.904 C 177.805 232.803,177.600 233.076,177.600 233.567 C 177.600 234.121,177.344 234.400,176.833 234.400 C 176.412 234.400,175.992 234.623,175.901 234.896 C 175.709 235.473,174.400 234.358,174.400 233.618 C 174.400 233.376,176.740 230.848,179.600 228.000 C 182.460 225.152,184.800 222.619,184.800 222.371 C 184.800 222.124,185.340 221.417,186.000 220.800 C 186.660 220.183,187.200 219.508,187.200 219.299 C 187.200 219.090,187.740 218.354,188.400 217.663 C 189.060 216.972,189.600 216.202,189.600 215.951 C 189.600 215.699,189.916 215.203,190.303 214.847 C 190.689 214.491,191.260 213.705,191.570 213.100 C 191.881 212.495,192.285 212.000,192.468 212.000 C 192.650 212.000,192.800 211.680,192.800 211.288 C 192.800 210.897,193.160 210.317,193.600 210.000 C 194.040 209.683,194.400 209.103,194.400 208.712 C 194.400 208.320,194.580 208.000,194.800 208.000 C 195.020 208.000,195.200 207.680,195.200 207.288 C 195.200 206.897,195.560 206.317,196.000 206.000 C 196.440 205.683,196.800 205.103,196.800 204.712 C 196.800 204.320,196.980 204.000,197.200 204.000 C 197.420 204.000,197.600 203.640,197.600 203.200 C 197.600 202.760,197.780 202.400,198.000 202.400 C 198.220 202.400,198.400 202.040,198.400 201.600 C 198.400 201.160,198.580 200.800,198.800 200.800 C 199.020 200.800,199.200 200.440,199.200 200.000 C 199.200 199.560,199.380 199.200,199.600 199.200 C 199.820 199.200,200.000 198.840,200.000 198.400 C 200.000 197.960,200.180 197.600,200.400 197.600 C 200.620 197.600,200.800 197.245,200.800 196.812 C 200.800 196.379,201.160 195.383,201.600 194.600 C 202.040 193.817,202.400 192.911,202.400 192.588 C 202.400 192.265,202.580 192.000,202.800 192.000 C 203.020 192.000,203.200 191.640,203.200 191.200 C 203.200 190.760,203.380 190.400,203.600 190.400 C 203.820 190.400,204.000 189.860,204.000 189.200 C 204.000 188.540,204.180 188.000,204.400 188.000 C 204.620 188.000,204.800 187.561,204.800 187.024 C 204.800 186.487,204.980 185.936,205.200 185.800 C 205.420 185.664,205.600 185.203,205.600 184.776 C 205.600 184.349,205.780 184.000,206.000 184.000 C 206.220 184.000,206.400 183.460,206.400 182.800 C 206.400 182.140,206.580 181.600,206.800 181.600 C 207.020 181.600,207.200 180.981,207.200 180.224 C 207.200 179.467,207.380 178.736,207.600 178.600 C 207.820 178.464,208.000 177.823,208.000 177.176 C 208.000 176.529,208.180 176.000,208.400 176.000 C 208.620 176.000,208.800 175.460,208.800 174.800 C 208.800 174.140,208.980 173.600,209.200 173.600 C 209.420 173.600,209.600 172.880,209.600 172.000 C 209.600 171.120,209.780 170.400,210.000 170.400 C 210.220 170.400,210.400 169.680,210.400 168.800 C 210.400 167.920,210.580 167.200,210.800 167.200 C 211.020 167.200,211.200 166.480,211.200 165.600 C 211.200 164.720,211.380 164.000,211.600 164.000 C 211.820 164.000,212.000 163.100,212.000 162.000 C 212.000 160.900,212.180 160.000,212.400 160.000 C 212.620 160.000,212.802 159.055,212.805 157.900 C 212.817 153.529,217.079 151.852,220.213 154.987 M160.600 170.000 C 160.736 170.220,161.377 170.400,162.024 170.400 C 162.671 170.400,163.200 170.580,163.200 170.800 C 163.200 171.020,163.740 171.200,164.400 171.200 C 165.060 171.200,165.600 171.380,165.600 171.600 C 165.600 171.820,165.960 172.000,166.400 172.000 C 166.840 172.000,167.200 172.180,167.200 172.400 C 167.200 172.620,167.520 172.800,167.912 172.800 C 168.303 172.800,168.883 173.160,169.200 173.600 C 169.517 174.040,169.989 174.400,170.248 174.400 C 170.507 174.400,171.638 175.300,172.761 176.400 C 173.885 177.500,175.004 178.400,175.248 178.400 C 175.753 178.400,178.400 181.174,178.400 181.704 C 178.400 181.895,179.300 182.929,180.400 184.000 C 181.500 185.071,182.400 186.158,182.400 186.414 C 182.400 186.670,182.910 187.356,183.533 187.940 C 184.156 188.523,184.789 189.495,184.940 190.100 L 185.215 191.200 178.608 191.200 C 174.469 191.200,172.000 191.349,172.000 191.600 C 172.000 191.848,169.867 192.000,166.400 192.000 C 162.933 192.000,160.800 191.848,160.800 191.600 C 160.800 191.352,158.667 191.200,155.200 191.200 C 151.733 191.200,149.600 191.048,149.600 190.800 C 149.600 190.580,148.700 190.400,147.600 190.400 C 146.500 190.400,145.600 190.220,145.600 190.000 C 145.600 189.780,144.880 189.600,144.000 189.600 C 143.120 189.600,142.400 189.420,142.400 189.200 C 142.400 188.980,141.984 188.800,141.475 188.800 C 140.967 188.800,140.164 188.440,139.692 188.000 C 139.220 187.560,138.638 187.200,138.399 187.200 C 137.028 187.200,136.000 185.236,136.000 182.618 C 136.000 181.139,136.174 180.000,136.400 180.000 C 136.620 180.000,136.800 179.712,136.800 179.360 C 136.800 178.653,140.265 175.200,140.975 175.200 C 141.222 175.200,141.683 174.840,142.000 174.400 C 142.317 173.960,142.857 173.600,143.200 173.600 C 143.543 173.600,144.083 173.240,144.400 172.800 C 144.717 172.360,145.297 172.000,145.688 172.000 C 146.080 172.000,146.400 171.820,146.400 171.600 C 146.400 171.380,146.940 171.200,147.600 171.200 C 148.260 171.200,148.800 171.020,148.800 170.800 C 148.800 170.580,149.340 170.400,150.000 170.400 C 150.660 170.400,151.200 170.220,151.200 170.000 C 151.200 169.757,152.992 169.600,155.776 169.600 C 158.396 169.600,160.458 169.771,160.600 170.000 M126.311 227.023 C 127.094 227.571,127.200 227.999,127.200 230.623 C 127.200 233.494,127.770 234.543,128.600 233.200 C 129.147 232.316,131.204 232.806,132.729 234.183 C 137.681 238.657,133.799 250.126,128.411 246.943 C 127.414 246.354,127.086 246.326,126.276 246.759 C 125.750 247.041,124.888 247.210,124.360 247.136 L 123.400 247.000 123.293 237.200 C 123.170 226.013,123.462 225.027,126.311 227.023 M142.674 227.270 C 144.874 229.336,142.167 232.561,139.931 230.538 C 138.910 229.613,138.991 227.791,140.089 227.023 C 141.257 226.204,141.572 226.234,142.674 227.270 M156.605 234.058 C 160.599 237.565,160.099 241.196,155.620 241.206 C 152.726 241.213,151.757 241.590,152.130 242.563 C 152.719 244.098,157.707 244.430,158.266 242.972 C 158.387 242.657,159.006 242.400,159.643 242.400 C 160.279 242.400,160.800 242.220,160.800 242.000 C 160.800 241.780,161.160 241.600,161.600 241.600 C 162.040 241.600,162.400 241.420,162.400 241.200 C 162.400 240.980,162.670 240.800,163.000 240.800 C 163.489 240.800,163.600 240.132,163.600 237.187 C 163.600 233.078,164.213 232.290,166.500 233.458 C 167.455 233.946,167.756 233.940,168.780 233.410 C 170.484 232.529,171.767 232.656,173.179 233.844 L 174.420 234.888 174.310 240.944 L 174.200 247.000 172.726 247.123 C 170.580 247.301,170.243 246.425,170.503 241.339 C 170.667 238.118,170.592 237.125,170.156 236.764 C 169.701 236.386,169.600 236.534,169.600 237.580 C 169.600 238.847,168.852 240.000,168.029 240.000 C 167.760 240.000,167.600 241.168,167.600 243.120 C 167.600 246.513,167.263 247.200,165.600 247.200 C 164.130 247.200,163.600 246.496,163.600 244.544 C 163.600 242.949,162.834 241.697,162.490 242.729 C 162.404 242.988,161.808 243.200,161.167 243.200 C 160.525 243.200,160.000 243.380,160.000 243.600 C 160.000 243.820,159.644 244.000,159.210 244.000 C 158.551 244.000,158.459 244.193,158.653 245.163 C 159.371 248.757,150.804 248.114,148.635 244.410 C 145.023 238.242,151.616 229.678,156.605 234.058 M201.120 233.362 C 202.850 234.262,203.865 235.651,204.421 237.875 C 205.143 240.770,204.761 241.136,200.864 241.284 C 198.062 241.390,197.789 241.475,197.676 242.273 C 197.499 243.514,198.893 244.151,201.119 243.846 C 203.152 243.567,204.000 244.024,204.000 245.400 C 204.000 247.892,197.681 248.268,195.330 245.917 C 190.251 240.838,195.135 230.248,201.120 233.362 M218.289 233.589 C 219.947 234.600,220.053 235.125,219.915 241.600 L 219.800 247.000 218.000 247.000 L 216.200 247.000 216.087 242.016 C 215.980 237.275,215.769 236.428,214.696 236.406 C 213.552 236.383,212.993 238.185,212.800 242.510 L 212.600 247.000 211.274 247.127 C 208.936 247.352,208.800 246.974,208.800 240.231 C 208.800 233.179,209.498 231.880,212.333 233.651 C 212.890 233.999,213.322 233.957,214.227 233.467 C 215.793 232.619,216.746 232.648,218.289 233.589 M228.300 233.707 C 228.647 233.978,228.800 235.467,228.800 238.569 C 228.800 244.135,229.648 245.360,231.854 242.979 C 232.723 242.042,232.800 241.619,232.800 237.779 L 232.800 233.600 233.856 233.600 C 235.695 233.600,235.973 234.492,235.987 240.438 C 236.003 247.113,234.961 248.868,232.760 245.873 C 232.628 245.693,231.857 245.918,231.048 246.373 C 226.610 248.866,224.800 246.907,224.800 239.610 C 224.800 233.112,225.668 231.648,228.300 233.707 M248.579 233.550 C 250.326 234.575,251.137 236.249,251.171 238.900 C 251.203 241.467,251.451 241.309,247.570 241.207 C 244.868 241.137,244.077 241.760,245.070 243.178 C 245.660 244.021,245.922 244.080,248.069 243.856 C 250.305 243.622,250.444 243.660,250.883 244.622 C 252.048 247.180,245.839 248.564,242.826 246.418 C 236.414 241.853,241.882 229.621,248.579 233.550 M143.000 240.200 L 143.000 247.000 141.674 247.127 C 139.336 247.352,139.200 246.974,139.200 240.231 C 139.200 233.480,139.334 233.091,141.598 233.282 L 143.000 233.400 143.000 240.200 M152.480 236.480 C 151.266 237.694,152.990 239.597,154.526 238.738 C 155.775 238.038,155.086 236.000,153.600 236.000 C 153.248 236.000,152.744 236.216,152.480 236.480 M244.646 236.700 C 244.511 237.085,244.302 237.604,244.182 237.852 C 243.924 238.389,245.665 238.903,246.568 238.557 C 246.916 238.424,247.200 238.010,247.200 237.637 C 247.200 236.135,245.116 235.370,244.646 236.700 M127.862 237.131 C 126.963 238.125,126.926 242.875,127.812 243.610 C 128.880 244.496,130.245 243.529,130.542 241.675 C 131.132 237.985,129.537 235.281,127.862 237.131 M198.100 236.665 C 197.036 237.094,197.544 238.400,198.776 238.400 C 200.157 238.400,200.666 237.803,199.985 236.982 C 199.493 236.389,198.993 236.305,198.100 236.665 M127.806 253.242 C 132.553 255.750,132.462 258.662,127.695 256.785 C 124.275 255.439,123.746 254.831,124.814 253.474 C 125.829 252.183,125.805 252.185,127.806 253.242 M149.767 253.043 C 150.315 253.253,150.400 254.370,150.400 261.404 L 150.400 269.522 151.625 269.949 C 152.737 270.336,152.838 270.515,152.725 271.888 L 152.600 273.400 150.500 273.521 C 148.653 273.627,148.280 273.512,147.400 272.562 L 146.400 271.483 146.400 262.622 C 146.400 252.541,146.645 251.845,149.767 253.043 M187.367 253.564 C 188.234 254.521,187.256 256.925,186.079 256.732 C 185.049 256.562,184.400 257.139,184.400 258.224 C 184.400 258.985,184.609 259.200,185.351 259.200 C 187.516 259.200,187.914 262.038,185.800 262.400 L 184.600 262.606 184.400 267.603 C 184.179 273.120,184.028 273.600,182.508 273.600 C 180.470 273.600,180.080 272.756,180.304 268.829 C 180.539 264.712,180.212 262.400,179.396 262.400 C 178.310 262.400,177.663 259.620,178.743 259.594 C 179.533 259.575,180.035 258.721,180.395 256.779 C 181.061 253.191,185.272 251.249,187.367 253.564 M131.160 259.780 C 133.235 260.852,133.534 261.798,133.636 267.620 C 133.744 273.740,133.543 274.174,131.031 273.266 C 130.019 272.900,129.406 272.876,128.839 273.179 C 127.551 273.868,124.604 273.700,123.962 272.900 C 120.956 269.156,122.518 265.311,127.338 264.588 C 129.491 264.265,129.964 263.793,129.050 262.878 C 128.489 262.317,128.160 262.298,126.538 262.732 C 124.462 263.287,124.124 263.120,123.773 261.364 C 123.373 259.364,128.310 258.305,131.160 259.780 M165.117 260.192 C 166.957 261.740,167.238 262.898,167.113 268.414 C 166.988 273.908,166.618 274.494,164.116 273.155 C 163.358 272.749,162.985 272.742,162.381 273.119 C 159.461 274.942,156.000 272.837,156.000 269.239 C 156.000 266.397,157.366 265.021,160.586 264.619 C 162.967 264.322,163.542 263.894,162.785 262.982 C 162.197 262.273,160.803 262.233,159.372 262.886 C 158.251 263.396,156.800 262.315,156.800 260.968 C 156.800 259.105,163.123 258.514,165.117 260.192 M199.146 260.599 C 200.111 261.470,200.784 262.489,200.932 263.299 C 201.062 264.015,201.268 264.960,201.390 265.400 C 201.808 266.915,201.018 267.388,197.716 267.600 C 194.928 267.779,194.587 267.889,194.480 268.643 C 194.307 269.854,196.311 270.649,198.027 270.050 C 200.441 269.209,201.948 271.550,199.911 272.977 C 196.540 275.338,191.075 272.934,190.082 268.654 C 188.494 261.810,194.540 256.438,199.146 260.599 M208.776 259.678 C 209.369 260.048,209.777 260.048,210.589 259.678 C 213.215 258.481,214.917 259.329,214.455 261.604 C 214.187 262.921,214.071 263.007,212.386 263.125 C 209.903 263.299,209.825 263.457,209.600 268.718 L 209.400 273.400 208.074 273.527 C 205.733 273.752,205.600 273.378,205.600 266.580 C 205.600 259.371,206.199 258.069,208.776 259.678 M220.926 259.788 C 221.716 260.306,221.960 260.306,222.958 259.788 C 224.422 259.029,226.565 259.034,227.200 259.800 C 227.824 260.552,228.771 260.547,229.776 259.787 C 230.933 258.912,232.838 259.074,234.200 260.163 L 235.400 261.122 235.531 266.783 C 235.673 272.941,235.489 273.600,233.631 273.600 C 231.832 273.600,231.600 272.994,231.600 268.294 C 231.600 262.990,231.200 261.885,229.766 263.232 C 228.862 264.081,228.800 264.413,228.800 268.390 C 228.800 272.886,228.547 273.600,226.953 273.600 C 224.857 273.600,224.800 273.458,224.800 268.206 C 224.800 259.945,222.368 259.865,222.000 268.114 C 221.776 273.140,221.613 273.600,220.056 273.600 C 218.136 273.600,218.000 273.125,218.000 266.400 C 218.000 259.096,218.420 258.146,220.926 259.788 M248.310 259.815 C 250.473 260.894,252.078 265.762,250.720 267.120 C 250.435 267.405,249.063 267.600,247.344 267.600 C 243.989 267.600,243.361 268.092,244.958 269.466 C 246.171 270.509,247.071 270.624,248.592 269.931 C 249.812 269.375,250.285 269.724,250.627 271.433 C 251.326 274.932,242.838 274.340,240.820 270.750 C 237.441 264.738,242.723 257.028,248.310 259.815 M194.880 262.880 C 193.951 263.809,194.310 264.800,195.576 264.800 C 196.995 264.800,197.385 264.294,196.804 263.208 C 196.316 262.295,195.589 262.171,194.880 262.880 M244.700 262.827 C 243.626 263.460,243.830 264.671,245.062 264.980 C 246.461 265.331,247.595 264.317,246.950 263.292 C 246.416 262.444,245.626 262.280,244.700 262.827 M160.100 267.410 C 159.028 268.555,158.996 268.916,159.846 270.214 C 160.782 271.643,163.200 271.154,163.200 269.536 C 163.200 269.219,163.395 268.765,163.633 268.527 C 163.943 268.217,163.916 267.855,163.537 267.247 C 162.832 266.120,161.238 266.195,160.100 267.410 M126.947 268.224 C 126.329 269.167,126.328 269.299,126.924 269.895 C 127.943 270.914,129.600 269.994,129.600 268.409 C 129.600 266.804,127.953 266.689,126.947 268.224 " stroke="none" fill="#040404" fill-rule="evenodd"></path></g></svg>