<svg id="svg" version="1.1" xmlns="http://www.w3.org/2000/svg" xmlns:xlink="http://www.w3.org/1999/xlink" width="400" height="400" viewBox="0, 0, 400,400"><g id="svgg"><path id="path0" d="M231.485 129.849 C 231.330 130.004,229.897 130.277,228.302 130.456 C 223.495 130.996,222.006 131.267,221.774 131.642 C 221.652 131.839,221.124 132.000,220.600 132.000 C 220.076 132.000,219.536 132.180,219.400 132.400 C 219.264 132.620,218.850 132.800,218.479 132.800 C 217.598 132.800,210.600 136.277,209.981 137.023 C 209.718 137.340,209.285 137.600,209.021 137.600 C 208.756 137.600,208.103 138.069,207.570 138.642 C 207.036 139.216,206.195 139.841,205.700 140.033 C 205.205 140.224,204.800 140.655,204.800 140.990 C 204.800 141.326,204.543 141.600,204.229 141.600 C 203.606 141.600,199.432 146.560,198.180 148.788 C 197.751 149.551,197.085 150.530,196.700 150.963 C 196.315 151.397,196.000 151.989,196.000 152.281 C 196.000 152.572,195.843 153.123,195.650 153.505 C 194.092 156.598,193.600 157.776,193.600 158.414 C 193.600 158.820,193.439 159.252,193.242 159.374 C 193.045 159.495,192.772 160.361,192.635 161.297 C 192.498 162.234,192.197 164.260,191.966 165.800 C 191.735 167.340,191.423 176.413,191.273 185.962 L 191.000 203.325 189.000 203.375 C 187.900 203.403,180.923 203.465,173.496 203.513 L 159.992 203.600 160.096 221.300 L 160.200 239.000 175.700 239.105 L 191.200 239.209 191.205 284.305 C 191.208 309.107,191.308 329.760,191.426 330.200 C 191.681 331.146,207.179 331.381,208.107 330.453 C 208.356 330.204,209.006 330.000,209.552 330.000 C 210.097 330.000,211.096 329.832,211.772 329.627 C 212.447 329.422,213.765 329.062,214.700 328.827 C 218.870 327.779,219.843 327.500,220.495 327.161 C 220.877 326.962,221.631 326.800,222.171 326.800 C 222.711 326.800,223.264 326.620,223.400 326.400 C 223.536 326.180,223.946 326.000,224.310 326.000 C 225.597 326.000,228.472 324.691,227.926 324.354 C 227.513 324.099,227.549 323.795,228.104 322.855 C 228.753 321.756,228.800 318.910,228.800 280.438 L 228.800 239.200 243.810 239.200 L 258.820 239.200 259.278 238.100 C 259.530 237.495,259.875 235.830,260.045 234.400 C 260.517 230.419,261.206 224.906,261.618 221.800 C 263.351 208.749,263.625 205.133,262.935 204.400 C 262.448 203.883,260.239 203.817,246.884 203.921 C 229.333 204.058,228.613 203.965,228.240 201.502 C 227.241 194.909,227.408 183.163,228.582 177.400 C 228.717 176.740,229.020 175.210,229.255 174.000 C 229.870 170.843,232.204 166.400,233.247 166.400 C 233.472 166.400,234.441 165.860,235.400 165.200 C 236.359 164.540,237.595 164.000,238.146 164.000 C 238.697 164.000,239.655 163.796,240.274 163.546 C 241.016 163.246,245.422 163.076,253.200 163.046 L 265.000 163.000 265.105 147.247 C 265.177 136.378,265.075 131.331,264.776 130.971 C 264.112 130.170,232.237 129.096,231.485 129.849 " stroke="none" fill="#fafafb" fill-rule="evenodd"></path><path id="path1" d="M170.000 48.800 C 170.000 49.033,168.667 49.200,166.800 49.200 C 164.933 49.200,163.600 49.367,163.600 49.600 C 163.600 49.822,162.533 50.000,161.200 50.000 C 159.867 50.000,158.800 50.178,158.800 50.400 C 158.800 50.620,157.900 50.800,156.800 50.800 C 155.700 50.800,154.800 50.980,154.800 51.200 C 154.800 51.420,154.080 51.600,153.200 51.600 C 152.320 51.600,151.600 51.780,151.600 52.000 C 151.600 52.220,150.880 52.400,150.000 52.400 C 149.120 52.400,148.400 52.580,148.400 52.800 C 148.400 53.020,147.860 53.200,147.200 53.200 C 146.540 53.200,146.000 53.380,146.000 53.600 C 146.000 53.820,145.280 54.000,144.400 54.000 C 143.520 54.000,142.800 54.180,142.800 54.400 C 142.800 54.620,142.260 54.800,141.600 54.800 C 140.940 54.800,140.400 54.980,140.400 55.200 C 140.400 55.420,139.860 55.600,139.200 55.600 C 138.540 55.600,138.000 55.780,138.000 56.000 C 138.000 56.220,137.460 56.400,136.800 56.400 C 136.140 56.400,135.600 56.580,135.600 56.800 C 135.600 57.020,135.240 57.200,134.800 57.200 C 134.360 57.200,134.000 57.380,134.000 57.600 C 134.000 57.820,133.460 58.000,132.800 58.000 C 132.140 58.000,131.600 58.180,131.600 58.400 C 131.600 58.620,131.240 58.800,130.800 58.800 C 130.360 58.800,130.000 58.980,130.000 59.200 C 130.000 59.420,129.640 59.600,129.200 59.600 C 128.760 59.600,128.400 59.780,128.400 60.000 C 128.400 60.220,128.040 60.400,127.600 60.400 C 127.160 60.400,126.800 60.580,126.800 60.800 C 126.800 61.020,126.260 61.200,125.600 61.200 C 124.940 61.200,124.400 61.380,124.400 61.600 C 124.400 61.820,124.040 62.000,123.600 62.000 C 123.160 62.000,122.800 62.180,122.800 62.400 C 122.800 62.620,122.440 62.800,122.000 62.800 C 121.560 62.800,121.200 62.980,121.200 63.200 C 121.200 63.420,120.840 63.600,120.400 63.600 C 119.960 63.600,119.600 63.780,119.600 64.000 C 119.600 64.220,119.280 64.400,118.888 64.400 C 118.497 64.400,117.917 64.760,117.600 65.200 C 117.283 65.640,116.703 66.000,116.312 66.000 C 115.920 66.000,115.600 66.180,115.600 66.400 C 115.600 66.620,115.240 66.800,114.800 66.800 C 114.360 66.800,114.000 66.980,114.000 67.200 C 114.000 67.420,113.680 67.600,113.288 67.600 C 112.897 67.600,112.317 67.960,112.000 68.400 C 111.683 68.840,111.143 69.200,110.800 69.200 C 110.457 69.200,109.917 69.560,109.600 70.000 C 109.283 70.440,108.743 70.800,108.400 70.800 C 108.057 70.800,107.517 71.160,107.200 71.600 C 106.883 72.040,106.343 72.400,106.000 72.400 C 105.657 72.400,105.117 72.760,104.800 73.200 C 104.483 73.640,103.975 74.000,103.672 74.000 C 103.369 74.000,102.617 74.540,102.000 75.200 C 101.383 75.860,100.667 76.400,100.408 76.400 C 100.149 76.400,99.246 77.120,98.400 78.000 C 97.554 78.880,96.660 79.600,96.412 79.600 C 96.164 79.600,94.719 80.860,93.200 82.400 C 91.681 83.940,90.248 85.200,90.014 85.200 C 89.458 85.200,82.000 92.661,82.000 93.217 C 82.000 93.452,80.920 94.704,79.600 96.000 C 78.280 97.296,77.200 98.560,77.200 98.809 C 77.200 99.059,76.480 99.954,75.600 100.800 C 74.720 101.646,74.000 102.549,74.000 102.808 C 74.000 103.067,73.460 103.783,72.800 104.400 C 72.140 105.017,71.600 105.769,71.600 106.072 C 71.600 106.375,71.240 106.883,70.800 107.200 C 70.360 107.517,70.000 108.025,70.000 108.328 C 70.000 108.631,69.460 109.383,68.800 110.000 C 68.140 110.617,67.600 111.409,67.600 111.760 C 67.600 112.112,67.420 112.400,67.200 112.400 C 66.980 112.400,66.800 112.720,66.800 113.112 C 66.800 113.503,66.440 114.083,66.000 114.400 C 65.560 114.717,65.200 115.297,65.200 115.688 C 65.200 116.080,65.020 116.400,64.800 116.400 C 64.580 116.400,64.400 116.720,64.400 117.112 C 64.400 117.503,64.040 118.083,63.600 118.400 C 63.160 118.717,62.800 119.297,62.800 119.688 C 62.800 120.080,62.620 120.400,62.400 120.400 C 62.180 120.400,62.000 120.760,62.000 121.200 C 62.000 121.640,61.820 122.000,61.600 122.000 C 61.380 122.000,61.200 122.360,61.200 122.800 C 61.200 123.240,61.020 123.600,60.800 123.600 C 60.580 123.600,60.400 123.960,60.400 124.400 C 60.400 124.840,60.220 125.200,60.000 125.200 C 59.780 125.200,59.600 125.560,59.600 126.000 C 59.600 126.440,59.420 126.800,59.200 126.800 C 58.980 126.800,58.800 127.160,58.800 127.600 C 58.800 128.040,58.620 128.400,58.400 128.400 C 58.180 128.400,58.000 128.760,58.000 129.200 C 58.000 129.640,57.820 130.000,57.600 130.000 C 57.380 130.000,57.200 130.360,57.200 130.800 C 57.200 131.240,57.020 131.600,56.800 131.600 C 56.580 131.600,56.400 132.140,56.400 132.800 C 56.400 133.460,56.220 134.000,56.000 134.000 C 55.780 134.000,55.600 134.360,55.600 134.800 C 55.600 135.240,55.420 135.600,55.200 135.600 C 54.980 135.600,54.800 136.140,54.800 136.800 C 54.800 137.460,54.620 138.000,54.400 138.000 C 54.180 138.000,54.000 138.360,54.000 138.800 C 54.000 139.240,53.820 139.600,53.600 139.600 C 53.380 139.600,53.200 140.140,53.200 140.800 C 53.200 141.460,53.020 142.000,52.800 142.000 C 52.580 142.000,52.400 142.540,52.400 143.200 C 52.400 143.860,52.220 144.400,52.000 144.400 C 51.780 144.400,51.600 144.940,51.600 145.600 C 51.600 146.260,51.420 146.800,51.200 146.800 C 50.980 146.800,50.800 147.340,50.800 148.000 C 50.800 148.660,50.620 149.200,50.400 149.200 C 50.180 149.200,50.000 149.920,50.000 150.800 C 50.000 151.680,49.820 152.400,49.600 152.400 C 49.380 152.400,49.200 153.120,49.200 154.000 C 49.200 154.880,49.020 155.600,48.800 155.600 C 48.580 155.600,48.400 156.320,48.400 157.200 C 48.400 158.080,48.220 158.800,48.000 158.800 C 47.780 158.800,47.600 159.700,47.600 160.800 C 47.600 161.900,47.420 162.800,47.200 162.800 C 46.978 162.800,46.800 163.867,46.800 165.200 C 46.800 166.533,46.622 167.600,46.400 167.600 C 46.167 167.600,46.000 168.933,46.000 170.800 C 46.000 172.667,45.833 174.000,45.600 174.000 C 45.340 174.000,45.200 179.467,45.200 189.600 C 45.200 199.733,45.340 205.200,45.600 205.200 C 45.833 205.200,46.000 206.533,46.000 208.400 C 46.000 210.267,46.167 211.600,46.400 211.600 C 46.622 211.600,46.800 212.667,46.800 214.000 C 46.800 215.333,46.978 216.400,47.200 216.400 C 47.420 216.400,47.600 217.300,47.600 218.400 C 47.600 219.500,47.780 220.400,48.000 220.400 C 48.220 220.400,48.400 221.120,48.400 222.000 C 48.400 222.880,48.580 223.600,48.800 223.600 C 49.020 223.600,49.200 224.320,49.200 225.200 C 49.200 226.080,49.380 226.800,49.600 226.800 C 49.820 226.800,50.000 227.520,50.000 228.400 C 50.000 229.280,50.180 230.000,50.400 230.000 C 50.620 230.000,50.800 230.540,50.800 231.200 C 50.800 231.860,50.980 232.400,51.200 232.400 C 51.420 232.400,51.600 232.940,51.600 233.600 C 51.600 234.260,51.780 234.800,52.000 234.800 C 52.220 234.800,52.400 235.340,52.400 236.000 C 52.400 236.660,52.580 237.200,52.800 237.200 C 53.020 237.200,53.200 237.740,53.200 238.400 C 53.200 239.060,53.380 239.600,53.600 239.600 C 53.820 239.600,54.000 240.140,54.000 240.800 C 54.000 241.460,54.180 242.000,54.400 242.000 C 54.620 242.000,54.800 242.360,54.800 242.800 C 54.800 243.240,54.980 243.600,55.200 243.600 C 55.420 243.600,55.600 244.140,55.600 244.800 C 55.600 245.460,55.780 246.000,56.000 246.000 C 56.220 246.000,56.400 246.360,56.400 246.800 C 56.400 247.240,56.580 247.600,56.800 247.600 C 57.020 247.600,57.200 247.960,57.200 248.400 C 57.200 248.840,57.380 249.200,57.600 249.200 C 57.820 249.200,58.000 249.560,58.000 250.000 C 58.000 250.440,58.180 250.800,58.400 250.800 C 58.620 250.800,58.800 251.160,58.800 251.600 C 58.800 252.040,58.980 252.400,59.200 252.400 C 59.420 252.400,59.600 252.760,59.600 253.200 C 59.600 253.640,59.780 254.000,60.000 254.000 C 60.220 254.000,60.400 254.360,60.400 254.800 C 60.400 255.240,60.580 255.600,60.800 255.600 C 61.020 255.600,61.200 255.960,61.200 256.400 C 61.200 256.840,61.380 257.200,61.600 257.200 C 61.820 257.200,62.000 257.560,62.000 258.000 C 62.000 258.440,62.180 258.800,62.400 258.800 C 62.620 258.800,62.800 259.120,62.800 259.512 C 62.800 259.903,63.160 260.483,63.600 260.800 C 64.040 261.117,64.400 261.697,64.400 262.088 C 64.400 262.480,64.580 262.800,64.800 262.800 C 65.020 262.800,65.200 263.120,65.200 263.512 C 65.200 263.903,65.560 264.483,66.000 264.800 C 66.440 265.117,66.800 265.697,66.800 266.088 C 66.800 266.480,66.980 266.800,67.200 266.800 C 67.420 266.800,67.600 267.340,67.600 268.000 C 67.600 268.660,67.780 269.200,68.000 269.200 C 68.220 269.200,68.400 269.483,68.400 269.829 C 68.400 270.561,69.338 271.600,70.000 271.600 C 70.595 271.600,71.600 272.612,71.600 273.211 C 71.600 273.468,72.140 274.183,72.800 274.800 C 73.460 275.417,74.000 276.209,74.000 276.560 C 74.000 276.912,74.180 277.200,74.400 277.200 C 74.620 277.200,74.800 277.560,74.800 278.000 C 74.800 278.440,74.980 278.800,75.200 278.800 C 75.420 278.800,75.600 279.078,75.600 279.418 C 75.600 280.120,77.342 282.000,77.992 282.000 C 78.542 282.000,82.000 285.445,82.000 285.993 C 82.000 286.552,92.675 297.200,93.236 297.200 C 93.480 297.200,94.183 297.740,94.800 298.400 C 95.417 299.060,96.133 299.600,96.392 299.600 C 96.651 299.600,97.554 300.320,98.400 301.200 C 99.246 302.080,100.149 302.800,100.408 302.800 C 100.667 302.800,101.383 303.340,102.000 304.000 C 102.617 304.660,103.369 305.200,103.672 305.200 C 103.975 305.200,104.483 305.560,104.800 306.000 C 105.117 306.440,105.657 306.800,106.000 306.800 C 106.343 306.800,106.883 307.160,107.200 307.600 C 107.517 308.040,108.057 308.400,108.400 308.400 C 108.743 308.400,109.283 308.760,109.600 309.200 C 109.917 309.640,110.457 310.000,110.800 310.000 C 111.143 310.000,111.683 310.360,112.000 310.800 C 112.317 311.240,112.897 311.600,113.288 311.600 C 113.680 311.600,114.000 311.780,114.000 312.000 C 114.000 312.220,114.360 312.400,114.800 312.400 C 115.240 312.400,115.600 312.580,115.600 312.800 C 115.600 313.020,115.920 313.200,116.312 313.200 C 116.703 313.200,117.283 313.560,117.600 314.000 C 117.917 314.440,118.497 314.800,118.888 314.800 C 119.280 314.800,119.600 314.980,119.600 315.200 C 119.600 315.420,119.960 315.600,120.400 315.600 C 120.840 315.600,121.200 315.780,121.200 316.000 C 121.200 316.220,121.560 316.400,122.000 316.400 C 122.440 316.400,122.800 316.580,122.800 316.800 C 122.800 317.020,123.160 317.200,123.600 317.200 C 124.040 317.200,124.400 317.380,124.400 317.600 C 124.400 317.820,124.760 318.000,125.200 318.000 C 125.640 318.000,126.000 318.180,126.000 318.400 C 126.000 318.620,126.360 318.800,126.800 318.800 C 127.240 318.800,127.600 318.980,127.600 319.200 C 127.600 319.420,127.960 319.600,128.400 319.600 C 128.840 319.600,129.200 319.780,129.200 320.000 C 129.200 320.220,129.560 320.400,130.000 320.400 C 130.440 320.400,130.800 320.580,130.800 320.800 C 130.800 321.020,131.160 321.200,131.600 321.200 C 132.040 321.200,132.400 321.380,132.400 321.600 C 132.400 321.820,132.940 322.000,133.600 322.000 C 134.260 322.000,134.800 322.180,134.800 322.400 C 134.800 322.620,135.160 322.800,135.600 322.800 C 136.040 322.800,136.400 322.980,136.400 323.200 C 136.400 323.420,136.940 323.600,137.600 323.600 C 138.260 323.600,138.800 323.780,138.800 324.000 C 138.800 324.220,139.160 324.400,139.600 324.400 C 140.040 324.400,140.400 324.580,140.400 324.800 C 140.400 325.020,141.300 325.200,142.400 325.200 C 143.500 325.200,144.400 325.380,144.400 325.600 C 144.400 325.820,145.300 326.000,146.400 326.000 C 147.500 326.000,148.400 326.180,148.400 326.400 C 148.400 326.620,149.120 326.800,150.000 326.800 C 150.880 326.800,151.600 326.980,151.600 327.200 C 151.600 327.420,152.320 327.600,153.200 327.600 C 154.080 327.600,154.800 327.780,154.800 328.000 C 154.800 328.220,155.700 328.400,156.800 328.400 C 157.900 328.400,158.800 328.580,158.800 328.800 C 158.800 329.022,159.867 329.200,161.200 329.200 C 162.533 329.200,163.600 329.378,163.600 329.600 C 163.600 329.833,164.933 330.000,166.800 330.000 C 168.667 330.000,170.000 330.167,170.000 330.400 C 170.000 330.651,172.533 330.800,176.800 330.800 C 181.067 330.800,183.600 330.949,183.600 331.200 C 183.600 331.440,185.217 331.600,187.650 331.600 L 191.700 331.600 191.450 330.350 C 191.313 329.663,191.200 308.875,191.200 284.155 L 191.200 239.209 175.700 239.105 L 160.200 239.000 160.096 221.300 L 159.992 203.600 173.496 203.513 C 180.923 203.465,187.900 203.403,189.000 203.375 L 191.000 203.325 191.273 185.962 C 191.423 176.413,191.735 167.340,191.966 165.800 C 192.197 164.260,192.498 162.234,192.635 161.297 C 192.772 160.361,193.045 159.495,193.242 159.374 C 193.439 159.252,193.600 158.820,193.600 158.414 C 193.600 157.776,194.092 156.598,195.650 153.505 C 195.843 153.123,196.000 152.572,196.000 152.281 C 196.000 151.989,196.315 151.397,196.700 150.963 C 197.085 150.530,197.751 149.551,198.180 148.788 C 199.432 146.560,203.606 141.600,204.229 141.600 C 204.543 141.600,204.800 141.326,204.800 140.990 C 204.800 140.655,205.205 140.224,205.700 140.033 C 206.195 139.841,207.036 139.216,207.570 138.642 C 208.103 138.069,208.756 137.600,209.021 137.600 C 209.285 137.600,209.718 137.340,209.981 137.023 C 210.600 136.277,217.598 132.800,218.479 132.800 C 218.850 132.800,219.264 132.620,219.400 132.400 C 219.536 132.180,220.076 132.000,220.600 132.000 C 221.124 132.000,221.652 131.839,221.774 131.642 C 221.895 131.445,222.761 131.171,223.697 131.033 C 224.634 130.895,226.750 130.577,228.400 130.326 C 234.482 129.400,263.912 129.930,264.784 130.981 C 265.073 131.329,265.176 136.554,265.105 147.247 L 265.000 163.000 253.200 163.046 C 245.422 163.076,241.016 163.246,240.274 163.546 C 239.655 163.796,238.697 164.000,238.146 164.000 C 237.595 164.000,236.359 164.540,235.400 165.200 C 234.441 165.860,233.472 166.400,233.247 166.400 C 232.204 166.400,229.870 170.843,229.255 174.000 C 229.020 175.210,228.717 176.740,228.582 177.400 C 227.408 183.163,227.241 194.909,228.240 201.502 C 228.613 203.965,229.333 204.058,246.884 203.921 C 260.239 203.817,262.448 203.883,262.935 204.400 C 263.625 205.133,263.351 208.749,261.618 221.800 C 261.206 224.906,260.517 230.419,260.045 234.400 C 259.875 235.830,259.530 237.495,259.278 238.100 L 258.820 239.200 243.810 239.200 L 228.800 239.200 228.800 280.524 C 228.800 316.239,228.720 321.952,228.213 322.624 C 227.216 323.941,227.471 324.400,229.200 324.400 C 230.080 324.400,230.800 324.220,230.800 324.000 C 230.800 323.780,231.160 323.600,231.600 323.600 C 232.040 323.600,232.400 323.420,232.400 323.200 C 232.400 322.980,232.940 322.800,233.600 322.800 C 234.260 322.800,234.800 322.620,234.800 322.400 C 234.800 322.180,235.340 322.000,236.000 322.000 C 236.660 322.000,237.200 321.820,237.200 321.600 C 237.200 321.380,237.560 321.200,238.000 321.200 C 238.440 321.200,238.800 321.020,238.800 320.800 C 238.800 320.580,239.340 320.400,240.000 320.400 C 240.660 320.400,241.200 320.220,241.200 320.000 C 241.200 319.780,241.560 319.600,242.000 319.600 C 242.440 319.600,242.800 319.420,242.800 319.200 C 242.800 318.980,243.340 318.800,244.000 318.800 C 244.660 318.800,245.200 318.620,245.200 318.400 C 245.200 318.180,245.560 318.000,246.000 318.000 C 246.440 318.000,246.800 317.820,246.800 317.600 C 246.800 317.380,247.160 317.200,247.600 317.200 C 248.040 317.200,248.400 317.020,248.400 316.800 C 248.400 316.580,248.760 316.400,249.200 316.400 C 249.640 316.400,250.000 316.220,250.000 316.000 C 250.000 315.780,250.360 315.600,250.800 315.600 C 251.240 315.600,251.600 315.420,251.600 315.200 C 251.600 314.980,251.920 314.800,252.312 314.800 C 252.703 314.800,253.283 314.440,253.600 314.000 C 253.917 313.560,254.457 313.200,254.800 313.200 C 255.143 313.200,255.683 312.840,256.000 312.400 C 256.317 311.960,256.897 311.600,257.288 311.600 C 257.680 311.600,258.000 311.420,258.000 311.200 C 258.000 310.980,258.360 310.800,258.800 310.800 C 259.240 310.800,259.600 310.620,259.600 310.400 C 259.600 310.180,259.920 310.000,260.312 310.000 C 260.703 310.000,261.283 309.640,261.600 309.200 C 261.917 308.760,262.421 308.400,262.720 308.400 C 263.018 308.400,263.954 307.680,264.800 306.800 C 265.646 305.920,266.549 305.200,266.808 305.200 C 267.067 305.200,267.783 304.660,268.400 304.000 C 269.017 303.340,269.733 302.800,269.992 302.800 C 270.251 302.800,271.154 302.080,272.000 301.200 C 272.846 300.320,273.743 299.600,273.995 299.600 C 274.246 299.600,275.329 298.700,276.400 297.600 C 277.471 296.500,278.630 295.600,278.974 295.600 C 279.318 295.600,279.600 295.420,279.600 295.200 C 279.600 294.980,279.871 294.800,280.203 294.800 C 280.880 294.800,294.800 281.046,294.800 280.377 C 294.800 280.141,295.700 279.071,296.800 278.000 C 297.900 276.929,298.800 275.770,298.800 275.426 C 298.800 275.082,298.980 274.800,299.200 274.800 C 299.420 274.800,299.600 274.440,299.600 274.000 C 299.600 273.560,299.780 273.200,300.000 273.200 C 300.220 273.200,300.400 272.660,300.400 272.000 C 300.400 271.340,300.580 270.800,300.800 270.800 C 301.020 270.800,301.200 270.480,301.200 270.088 C 301.200 269.697,301.560 269.117,302.000 268.800 C 302.440 268.483,302.800 267.943,302.800 267.600 C 302.800 267.257,303.160 266.717,303.600 266.400 C 304.040 266.083,304.400 265.503,304.400 265.112 C 304.400 264.720,304.580 264.400,304.800 264.400 C 305.020 264.400,305.200 264.080,305.200 263.688 C 305.200 263.297,305.560 262.717,306.000 262.400 C 306.440 262.083,306.800 261.503,306.800 261.112 C 306.800 260.720,306.980 260.400,307.200 260.400 C 307.420 260.400,307.600 260.040,307.600 259.600 C 307.600 259.160,307.780 258.800,308.000 258.800 C 308.220 258.800,308.400 258.440,308.400 258.000 C 308.400 257.560,308.580 257.200,308.800 257.200 C 309.020 257.200,309.200 256.840,309.200 256.400 C 309.200 255.960,309.380 255.600,309.600 255.600 C 309.820 255.600,310.000 255.240,310.000 254.800 C 310.000 254.360,310.180 254.000,310.400 254.000 C 310.620 254.000,310.800 253.640,310.800 253.200 C 310.800 252.760,310.980 252.400,311.200 252.400 C 311.420 252.400,311.600 252.040,311.600 251.600 C 311.600 251.160,311.780 250.800,312.000 250.800 C 312.220 250.800,312.400 250.440,312.400 250.000 C 312.400 249.560,312.580 249.200,312.800 249.200 C 313.020 249.200,313.200 248.840,313.200 248.400 C 313.200 247.960,313.380 247.600,313.600 247.600 C 313.820 247.600,314.000 247.240,314.000 246.800 C 314.000 246.360,314.180 246.000,314.400 246.000 C 314.620 246.000,314.800 245.460,314.800 244.800 C 314.800 244.140,314.980 243.600,315.200 243.600 C 315.420 243.600,315.600 243.240,315.600 242.800 C 315.600 242.360,315.780 242.000,316.000 242.000 C 316.220 242.000,316.400 241.460,316.400 240.800 C 316.400 240.140,316.580 239.600,316.800 239.600 C 317.020 239.600,317.200 239.060,317.200 238.400 C 317.200 237.740,317.380 237.200,317.600 237.200 C 317.820 237.200,318.000 236.660,318.000 236.000 C 318.000 235.340,318.180 234.800,318.400 234.800 C 318.620 234.800,318.800 234.260,318.800 233.600 C 318.800 232.940,318.980 232.400,319.200 232.400 C 319.420 232.400,319.600 231.860,319.600 231.200 C 319.600 230.540,319.780 230.000,320.000 230.000 C 320.220 230.000,320.400 229.280,320.400 228.400 C 320.400 227.520,320.580 226.800,320.800 226.800 C 321.020 226.800,321.200 226.080,321.200 225.200 C 321.200 224.320,321.380 223.600,321.600 223.600 C 321.820 223.600,322.000 222.880,322.000 222.000 C 322.000 221.120,322.180 220.400,322.400 220.400 C 322.620 220.400,322.800 219.500,322.800 218.400 C 322.800 217.300,322.980 216.400,323.200 216.400 C 323.422 216.400,323.600 215.333,323.600 214.000 C 323.600 212.667,323.778 211.600,324.000 211.600 C 324.233 211.600,324.400 210.267,324.400 208.400 C 324.400 206.533,324.567 205.200,324.800 205.200 C 325.060 205.200,325.200 199.733,325.200 189.600 C 325.200 179.467,325.060 174.000,324.800 174.000 C 324.567 174.000,324.400 172.667,324.400 170.800 C 324.400 168.933,324.233 167.600,324.000 167.600 C 323.778 167.600,323.600 166.533,323.600 165.200 C 323.600 163.867,323.422 162.800,323.200 162.800 C 322.980 162.800,322.800 161.900,322.800 160.800 C 322.800 159.700,322.620 158.800,322.400 158.800 C 322.180 158.800,322.000 158.080,322.000 157.200 C 322.000 156.320,321.820 155.600,321.600 155.600 C 321.380 155.600,321.200 154.880,321.200 154.000 C 321.200 153.120,321.020 152.400,320.800 152.400 C 320.580 152.400,320.400 151.680,320.400 150.800 C 320.400 149.920,320.220 149.200,320.000 149.200 C 319.780 149.200,319.600 148.660,319.600 148.000 C 319.600 147.340,319.420 146.800,319.200 146.800 C 318.980 146.800,318.800 146.260,318.800 145.600 C 318.800 144.940,318.620 144.400,318.400 144.400 C 318.180 144.400,318.000 143.860,318.000 143.200 C 318.000 142.540,317.820 142.000,317.600 142.000 C 317.380 142.000,317.200 141.460,317.200 140.800 C 317.200 140.140,317.020 139.600,316.800 139.600 C 316.580 139.600,316.400 139.060,316.400 138.400 C 316.400 137.740,316.220 137.200,316.000 137.200 C 315.780 137.200,315.600 136.840,315.600 136.400 C 315.600 135.960,315.420 135.600,315.200 135.600 C 314.980 135.600,314.800 135.060,314.800 134.400 C 314.800 133.740,314.620 133.200,314.400 133.200 C 314.180 133.200,314.000 132.840,314.000 132.400 C 314.000 131.960,313.820 131.600,313.600 131.600 C 313.380 131.600,313.200 131.240,313.200 130.800 C 313.200 130.360,313.020 130.000,312.800 130.000 C 312.580 130.000,312.400 129.640,312.400 129.200 C 312.400 128.760,312.220 128.400,312.000 128.400 C 311.780 128.400,311.600 128.040,311.600 127.600 C 311.600 127.160,311.420 126.800,311.200 126.800 C 310.980 126.800,310.800 126.440,310.800 126.000 C 310.800 125.560,310.620 125.200,310.400 125.200 C 310.180 125.200,310.000 124.840,310.000 124.400 C 310.000 123.960,309.820 123.600,309.600 123.600 C 309.380 123.600,309.200 123.240,309.200 122.800 C 309.200 122.360,309.020 122.000,308.800 122.000 C 308.580 122.000,308.400 121.640,308.400 121.200 C 308.400 120.760,308.220 120.400,308.000 120.400 C 307.780 120.400,307.600 120.080,307.600 119.688 C 307.600 119.297,307.240 118.717,306.800 118.400 C 306.360 118.083,306.000 117.503,306.000 117.112 C 306.000 116.720,305.820 116.400,305.600 116.400 C 305.380 116.400,305.200 116.080,305.200 115.688 C 305.200 115.297,304.840 114.717,304.400 114.400 C 303.960 114.083,303.600 113.503,303.600 113.112 C 303.600 112.720,303.420 112.400,303.200 112.400 C 302.980 112.400,302.800 112.080,302.800 111.688 C 302.800 111.297,302.440 110.717,302.000 110.400 C 301.560 110.083,301.200 109.575,301.200 109.272 C 301.200 108.969,300.660 108.217,300.000 107.600 C 299.340 106.983,298.800 106.263,298.800 106.000 C 298.800 105.737,298.260 105.017,297.600 104.400 C 296.940 103.783,296.400 103.067,296.400 102.808 C 296.400 102.549,295.680 101.646,294.800 100.800 C 293.920 99.954,293.200 99.059,293.200 98.809 C 293.200 98.560,292.120 97.296,290.800 96.000 C 289.480 94.704,288.400 93.452,288.400 93.217 C 288.400 92.661,280.942 85.200,280.386 85.200 C 280.152 85.200,278.719 83.940,277.200 82.400 C 275.681 80.860,274.236 79.600,273.988 79.600 C 273.740 79.600,272.846 78.880,272.000 78.000 C 271.154 77.120,270.251 76.400,269.992 76.400 C 269.733 76.400,269.017 75.860,268.400 75.200 C 267.783 74.540,267.031 74.000,266.728 74.000 C 266.425 74.000,265.917 73.640,265.600 73.200 C 265.283 72.760,264.743 72.400,264.400 72.400 C 264.057 72.400,263.517 72.040,263.200 71.600 C 262.883 71.160,262.343 70.800,262.000 70.800 C 261.657 70.800,261.117 70.440,260.800 70.000 C 260.483 69.560,259.943 69.200,259.600 69.200 C 259.257 69.200,258.717 68.840,258.400 68.400 C 258.083 67.960,257.503 67.600,257.112 67.600 C 256.720 67.600,256.400 67.420,256.400 67.200 C 256.400 66.980,256.040 66.800,255.600 66.800 C 255.160 66.800,254.800 66.620,254.800 66.400 C 254.800 66.180,254.480 66.000,254.088 66.000 C 253.697 66.000,253.117 65.640,252.800 65.200 C 252.483 64.760,251.903 64.400,251.512 64.400 C 251.120 64.400,250.800 64.220,250.800 64.000 C 250.800 63.780,250.440 63.600,250.000 63.600 C 249.560 63.600,249.200 63.420,249.200 63.200 C 249.200 62.980,248.840 62.800,248.400 62.800 C 247.960 62.800,247.600 62.620,247.600 62.400 C 247.600 62.180,247.240 62.000,246.800 62.000 C 246.360 62.000,246.000 61.820,246.000 61.600 C 246.000 61.380,245.460 61.200,244.800 61.200 C 244.140 61.200,243.600 61.020,243.600 60.800 C 243.600 60.580,243.240 60.400,242.800 60.400 C 242.360 60.400,242.000 60.220,242.000 60.000 C 242.000 59.780,241.640 59.600,241.200 59.600 C 240.760 59.600,240.400 59.420,240.400 59.200 C 240.400 58.980,240.040 58.800,239.600 58.800 C 239.160 58.800,238.800 58.620,238.800 58.400 C 238.800 58.180,238.260 58.000,237.600 58.000 C 236.940 58.000,236.400 57.820,236.400 57.600 C 236.400 57.380,236.040 57.200,235.600 57.200 C 235.160 57.200,234.800 57.020,234.800 56.800 C 234.800 56.580,234.260 56.400,233.600 56.400 C 232.940 56.400,232.400 56.220,232.400 56.000 C 232.400 55.780,231.860 55.600,231.200 55.600 C 230.540 55.600,230.000 55.420,230.000 55.200 C 230.000 54.980,229.460 54.800,228.800 54.800 C 228.140 54.800,227.600 54.620,227.600 54.400 C 227.600 54.180,226.880 54.000,226.000 54.000 C 225.120 54.000,224.400 53.820,224.400 53.600 C 224.400 53.380,223.860 53.200,223.200 53.200 C 222.540 53.200,222.000 53.020,222.000 52.800 C 222.000 52.580,221.280 52.400,220.400 52.400 C 219.520 52.400,218.800 52.220,218.800 52.000 C 218.800 51.780,218.080 51.600,217.200 51.600 C 216.320 51.600,215.600 51.420,215.600 51.200 C 215.600 50.980,214.700 50.800,213.600 50.800 C 212.500 50.800,211.600 50.620,211.600 50.400 C 211.600 50.178,210.533 50.000,209.200 50.000 C 207.867 50.000,206.800 49.822,206.800 49.600 C 206.800 49.367,205.467 49.200,203.600 49.200 C 201.733 49.200,200.400 49.033,200.400 48.800 C 200.400 48.540,195.067 48.400,185.200 48.400 C 175.333 48.400,170.000 48.540,170.000 48.800 M250.192 330.414 C 249.719 331.178,250.611 331.661,252.247 331.527 C 253.304 331.441,253.800 331.208,253.800 330.800 C 253.800 330.060,250.621 329.719,250.192 330.414 " stroke="none" fill="#040404" fill-rule="evenodd"></path></g></svg>