<svg id="svg" version="1.1" xmlns="http://www.w3.org/2000/svg" xmlns:xlink="http://www.w3.org/1999/xlink" width="400" height="400" viewBox="0, 0, 400,400"><g id="svgg"><path id="path0" d="M235.000 130.002 C 215.436 131.617,202.948 139.071,196.135 153.200 C 192.395 160.958,191.710 167.146,191.617 194.000 C 191.602 198.510,191.481 202.605,191.348 203.100 L 191.107 204.000 175.753 204.000 L 160.400 204.000 160.400 221.395 L 160.400 238.790 175.700 238.895 L 191.000 239.000 191.244 250.800 C 191.378 257.290,191.513 277.695,191.544 296.145 L 191.600 329.689 193.021 329.422 C 195.066 329.039,200.000 329.587,200.000 330.197 C 200.000 331.179,207.635 331.314,208.235 330.343 C 208.352 330.154,208.919 330.000,209.495 330.000 C 210.072 330.000,211.096 329.832,211.772 329.627 C 212.447 329.422,213.765 329.062,214.700 328.827 C 220.982 327.249,221.278 327.132,219.800 326.824 C 218.978 326.652,218.459 326.758,218.152 327.159 C 217.798 327.623,217.421 327.661,216.352 327.342 L 215.000 326.938 216.400 326.646 C 217.170 326.485,218.160 326.204,218.600 326.022 C 219.040 325.840,220.210 325.470,221.200 325.199 C 224.003 324.432,227.127 323.170,227.582 322.621 C 227.860 322.286,228.030 308.461,228.098 280.561 L 228.200 239.000 243.494 238.895 L 258.787 238.791 258.997 237.895 C 259.112 237.403,259.466 235.020,259.783 232.600 C 260.099 230.180,260.632 226.130,260.967 223.600 C 262.756 210.091,263.221 205.060,262.709 204.735 C 261.949 204.253,260.695 204.217,244.600 204.208 C 233.528 204.202,229.581 204.074,228.929 203.701 C 227.696 202.996,227.403 200.324,227.406 189.800 C 227.411 165.797,231.049 162.168,254.800 162.474 L 264.600 162.600 264.705 147.225 C 264.762 138.768,264.672 131.713,264.505 131.545 C 263.556 130.597,241.667 129.452,235.000 130.002 M224.400 325.600 C 224.400 326.106,225.217 326.106,226.000 325.600 C 226.468 325.298,226.357 325.211,225.500 325.206 C 224.895 325.203,224.400 325.380,224.400 325.600 M221.600 326.400 C 221.600 326.620,221.949 326.800,222.376 326.800 C 222.803 326.800,223.264 326.620,223.400 326.400 C 223.540 326.173,223.204 326.000,222.624 326.000 C 222.061 326.000,221.600 326.180,221.600 326.400 M214.400 327.800 C 214.400 328.469,214.230 328.504,212.821 328.127 C 211.915 327.885,211.900 327.843,212.621 327.561 C 213.853 327.079,214.400 327.153,214.400 327.800 " stroke="none" fill="#fafafb" fill-rule="evenodd"></path><path id="path1" d="M170.000 48.800 C 170.000 49.031,168.741 49.200,167.024 49.200 C 165.387 49.200,163.936 49.380,163.800 49.600 C 163.664 49.820,162.584 50.000,161.400 50.000 C 160.216 50.000,159.136 50.180,159.000 50.400 C 158.864 50.620,157.964 50.800,157.000 50.800 C 156.036 50.800,155.136 50.980,155.000 51.200 C 154.864 51.420,154.043 51.600,153.176 51.600 C 152.309 51.600,151.600 51.780,151.600 52.000 C 151.600 52.220,150.981 52.400,150.224 52.400 C 149.467 52.400,148.736 52.580,148.600 52.800 C 148.464 53.020,147.823 53.200,147.176 53.200 C 146.529 53.200,146.000 53.380,146.000 53.600 C 146.000 53.820,145.381 54.000,144.624 54.000 C 143.867 54.000,143.136 54.180,143.000 54.400 C 142.864 54.620,142.223 54.800,141.576 54.800 C 140.929 54.800,140.400 54.980,140.400 55.200 C 140.400 55.420,140.038 55.600,139.595 55.600 C 139.152 55.600,138.432 55.780,137.995 56.000 C 137.558 56.220,136.842 56.580,136.405 56.800 C 135.968 57.020,135.248 57.200,134.805 57.200 C 134.362 57.200,134.000 57.380,134.000 57.600 C 134.000 57.820,133.561 58.000,133.024 58.000 C 132.487 58.000,131.936 58.180,131.800 58.400 C 131.664 58.620,131.203 58.800,130.776 58.800 C 130.349 58.800,130.000 58.980,130.000 59.200 C 130.000 59.420,129.640 59.600,129.200 59.600 C 128.760 59.600,128.400 59.780,128.400 60.000 C 128.400 60.220,128.040 60.400,127.600 60.400 C 127.160 60.400,126.800 60.580,126.800 60.800 C 126.800 61.020,126.465 61.200,126.055 61.200 C 125.646 61.200,123.891 61.944,122.155 62.854 C 120.420 63.764,118.596 64.709,118.103 64.954 C 117.610 65.199,117.205 65.535,117.203 65.700 C 117.201 65.865,116.840 66.000,116.400 66.000 C 115.960 66.000,115.600 66.180,115.600 66.400 C 115.600 66.620,115.322 66.800,114.983 66.800 C 114.644 66.800,113.980 67.160,113.508 67.600 C 113.036 68.040,112.413 68.400,112.125 68.400 C 111.836 68.400,111.600 68.580,111.600 68.800 C 111.600 69.020,111.364 69.200,111.075 69.200 C 110.787 69.200,110.164 69.560,109.692 70.000 C 109.220 70.440,108.596 70.800,108.305 70.800 C 108.014 70.800,107.517 71.160,107.200 71.600 C 106.883 72.040,106.438 72.400,106.212 72.401 C 105.985 72.401,105.170 72.941,104.400 73.600 C 103.630 74.259,102.863 74.799,102.696 74.799 C 102.529 74.800,101.828 75.340,101.137 76.000 C 100.446 76.660,99.728 77.200,99.541 77.200 C 99.354 77.200,98.459 77.920,97.552 78.800 C 96.645 79.680,95.748 80.400,95.557 80.400 C 94.602 80.400,77.200 97.905,77.200 98.865 C 77.200 99.049,76.480 99.941,75.600 100.848 C 74.720 101.755,74.000 102.656,74.000 102.852 C 74.000 103.047,73.460 103.772,72.800 104.463 C 72.140 105.154,71.600 105.922,71.600 106.171 C 71.600 106.420,71.240 106.883,70.800 107.200 C 70.360 107.517,70.000 108.031,70.000 108.341 C 70.000 108.652,69.684 109.197,69.297 109.553 C 68.911 109.909,68.340 110.695,68.030 111.300 C 67.719 111.905,67.315 112.400,67.132 112.400 C 66.950 112.400,66.800 112.678,66.800 113.017 C 66.800 113.356,66.440 114.020,66.000 114.492 C 65.560 114.964,65.200 115.587,65.200 115.875 C 65.200 116.164,65.020 116.400,64.800 116.400 C 64.580 116.400,64.400 116.678,64.400 117.017 C 64.400 117.356,64.040 118.020,63.600 118.492 C 63.160 118.964,62.800 119.587,62.800 119.875 C 62.800 120.164,62.620 120.400,62.400 120.400 C 62.180 120.400,62.000 120.760,62.000 121.200 C 62.000 121.640,61.820 122.000,61.600 122.000 C 61.380 122.000,61.200 122.360,61.200 122.800 C 61.200 123.240,61.020 123.600,60.800 123.600 C 60.580 123.600,60.400 123.960,60.400 124.400 C 60.400 124.840,60.220 125.200,60.000 125.200 C 59.780 125.200,59.600 125.560,59.600 126.000 C 59.600 126.440,59.420 126.800,59.200 126.800 C 58.980 126.800,58.800 127.160,58.800 127.600 C 58.800 128.040,58.620 128.400,58.400 128.400 C 58.180 128.400,58.000 128.760,58.000 129.200 C 58.000 129.640,57.820 130.000,57.600 130.000 C 57.380 130.000,57.200 130.349,57.200 130.776 C 57.200 131.203,57.020 131.664,56.800 131.800 C 56.580 131.936,56.400 132.487,56.400 133.024 C 56.400 133.561,56.220 134.000,56.000 134.000 C 55.780 134.000,55.600 134.360,55.600 134.800 C 55.600 135.240,55.420 135.600,55.200 135.600 C 54.980 135.600,54.800 136.140,54.800 136.800 C 54.800 137.460,54.620 138.000,54.400 138.000 C 54.180 138.000,54.000 138.349,54.000 138.776 C 54.000 139.203,53.820 139.664,53.600 139.800 C 53.380 139.936,53.200 140.487,53.200 141.024 C 53.200 141.561,53.020 142.000,52.800 142.000 C 52.580 142.000,52.400 142.540,52.400 143.200 C 52.400 143.860,52.220 144.400,52.000 144.400 C 51.780 144.400,51.600 144.940,51.600 145.600 C 51.600 146.260,51.420 146.800,51.200 146.800 C 50.980 146.800,50.800 147.329,50.800 147.976 C 50.800 148.623,50.620 149.264,50.400 149.400 C 50.180 149.536,50.000 150.267,50.000 151.024 C 50.000 151.781,49.820 152.400,49.600 152.400 C 49.380 152.400,49.200 153.120,49.200 154.000 C 49.200 154.880,49.020 155.600,48.800 155.600 C 48.580 155.600,48.400 156.309,48.400 157.176 C 48.400 158.043,48.220 158.864,48.000 159.000 C 47.780 159.136,47.600 160.036,47.600 161.000 C 47.600 161.964,47.420 162.864,47.200 163.000 C 46.980 163.136,46.800 164.216,46.800 165.400 C 46.800 166.584,46.620 167.664,46.400 167.800 C 46.180 167.936,46.000 169.376,46.000 171.000 C 46.000 172.624,45.820 174.064,45.600 174.200 C 45.053 174.538,45.053 204.662,45.600 205.000 C 45.820 205.136,46.000 206.576,46.000 208.200 C 46.000 209.824,46.180 211.264,46.400 211.400 C 46.620 211.536,46.800 212.616,46.800 213.800 C 46.800 214.984,46.980 216.064,47.200 216.200 C 47.420 216.336,47.600 217.236,47.600 218.200 C 47.600 219.164,47.780 220.064,48.000 220.200 C 48.220 220.336,48.400 221.157,48.400 222.024 C 48.400 222.891,48.580 223.600,48.800 223.600 C 49.020 223.600,49.200 224.320,49.200 225.200 C 49.200 226.080,49.380 226.800,49.600 226.800 C 49.820 226.800,50.000 227.419,50.000 228.176 C 50.000 228.933,50.180 229.664,50.400 229.800 C 50.620 229.936,50.800 230.577,50.800 231.224 C 50.800 231.871,50.980 232.400,51.200 232.400 C 51.420 232.400,51.600 232.940,51.600 233.600 C 51.600 234.260,51.780 234.800,52.000 234.800 C 52.220 234.800,52.400 235.340,52.400 236.000 C 52.400 236.660,52.580 237.200,52.800 237.200 C 53.020 237.200,53.200 237.740,53.200 238.400 C 53.200 239.060,53.380 239.600,53.600 239.600 C 53.820 239.600,54.000 239.949,54.000 240.376 C 54.000 240.803,54.180 241.264,54.400 241.400 C 54.620 241.536,54.800 242.087,54.800 242.624 C 54.800 243.161,54.980 243.600,55.200 243.600 C 55.420 243.600,55.600 243.872,55.600 244.205 C 55.600 244.538,55.780 245.168,56.000 245.605 C 56.220 246.042,56.580 246.758,56.800 247.195 C 57.020 247.632,57.200 248.262,57.200 248.595 C 57.200 248.928,57.380 249.200,57.600 249.200 C 57.820 249.200,58.000 249.560,58.000 250.000 C 58.000 250.440,58.180 250.800,58.400 250.800 C 58.620 250.800,58.800 251.160,58.800 251.600 C 58.800 252.040,58.980 252.400,59.200 252.400 C 59.420 252.400,59.600 252.760,59.600 253.200 C 59.600 253.640,59.780 254.000,60.000 254.000 C 60.220 254.000,60.400 254.360,60.400 254.800 C 60.400 255.240,60.580 255.600,60.800 255.600 C 61.020 255.600,61.200 255.960,61.200 256.400 C 61.200 256.840,61.380 257.200,61.600 257.200 C 61.820 257.200,62.000 257.560,62.000 258.000 C 62.000 258.440,62.180 258.800,62.400 258.800 C 62.620 258.800,62.800 259.120,62.800 259.512 C 62.800 259.903,63.160 260.483,63.600 260.800 C 64.040 261.117,64.400 261.697,64.400 262.088 C 64.400 262.480,64.580 262.800,64.800 262.800 C 65.020 262.800,65.200 263.120,65.200 263.512 C 65.200 263.903,65.560 264.483,66.000 264.800 C 66.440 265.117,66.800 265.697,66.800 266.088 C 66.800 266.480,66.980 266.800,67.200 266.800 C 67.420 266.800,67.600 267.277,67.600 267.860 C 67.600 268.609,68.186 269.481,69.600 270.837 C 70.700 271.892,71.600 272.918,71.600 273.118 C 71.600 273.318,72.095 274.016,72.700 274.670 C 73.765 275.821,74.403 276.771,75.435 278.742 C 75.707 279.260,77.252 280.970,78.869 282.542 C 80.486 284.114,82.617 286.385,83.605 287.590 C 85.423 289.808,89.787 294.095,91.315 295.165 C 91.773 295.487,93.033 296.616,94.115 297.675 C 95.196 298.734,96.243 299.600,96.440 299.600 C 96.638 299.600,97.541 300.320,98.448 301.200 C 99.355 302.080,100.256 302.800,100.452 302.800 C 100.647 302.800,101.372 303.340,102.063 304.000 C 102.754 304.660,103.522 305.200,103.771 305.200 C 104.020 305.200,104.483 305.560,104.800 306.000 C 105.117 306.440,105.657 306.800,106.000 306.800 C 106.343 306.800,106.883 307.160,107.200 307.600 C 107.517 308.040,108.057 308.400,108.400 308.400 C 108.743 308.400,109.283 308.760,109.600 309.200 C 109.917 309.640,110.497 310.000,110.888 310.000 C 111.280 310.000,111.600 310.180,111.600 310.400 C 111.600 310.620,111.836 310.800,112.125 310.800 C 112.413 310.800,113.036 311.160,113.508 311.600 C 113.980 312.040,114.644 312.400,114.983 312.400 C 115.322 312.400,115.600 312.580,115.600 312.800 C 115.600 313.020,115.878 313.200,116.217 313.200 C 116.556 313.200,117.220 313.560,117.692 314.000 C 118.164 314.440,118.787 314.800,119.075 314.800 C 119.364 314.800,119.600 314.980,119.600 315.200 C 119.600 315.420,119.960 315.600,120.400 315.600 C 120.840 315.600,121.200 315.780,121.200 316.000 C 121.200 316.220,121.560 316.400,122.000 316.400 C 122.440 316.400,122.800 316.580,122.800 316.800 C 122.800 317.020,123.065 317.200,123.388 317.200 C 123.711 317.200,124.617 317.560,125.400 318.000 C 126.183 318.440,127.164 318.800,127.579 318.800 C 127.994 318.800,128.393 318.935,128.467 319.100 C 128.595 319.388,131.620 320.921,133.500 321.651 C 133.995 321.843,134.805 322.156,135.300 322.346 C 137.889 323.343,140.388 324.385,141.295 324.847 C 141.677 325.041,142.701 325.200,143.571 325.200 C 144.441 325.200,145.264 325.380,145.400 325.600 C 145.536 325.820,146.267 326.000,147.024 326.000 C 147.781 326.000,148.400 326.180,148.400 326.400 C 148.400 326.620,149.120 326.800,150.000 326.800 C 150.880 326.800,151.600 326.980,151.600 327.200 C 151.600 327.420,152.320 327.600,153.200 327.600 C 154.080 327.600,154.800 327.780,154.800 328.000 C 154.800 328.220,155.700 328.400,156.800 328.400 C 157.900 328.400,158.800 328.580,158.800 328.800 C 158.800 329.022,159.867 329.200,161.200 329.200 C 162.533 329.200,163.600 329.378,163.600 329.600 C 163.600 329.833,164.933 330.000,166.800 330.000 C 168.667 330.000,170.000 330.167,170.000 330.400 C 170.000 330.651,172.592 330.800,176.976 330.800 C 181.196 330.800,184.050 330.958,184.200 331.200 C 184.336 331.420,186.067 331.600,188.047 331.600 C 190.833 331.600,191.574 331.487,191.324 331.100 C 191.146 330.825,190.910 310.260,190.800 285.400 L 190.600 240.200 175.435 240.095 C 165.054 240.023,160.101 239.850,159.735 239.546 C 158.994 238.931,158.941 204.019,159.680 203.280 C 160.037 202.923,164.098 202.800,175.480 202.800 L 190.800 202.800 190.809 200.700 C 190.815 199.545,190.812 192.120,190.803 184.200 C 190.781 164.272,192.194 156.018,196.639 150.127 C 197.168 149.426,197.600 148.678,197.600 148.463 C 197.600 147.996,201.890 142.808,203.712 141.070 C 207.425 137.531,214.382 133.216,217.705 132.392 C 218.417 132.216,220.080 131.669,221.400 131.177 C 222.720 130.685,225.420 130.132,227.400 129.950 C 229.380 129.767,232.170 129.487,233.600 129.327 C 237.044 128.942,247.199 128.957,252.200 129.354 C 254.400 129.529,258.180 129.763,260.600 129.873 C 266.580 130.145,266.000 128.303,266.000 147.035 C 266.000 165.146,266.129 164.413,263.047 163.835 C 260.179 163.297,243.844 163.560,240.600 164.196 C 234.303 165.432,230.000 169.160,230.000 173.380 C 230.000 174.272,229.637 176.262,229.194 177.801 C 227.861 182.427,227.727 198.784,228.995 202.050 C 229.505 203.363,233.415 203.753,242.135 203.362 C 253.142 202.869,259.405 202.928,261.889 203.551 L 263.977 204.074 263.752 208.537 C 263.628 210.992,263.278 214.530,262.973 216.400 C 262.138 221.516,261.588 225.426,261.172 229.200 C 260.966 231.070,260.642 233.992,260.452 235.694 C 259.927 240.411,261.380 240.035,244.143 239.909 L 229.200 239.800 229.149 281.200 C 229.121 303.970,229.055 323.005,229.004 323.500 C 228.908 324.413,229.732 324.757,230.200 324.000 C 230.336 323.780,230.887 323.600,231.424 323.600 C 231.961 323.600,232.400 323.420,232.400 323.200 C 232.400 322.980,232.839 322.800,233.376 322.800 C 233.913 322.800,234.464 322.620,234.600 322.400 C 234.736 322.180,235.197 322.000,235.624 322.000 C 236.051 322.000,236.400 321.820,236.400 321.600 C 236.400 321.380,236.940 321.200,237.600 321.200 C 238.260 321.200,238.800 321.020,238.800 320.800 C 238.800 320.580,239.160 320.400,239.600 320.400 C 240.040 320.400,240.400 320.220,240.400 320.000 C 240.400 319.780,240.760 319.600,241.200 319.600 C 241.640 319.600,242.000 319.420,242.000 319.200 C 242.000 318.980,242.540 318.800,243.200 318.800 C 243.860 318.800,244.400 318.620,244.400 318.400 C 244.400 318.180,244.760 318.000,245.200 318.000 C 245.640 318.000,246.000 317.820,246.000 317.600 C 246.000 317.380,246.360 317.200,246.800 317.200 C 247.240 317.200,247.600 317.020,247.600 316.800 C 247.600 316.580,247.960 316.400,248.400 316.400 C 248.840 316.400,249.200 316.220,249.200 316.000 C 249.200 315.780,249.472 315.600,249.805 315.600 C 250.514 315.600,251.830 314.889,252.955 313.900 C 253.393 313.515,253.987 313.200,254.275 313.200 C 254.564 313.200,254.800 313.020,254.800 312.800 C 254.800 312.580,255.120 312.400,255.512 312.400 C 255.903 312.400,256.483 312.040,256.800 311.600 C 257.117 311.160,257.697 310.800,258.088 310.800 C 258.480 310.800,258.800 310.620,258.800 310.400 C 258.800 310.180,259.160 310.000,259.600 310.000 C 260.040 310.000,260.400 309.850,260.400 309.668 C 260.400 309.485,260.895 309.080,261.500 308.768 C 262.105 308.455,262.949 307.885,263.375 307.500 C 263.802 307.115,264.347 306.800,264.587 306.800 C 264.827 306.800,265.283 306.440,265.600 306.000 C 265.917 305.560,266.380 305.200,266.629 305.200 C 266.878 305.200,267.646 304.660,268.337 304.000 C 269.028 303.340,269.753 302.800,269.948 302.800 C 270.144 302.800,271.045 302.080,271.952 301.200 C 272.859 300.320,273.753 299.600,273.939 299.600 C 274.125 299.600,275.413 298.520,276.800 297.200 C 278.187 295.880,279.523 294.800,279.768 294.800 C 280.307 294.800,294.174 280.816,295.742 278.691 C 296.354 277.861,297.247 276.781,297.727 276.291 C 298.560 275.441,299.711 273.316,300.863 270.500 C 301.156 269.785,301.531 269.200,301.698 269.200 C 301.864 269.200,302.000 268.964,302.000 268.675 C 302.000 268.387,302.315 267.802,302.700 267.375 C 303.085 266.949,303.655 266.105,303.968 265.500 C 304.280 264.895,304.685 264.400,304.868 264.400 C 305.050 264.400,305.200 264.040,305.200 263.600 C 305.200 263.160,305.380 262.800,305.600 262.800 C 305.820 262.800,306.000 262.564,306.000 262.275 C 306.000 261.987,306.360 261.364,306.800 260.892 C 307.240 260.420,307.600 259.756,307.600 259.417 C 307.600 259.078,307.780 258.800,308.000 258.800 C 308.220 258.800,308.400 258.440,308.400 258.000 C 308.400 257.560,308.580 257.200,308.800 257.200 C 309.020 257.200,309.200 256.840,309.200 256.400 C 309.200 255.960,309.380 255.600,309.600 255.600 C 309.820 255.600,310.000 255.240,310.000 254.800 C 310.000 254.360,310.180 254.000,310.400 254.000 C 310.620 254.000,310.800 253.640,310.800 253.200 C 310.800 252.760,310.980 252.400,311.200 252.400 C 311.420 252.400,311.600 252.040,311.600 251.600 C 311.600 251.160,311.780 250.800,312.000 250.800 C 312.220 250.800,312.400 250.440,312.400 250.000 C 312.400 249.560,312.580 249.200,312.800 249.200 C 313.020 249.200,313.200 248.840,313.200 248.400 C 313.200 247.960,313.380 247.600,313.600 247.600 C 313.820 247.600,314.000 247.161,314.000 246.624 C 314.000 246.087,314.180 245.536,314.400 245.400 C 314.620 245.264,314.800 244.803,314.800 244.376 C 314.800 243.949,314.980 243.600,315.200 243.600 C 315.420 243.600,315.600 243.161,315.600 242.624 C 315.600 242.087,315.780 241.536,316.000 241.400 C 316.220 241.264,316.400 240.803,316.400 240.376 C 316.400 239.949,316.580 239.600,316.800 239.600 C 317.020 239.600,317.200 239.060,317.200 238.400 C 317.200 237.740,317.380 237.200,317.600 237.200 C 317.820 237.200,318.000 236.660,318.000 236.000 C 318.000 235.340,318.180 234.800,318.400 234.800 C 318.620 234.800,318.800 234.260,318.800 233.600 C 318.800 232.940,318.980 232.400,319.200 232.400 C 319.420 232.400,319.600 231.860,319.600 231.200 C 319.600 230.540,319.780 230.000,320.000 230.000 C 320.220 230.000,320.400 229.280,320.400 228.400 C 320.400 227.520,320.580 226.800,320.800 226.800 C 321.020 226.800,321.200 226.080,321.200 225.200 C 321.200 224.320,321.380 223.600,321.600 223.600 C 321.820 223.600,322.000 222.880,322.000 222.000 C 322.000 221.120,322.180 220.400,322.400 220.400 C 322.620 220.400,322.800 219.500,322.800 218.400 C 322.800 217.300,322.980 216.400,323.200 216.400 C 323.422 216.400,323.600 215.333,323.600 214.000 C 323.600 212.667,323.778 211.600,324.000 211.600 C 324.233 211.600,324.400 210.267,324.400 208.400 C 324.400 206.533,324.567 205.200,324.800 205.200 C 325.060 205.200,325.200 199.733,325.200 189.600 C 325.200 179.467,325.060 174.000,324.800 174.000 C 324.567 174.000,324.400 172.667,324.400 170.800 C 324.400 168.933,324.233 167.600,324.000 167.600 C 323.778 167.600,323.600 166.533,323.600 165.200 C 323.600 163.867,323.422 162.800,323.200 162.800 C 322.980 162.800,322.800 161.900,322.800 160.800 C 322.800 159.700,322.620 158.800,322.400 158.800 C 322.180 158.800,322.000 158.080,322.000 157.200 C 322.000 156.320,321.820 155.600,321.600 155.600 C 321.380 155.600,321.200 154.880,321.200 154.000 C 321.200 153.120,321.020 152.400,320.800 152.400 C 320.580 152.400,320.400 151.781,320.400 151.024 C 320.400 150.267,320.220 149.536,320.000 149.400 C 319.780 149.264,319.600 148.623,319.600 147.976 C 319.600 147.329,319.420 146.800,319.200 146.800 C 318.980 146.800,318.800 146.260,318.800 145.600 C 318.800 144.940,318.620 144.400,318.400 144.400 C 318.180 144.400,318.000 143.860,318.000 143.200 C 318.000 142.540,317.820 142.000,317.600 142.000 C 317.380 142.000,317.200 141.460,317.200 140.800 C 317.200 140.140,317.020 139.600,316.800 139.600 C 316.580 139.600,316.400 139.251,316.400 138.824 C 316.400 138.397,316.220 137.936,316.000 137.800 C 315.780 137.664,315.600 137.113,315.600 136.576 C 315.600 136.039,315.420 135.600,315.200 135.600 C 314.980 135.600,314.800 135.251,314.800 134.824 C 314.800 134.397,314.620 133.936,314.400 133.800 C 314.180 133.664,314.000 133.113,314.000 132.576 C 314.000 132.039,313.820 131.600,313.600 131.600 C 313.380 131.600,313.200 131.240,313.200 130.800 C 313.200 130.360,313.020 130.000,312.800 130.000 C 312.580 130.000,312.400 129.640,312.400 129.200 C 312.400 128.760,312.220 128.400,312.000 128.400 C 311.780 128.400,311.600 128.040,311.600 127.600 C 311.600 127.160,311.420 126.800,311.200 126.800 C 310.980 126.800,310.800 126.440,310.800 126.000 C 310.800 125.560,310.620 125.200,310.400 125.200 C 310.180 125.200,310.000 124.840,310.000 124.400 C 310.000 123.960,309.820 123.600,309.600 123.600 C 309.380 123.600,309.200 123.240,309.200 122.800 C 309.200 122.360,309.020 122.000,308.800 122.000 C 308.580 122.000,308.400 121.640,308.400 121.200 C 308.400 120.760,308.220 120.400,308.000 120.400 C 307.780 120.400,307.600 120.080,307.600 119.688 C 307.600 119.297,307.240 118.717,306.800 118.400 C 306.360 118.083,306.000 117.503,306.000 117.112 C 306.000 116.720,305.820 116.400,305.600 116.400 C 305.380 116.400,305.200 116.080,305.200 115.688 C 305.200 115.297,304.840 114.717,304.400 114.400 C 303.960 114.083,303.600 113.503,303.600 113.112 C 303.600 112.720,303.450 112.400,303.268 112.400 C 303.085 112.400,302.680 111.905,302.368 111.300 C 302.055 110.695,301.485 109.851,301.100 109.425 C 300.715 108.998,300.400 108.453,300.400 108.213 C 300.400 107.973,300.040 107.517,299.600 107.200 C 299.160 106.883,298.800 106.420,298.800 106.171 C 298.800 105.922,298.260 105.154,297.600 104.463 C 296.940 103.772,296.400 103.047,296.400 102.852 C 296.400 102.656,295.680 101.755,294.800 100.848 C 293.920 99.941,293.200 99.049,293.200 98.865 C 293.200 97.905,275.798 80.400,274.843 80.400 C 274.652 80.400,273.755 79.680,272.848 78.800 C 271.941 77.920,271.046 77.200,270.859 77.200 C 270.672 77.200,269.954 76.660,269.263 76.000 C 268.572 75.340,267.871 74.800,267.704 74.799 C 267.537 74.799,266.770 74.259,266.000 73.600 C 265.230 72.941,264.415 72.401,264.188 72.401 C 263.962 72.400,263.517 72.040,263.200 71.600 C 262.883 71.160,262.343 70.800,262.000 70.800 C 261.657 70.800,261.117 70.440,260.800 70.000 C 260.483 69.560,259.903 69.200,259.512 69.200 C 259.120 69.200,258.800 69.020,258.800 68.800 C 258.800 68.580,258.564 68.400,258.275 68.400 C 257.987 68.400,257.364 68.040,256.892 67.600 C 256.420 67.160,255.756 66.800,255.417 66.800 C 255.078 66.800,254.800 66.620,254.800 66.400 C 254.800 66.180,254.440 66.000,254.000 66.000 C 253.560 66.000,253.199 65.865,253.197 65.700 C 253.195 65.535,252.790 65.199,252.297 64.954 C 251.804 64.709,249.980 63.764,248.245 62.854 C 246.509 61.944,244.754 61.200,244.345 61.200 C 243.935 61.200,243.600 61.020,243.600 60.800 C 243.600 60.580,243.240 60.400,242.800 60.400 C 242.360 60.400,242.000 60.220,242.000 60.000 C 242.000 59.780,241.640 59.600,241.200 59.600 C 240.760 59.600,240.400 59.420,240.400 59.200 C 240.400 58.980,240.051 58.800,239.624 58.800 C 239.197 58.800,238.736 58.620,238.600 58.400 C 238.464 58.180,237.913 58.000,237.376 58.000 C 236.839 58.000,236.400 57.820,236.400 57.600 C 236.400 57.380,236.038 57.200,235.595 57.200 C 235.152 57.200,234.432 57.020,233.995 56.800 C 233.558 56.580,232.842 56.220,232.405 56.000 C 231.968 55.780,231.248 55.600,230.805 55.600 C 230.362 55.600,230.000 55.420,230.000 55.200 C 230.000 54.980,229.471 54.800,228.824 54.800 C 228.177 54.800,227.536 54.620,227.400 54.400 C 227.264 54.180,226.533 54.000,225.776 54.000 C 225.019 54.000,224.400 53.820,224.400 53.600 C 224.400 53.380,223.871 53.200,223.224 53.200 C 222.577 53.200,221.936 53.020,221.800 52.800 C 221.664 52.580,220.933 52.400,220.176 52.400 C 219.419 52.400,218.800 52.220,218.800 52.000 C 218.800 51.780,218.091 51.600,217.224 51.600 C 216.357 51.600,215.536 51.420,215.400 51.200 C 215.264 50.980,214.364 50.800,213.400 50.800 C 212.436 50.800,211.536 50.620,211.400 50.400 C 211.264 50.180,210.184 50.000,209.000 50.000 C 207.816 50.000,206.736 49.820,206.600 49.600 C 206.464 49.380,205.013 49.200,203.376 49.200 C 201.659 49.200,200.400 49.031,200.400 48.800 C 200.400 48.540,195.067 48.400,185.200 48.400 C 175.333 48.400,170.000 48.540,170.000 48.800 M250.192 330.414 C 249.719 331.178,250.611 331.661,252.247 331.527 C 253.304 331.441,253.800 331.208,253.800 330.800 C 253.800 330.060,250.621 329.719,250.192 330.414 " stroke="none" fill="#434a96" fill-rule="evenodd"></path><path id="path2" d="M237.300 129.487 C 237.905 129.578,238.895 129.578,239.500 129.487 C 240.105 129.395,239.610 129.320,238.400 129.320 C 237.190 129.320,236.695 129.395,237.300 129.487 M244.707 129.490 C 245.426 129.579,246.506 129.577,247.107 129.486 C 247.708 129.395,247.120 129.322,245.800 129.324 C 244.480 129.326,243.988 129.401,244.707 129.490 M265.382 147.000 C 265.382 155.580,265.435 159.033,265.500 154.674 C 265.564 150.314,265.564 143.294,265.499 139.074 C 265.435 134.853,265.382 138.420,265.382 147.000 M204.575 140.900 L 203.400 142.200 204.700 141.025 C 205.415 140.379,206.000 139.794,206.000 139.725 C 206.000 139.416,205.670 139.688,204.575 140.900 M247.682 163.096 C 249.158 163.173,251.678 163.173,253.282 163.097 C 254.887 163.021,253.680 162.958,250.600 162.958 C 247.520 162.957,246.207 163.019,247.682 163.096 M191.358 174.600 C 191.358 177.680,191.421 178.887,191.497 177.282 C 191.573 175.678,191.573 173.158,191.496 171.682 C 191.419 170.207,191.357 171.520,191.358 174.600 M227.701 194.600 C 227.705 195.480,227.787 195.793,227.883 195.295 C 227.979 194.798,227.975 194.078,227.875 193.695 C 227.775 193.313,227.696 193.720,227.701 194.600 M175.835 203.100 C 165.461 203.175,160.501 203.350,160.135 203.654 C 159.701 204.014,159.618 207.378,159.694 221.549 L 159.787 239.000 159.994 221.400 L 160.200 203.800 175.385 203.695 C 184.703 203.631,190.722 203.438,190.965 203.195 C 191.182 202.978,191.279 202.843,191.180 202.895 C 191.081 202.947,184.176 203.040,175.835 203.100 M253.700 203.487 C 254.305 203.578,255.295 203.578,255.900 203.487 C 256.505 203.395,256.010 203.320,254.800 203.320 C 253.590 203.320,253.095 203.395,253.700 203.487 M245.500 203.882 C 245.995 203.978,246.805 203.978,247.300 203.882 C 247.795 203.787,247.390 203.709,246.400 203.709 C 245.410 203.709,245.005 203.787,245.500 203.882 M179.483 239.497 L 190.767 239.612 190.908 242.506 L 191.050 245.400 191.025 242.400 L 191.000 239.400 179.600 239.390 L 168.200 239.381 179.483 239.497 M228.584 239.700 C 228.480 239.975,228.440 258.740,228.497 281.400 L 228.600 322.600 228.800 280.900 C 228.910 257.965,228.949 239.200,228.887 239.200 C 228.826 239.200,228.689 239.425,228.584 239.700 M227.423 323.689 C 226.695 324.728,226.633 325.200,227.224 325.200 C 227.457 325.200,227.536 325.020,227.400 324.800 C 227.264 324.580,227.322 324.400,227.530 324.400 C 227.737 324.400,228.001 324.040,228.116 323.600 C 228.387 322.564,228.193 322.589,227.423 323.689 M192.000 330.400 C 192.000 330.631,193.267 330.800,195.000 330.800 C 196.733 330.800,198.000 330.631,198.000 330.400 C 198.000 330.169,196.733 330.000,195.000 330.000 C 193.267 330.000,192.000 330.169,192.000 330.400 " stroke="none" fill="#8692bd" fill-rule="evenodd"></path><path id="path3" d="M234.311 129.893 C 235.251 129.978,236.691 129.977,237.511 129.891 C 238.330 129.805,237.560 129.736,235.800 129.737 C 234.040 129.739,233.370 129.809,234.311 129.893 M246.900 129.894 C 247.945 129.976,249.655 129.976,250.700 129.894 C 251.745 129.812,250.890 129.744,248.800 129.744 C 246.710 129.744,245.855 129.812,246.900 129.894 M253.700 130.276 C 254.085 130.376,254.715 130.376,255.100 130.276 C 255.485 130.175,255.170 130.093,254.400 130.093 C 253.630 130.093,253.315 130.175,253.700 130.276 M226.200 130.820 C 225.411 131.035,225.822 131.070,227.400 130.923 C 228.720 130.800,229.875 130.632,229.967 130.550 C 230.264 130.282,227.434 130.485,226.200 130.820 M260.354 130.800 C 262.199 130.996,263.956 131.251,264.259 131.367 C 264.716 131.543,264.792 134.216,264.705 147.089 L 264.600 162.600 261.800 162.829 L 259.000 163.059 261.857 163.129 C 264.138 163.186,264.763 163.072,264.957 162.567 C 265.329 161.598,265.234 131.872,264.857 131.278 C 264.636 130.930,263.276 130.704,260.763 130.600 L 257.000 130.443 260.354 130.800 M222.200 131.619 C 221.642 131.871,221.885 131.907,223.000 131.738 C 223.880 131.604,224.675 131.428,224.767 131.347 C 225.110 131.044,222.968 131.271,222.200 131.619 M216.600 133.578 C 215.720 133.995,215.180 134.336,215.400 134.338 C 215.946 134.342,219.102 132.864,218.600 132.840 C 218.380 132.830,217.480 133.162,216.600 133.578 M211.600 136.036 C 210.936 136.579,210.869 136.715,211.400 136.440 C 212.705 135.766,213.428 135.212,213.000 135.215 C 212.780 135.217,212.150 135.586,211.600 136.036 M208.500 137.974 C 207.609 138.619,206.753 139.352,206.598 139.603 C 206.382 139.953,209.512 137.754,210.367 136.956 C 210.987 136.376,209.847 136.998,208.500 137.974 M202.536 143.361 C 199.804 146.289,197.604 149.200,198.124 149.200 C 198.217 149.200,198.775 148.473,199.363 147.584 C 199.951 146.696,201.708 144.626,203.267 142.984 C 204.826 141.343,206.005 140.000,205.887 140.000 C 205.769 140.000,204.261 141.512,202.536 143.361 M196.796 150.900 C 196.360 151.615,196.002 152.365,196.001 152.567 C 196.000 153.023,196.056 152.948,197.114 151.100 C 198.166 149.263,197.897 149.094,196.796 150.900 M195.072 154.619 C 194.132 156.589,194.264 156.924,195.247 155.062 C 195.693 154.216,195.987 153.454,195.901 153.367 C 195.814 153.281,195.441 153.844,195.072 154.619 M193.000 160.400 C 192.848 161.091,192.807 161.741,192.909 161.842 C 193.011 161.944,193.209 161.453,193.350 160.750 C 193.683 159.083,193.360 158.760,193.000 160.400 M247.721 162.698 C 249.877 162.771,253.297 162.770,255.321 162.698 C 257.344 162.625,255.580 162.566,251.400 162.567 C 247.220 162.567,245.564 162.626,247.721 162.698 M192.256 163.684 C 192.121 164.188,192.031 165.230,192.055 166.000 C 192.089 167.069,192.175 166.880,192.418 165.202 C 192.753 162.892,192.672 162.133,192.256 163.684 M241.700 163.076 C 242.085 163.176,242.715 163.176,243.100 163.076 C 243.485 162.975,243.170 162.893,242.400 162.893 C 241.630 162.893,241.315 162.975,241.700 163.076 M238.200 163.600 C 237.181 164.038,238.232 164.038,239.600 163.600 C 240.404 163.343,240.443 163.277,239.800 163.268 C 239.360 163.262,238.640 163.411,238.200 163.600 M234.267 165.478 C 233.033 166.291,232.107 167.040,232.209 167.142 C 232.311 167.245,232.711 167.044,233.098 166.696 C 233.484 166.348,234.610 165.601,235.600 165.036 C 236.590 164.472,237.200 164.007,236.956 164.005 C 236.711 164.002,235.501 164.665,234.267 165.478 M230.597 169.133 C 229.571 170.684,228.770 172.894,228.836 173.997 C 228.855 174.329,229.110 173.732,229.402 172.671 C 229.693 171.610,230.400 170.035,230.972 169.171 C 231.543 168.307,231.921 167.600,231.811 167.600 C 231.701 167.600,231.155 168.290,230.597 169.133 M191.765 175.400 C 191.766 179.360,191.826 180.926,191.898 178.880 C 191.971 176.834,191.971 173.594,191.898 171.680 C 191.824 169.766,191.765 171.440,191.765 175.400 M228.240 176.840 C 228.093 177.757,228.052 178.585,228.147 178.680 C 228.242 178.776,228.446 178.110,228.600 177.200 C 228.754 176.290,228.796 175.462,228.693 175.360 C 228.590 175.257,228.387 175.923,228.240 176.840 M227.701 181.000 C 227.705 181.880,227.787 182.193,227.883 181.695 C 227.979 181.198,227.975 180.478,227.875 180.095 C 227.775 179.713,227.696 180.120,227.701 181.000 M227.320 184.800 C 227.320 186.010,227.395 186.505,227.487 185.900 C 227.578 185.295,227.578 184.305,227.487 183.700 C 227.395 183.095,227.320 183.590,227.320 184.800 M191.373 193.400 C 191.373 198.680,191.430 200.785,191.499 198.077 C 191.568 195.369,191.568 191.049,191.499 188.477 C 191.429 185.905,191.372 188.120,191.373 193.400 M227.324 194.200 C 227.326 195.520,227.401 196.012,227.490 195.293 C 227.579 194.574,227.577 193.494,227.486 192.893 C 227.395 192.292,227.322 192.880,227.324 194.200 M227.724 199.000 C 227.726 200.320,227.801 200.812,227.890 200.093 C 227.979 199.374,227.977 198.294,227.886 197.693 C 227.795 197.092,227.722 197.680,227.724 199.000 M228.046 202.486 C 227.999 203.191,229.139 204.025,230.074 203.968 C 230.363 203.951,230.116 203.760,229.524 203.543 C 228.933 203.327,228.369 202.846,228.271 202.475 C 228.106 201.851,228.089 201.852,228.046 202.486 M160.183 204.100 C 160.078 204.375,160.038 212.340,160.096 221.800 L 160.200 239.000 175.662 239.200 C 184.166 239.310,191.041 239.265,190.938 239.100 C 190.836 238.935,183.923 238.800,175.576 238.800 L 160.400 238.800 160.400 221.405 L 160.400 204.009 175.900 203.900 L 191.400 203.790 175.887 203.695 C 163.775 203.621,160.333 203.710,160.183 204.100 M252.500 203.894 C 253.545 203.976,255.255 203.976,256.300 203.894 C 257.345 203.812,256.490 203.744,254.400 203.744 C 252.310 203.744,251.455 203.812,252.500 203.894 M232.291 204.289 C 233.001 204.377,234.261 204.379,235.091 204.292 C 235.921 204.205,235.340 204.133,233.800 204.131 C 232.260 204.129,231.581 204.200,232.291 204.289 M240.700 204.296 C 242.075 204.374,244.325 204.374,245.700 204.296 C 247.075 204.218,245.950 204.154,243.200 204.154 C 240.450 204.154,239.325 204.218,240.700 204.296 M260.100 204.276 C 260.485 204.376,261.115 204.376,261.500 204.276 C 261.885 204.175,261.570 204.093,260.800 204.093 C 260.030 204.093,259.715 204.175,260.100 204.276 M262.625 209.625 C 262.470 211.194,262.427 212.561,262.529 212.662 C 262.631 212.764,262.843 211.566,263.000 210.000 C 263.157 208.434,263.200 207.067,263.096 206.963 C 262.992 206.858,262.780 208.056,262.625 209.625 M261.835 216.235 C 261.683 217.916,261.641 219.374,261.742 219.476 C 261.843 219.577,262.055 218.288,262.212 216.612 C 262.369 214.936,262.411 213.477,262.305 213.371 C 262.199 213.266,261.988 214.554,261.835 216.235 M261.293 222.000 C 261.293 222.770,261.375 223.085,261.476 222.700 C 261.576 222.315,261.576 221.685,261.476 221.300 C 261.375 220.915,261.293 221.230,261.293 222.000 M260.215 229.015 C 260.061 230.254,260.017 231.350,260.119 231.452 C 260.220 231.554,260.430 230.623,260.585 229.385 C 260.739 228.146,260.783 227.050,260.681 226.948 C 260.580 226.846,260.370 227.777,260.215 229.015 M259.663 233.200 C 259.623 233.970,259.506 235.320,259.402 236.200 L 259.212 237.800 259.623 236.200 C 259.848 235.320,259.966 233.970,259.884 233.200 L 259.734 231.800 259.663 233.200 M258.800 238.395 C 258.800 238.647,253.240 238.829,243.500 238.895 L 228.200 239.000 228.098 280.561 C 228.030 308.461,227.860 322.286,227.582 322.621 C 227.127 323.170,224.003 324.432,221.200 325.199 C 220.210 325.470,219.040 325.832,218.600 326.005 C 218.160 326.178,217.170 326.486,216.400 326.690 L 215.000 327.062 216.371 327.378 C 217.361 327.607,217.861 327.543,218.171 327.147 C 218.435 326.810,219.176 326.648,220.100 326.724 C 220.968 326.796,221.600 326.670,221.600 326.424 C 221.600 326.191,222.230 326.000,223.000 326.000 C 223.770 326.000,224.400 325.820,224.400 325.600 C 224.400 325.380,224.681 325.200,225.024 325.200 C 225.367 325.200,225.536 325.020,225.400 324.800 C 225.264 324.580,225.441 324.400,225.793 324.400 C 226.145 324.400,226.831 324.030,227.317 323.577 L 228.200 322.754 228.400 281.077 L 228.600 239.400 243.767 239.200 C 255.400 239.047,258.972 238.884,259.100 238.500 C 259.192 238.225,259.162 238.000,259.033 238.000 C 258.905 238.000,258.800 238.178,258.800 238.395 M191.397 294.795 C 191.400 325.613,191.472 329.794,192.000 329.833 C 192.340 329.858,192.385 329.805,192.102 329.710 C 191.711 329.578,191.582 322.054,191.499 294.671 L 191.393 259.800 191.397 294.795 M212.621 327.561 C 211.900 327.843,211.915 327.885,212.821 328.127 C 214.230 328.504,214.400 328.469,214.400 327.800 C 214.400 327.153,213.853 327.079,212.621 327.561 M194.200 329.600 C 194.860 329.768,196.154 329.927,197.076 329.953 C 197.998 329.979,198.864 330.180,199.000 330.400 C 199.359 330.981,200.000 330.890,200.000 330.257 C 200.000 329.725,196.518 329.135,194.041 329.247 C 193.032 329.293,193.037 329.304,194.200 329.600 " stroke="none" fill="#a4accc" fill-rule="evenodd"></path><path id="path4" d="M241.100 129.482 C 241.595 129.578,242.405 129.578,242.900 129.482 C 243.395 129.387,242.990 129.309,242.000 129.309 C 241.010 129.309,240.605 129.387,241.100 129.482 M256.700 163.082 C 257.195 163.178,258.005 163.178,258.500 163.082 C 258.995 162.987,258.590 162.909,257.600 162.909 C 256.610 162.909,256.205 162.987,256.700 163.082 M191.320 182.000 C 191.320 183.210,191.395 183.705,191.487 183.100 C 191.578 182.495,191.578 181.505,191.487 180.900 C 191.395 180.295,191.320 180.790,191.320 182.000 M227.331 189.400 C 227.333 190.940,227.405 191.521,227.492 190.691 C 227.579 189.861,227.577 188.601,227.489 187.891 C 227.400 187.181,227.329 187.860,227.331 189.400 M248.705 203.883 C 249.202 203.979,249.922 203.975,250.305 203.875 C 250.687 203.775,250.280 203.696,249.400 203.701 C 248.520 203.705,248.207 203.787,248.705 203.883 M226.665 324.176 C 226.518 324.558,226.176 324.689,225.750 324.525 C 225.289 324.348,225.162 324.415,225.358 324.732 C 225.778 325.411,226.674 325.306,226.967 324.543 C 227.105 324.181,227.147 323.813,227.059 323.725 C 226.971 323.637,226.793 323.840,226.665 324.176 M193.300 329.876 C 193.685 329.976,194.315 329.976,194.700 329.876 C 195.085 329.775,194.770 329.693,194.000 329.693 C 193.230 329.693,192.915 329.775,193.300 329.876 " stroke="none" fill="#94a4c4" fill-rule="evenodd"></path><path id="path5" d="M240.691 129.089 C 241.401 129.177,242.661 129.179,243.491 129.092 C 244.321 129.005,243.740 128.933,242.200 128.931 C 240.660 128.929,239.981 129.000,240.691 129.089 M227.500 130.282 C 227.995 130.378,228.805 130.378,229.300 130.282 C 229.795 130.187,229.390 130.109,228.400 130.109 C 227.410 130.109,227.005 130.187,227.500 130.282 M258.311 130.293 C 259.251 130.378,260.691 130.377,261.511 130.291 C 262.330 130.205,261.560 130.136,259.800 130.137 C 258.040 130.139,257.370 130.209,258.311 130.293 M261.507 163.490 C 262.226 163.579,263.306 163.577,263.907 163.486 C 264.508 163.395,263.920 163.322,262.600 163.324 C 261.280 163.326,260.788 163.401,261.507 163.490 M227.748 189.200 C 227.748 191.510,227.814 192.455,227.895 191.300 C 227.976 190.145,227.976 188.255,227.895 187.100 C 227.814 185.945,227.748 186.890,227.748 189.200 M248.691 203.489 C 249.401 203.577,250.661 203.579,251.491 203.492 C 252.321 203.405,251.740 203.333,250.200 203.331 C 248.660 203.329,247.981 203.400,248.691 203.489 M257.505 203.483 C 258.002 203.579,258.722 203.575,259.105 203.475 C 259.487 203.375,259.080 203.296,258.200 203.301 C 257.320 203.305,257.007 203.387,257.505 203.483 M242.705 203.883 C 243.202 203.979,243.922 203.975,244.305 203.875 C 244.687 203.775,244.280 203.696,243.400 203.701 C 242.520 203.705,242.207 203.787,242.705 203.883 M159.953 239.315 C 160.127 239.488,162.144 239.577,164.435 239.512 L 168.600 239.396 164.118 239.198 C 161.653 239.089,159.779 239.142,159.953 239.315 M244.200 239.200 L 229.000 239.414 244.076 239.507 C 253.797 239.567,259.241 239.458,259.400 239.200 C 259.536 238.980,259.592 238.842,259.524 238.893 C 259.456 238.944,252.560 239.082,244.200 239.200 M190.990 274.800 C 190.990 290.970,191.039 297.585,191.100 289.500 C 191.160 281.415,191.160 268.185,191.100 260.100 C 191.039 252.015,190.990 258.630,190.990 274.800 " stroke="none" fill="#5474b4" fill-rule="evenodd"></path><path id="path6" d="M237.100 129.082 C 237.595 129.178,238.405 129.178,238.900 129.082 C 239.395 128.987,238.990 128.909,238.000 128.909 C 237.010 128.909,236.605 128.987,237.100 129.082 M245.500 129.082 C 245.995 129.178,246.805 129.178,247.300 129.082 C 247.795 128.987,247.390 128.909,246.400 128.909 C 245.410 128.909,245.005 128.987,245.500 129.082 M223.800 130.410 C 223.266 130.647,223.598 130.686,224.800 130.527 C 225.790 130.396,226.675 130.224,226.767 130.144 C 227.114 129.843,224.564 130.072,223.800 130.410 M264.000 130.353 L 265.400 130.600 265.504 146.891 L 265.609 163.183 264.504 163.426 C 262.754 163.813,262.534 163.935,263.526 163.968 C 266.114 164.057,266.000 164.837,266.000 147.066 C 266.000 129.653,266.039 129.957,263.820 130.053 C 262.609 130.105,262.611 130.107,264.000 130.353 M216.400 132.818 C 215.962 133.115,216.124 133.152,217.000 132.956 C 218.471 132.627,218.790 132.398,217.767 132.406 C 217.345 132.409,216.730 132.595,216.400 132.818 M206.800 138.460 C 206.030 139.135,205.762 139.505,206.204 139.281 C 206.935 138.911,208.747 137.178,208.362 137.216 C 208.273 137.225,207.570 137.785,206.800 138.460 M198.929 146.500 C 198.484 146.995,197.976 147.670,197.801 148.000 C 197.463 148.637,197.555 148.550,199.176 146.700 C 199.706 146.095,200.049 145.600,199.939 145.600 C 199.829 145.600,199.375 146.005,198.929 146.500 M194.465 154.217 C 193.795 155.688,193.923 156.002,194.647 154.665 C 194.986 154.040,195.188 153.454,195.096 153.363 C 195.005 153.271,194.721 153.656,194.465 154.217 M244.900 163.491 C 245.725 163.578,247.075 163.578,247.900 163.491 C 248.725 163.405,248.050 163.334,246.400 163.334 C 244.750 163.334,244.075 163.405,244.900 163.491 M252.917 163.497 C 254.411 163.574,256.751 163.574,258.117 163.496 C 259.482 163.418,258.260 163.355,255.400 163.355 C 252.540 163.356,251.422 163.420,252.917 163.497 M190.981 183.400 C 190.981 191.760,191.034 195.237,191.099 191.126 C 191.164 187.016,191.164 180.176,191.100 175.926 C 191.035 171.677,190.982 175.040,190.981 183.400 M229.664 173.450 C 229.629 174.138,229.511 175.308,229.401 176.050 L 229.203 177.400 229.624 176.058 C 229.855 175.320,229.973 174.150,229.886 173.458 L 229.728 172.200 229.664 173.450 M228.101 182.600 C 228.105 183.480,228.187 183.793,228.283 183.295 C 228.379 182.798,228.375 182.078,228.275 181.695 C 228.175 181.313,228.096 181.720,228.101 182.600 M228.124 196.600 C 228.126 197.920,228.201 198.412,228.290 197.693 C 228.379 196.974,228.377 195.894,228.286 195.293 C 228.195 194.692,228.122 195.280,228.124 196.600 M190.909 200.400 C 190.909 201.390,190.987 201.795,191.082 201.300 C 191.178 200.805,191.178 199.995,191.082 199.500 C 190.987 199.005,190.909 199.410,190.909 200.400 M228.901 202.400 C 228.990 202.730,229.499 203.033,230.031 203.074 C 230.795 203.132,230.831 203.101,230.200 202.928 C 229.760 202.807,229.251 202.503,229.070 202.254 C 228.851 201.954,228.794 202.004,228.901 202.400 M159.680 203.280 C 158.946 204.014,158.994 238.931,159.730 239.542 C 160.335 240.044,190.800 240.400,190.800 239.905 C 190.800 239.742,183.825 239.562,175.300 239.505 L 159.800 239.400 159.800 221.400 L 159.800 203.400 175.400 203.193 L 191.000 202.986 175.580 202.893 C 164.014 202.823,160.040 202.920,159.680 203.280 M252.300 203.095 C 253.455 203.176,255.345 203.176,256.500 203.095 C 257.655 203.014,256.710 202.948,254.400 202.948 C 252.090 202.948,251.145 203.014,252.300 203.095 M245.100 203.482 C 245.595 203.578,246.405 203.578,246.900 203.482 C 247.395 203.387,246.990 203.309,246.000 203.309 C 245.010 203.309,244.605 203.387,245.100 203.482 M235.900 203.895 C 237.055 203.976,238.945 203.976,240.100 203.895 C 241.255 203.814,240.310 203.748,238.000 203.748 C 235.690 203.748,234.745 203.814,235.900 203.895 M263.276 210.444 C 263.234 211.678,263.115 213.568,263.011 214.644 L 262.822 216.600 263.229 214.646 C 263.453 213.571,263.572 211.681,263.494 210.446 L 263.351 208.200 263.276 210.444 M261.693 223.200 C 261.693 223.970,261.775 224.285,261.876 223.900 C 261.976 223.515,261.976 222.885,261.876 222.500 C 261.775 222.115,261.693 222.430,261.693 223.200 M260.909 230.000 C 260.909 230.990,260.987 231.395,261.082 230.900 C 261.178 230.405,261.178 229.595,261.082 229.100 C 260.987 228.605,260.909 229.010,260.909 230.000 M260.101 236.600 C 260.105 237.480,260.187 237.793,260.283 237.295 C 260.379 236.798,260.375 236.078,260.275 235.695 C 260.175 235.313,260.096 235.720,260.101 236.600 M259.464 238.978 C 259.260 239.510,257.269 239.605,244.314 239.700 L 229.400 239.810 244.251 239.905 C 259.077 240.000,261.156 239.823,259.906 238.573 C 259.792 238.459,259.593 238.641,259.464 238.978 M228.993 281.200 C 228.993 304.190,229.041 313.595,229.100 302.100 C 229.159 290.605,229.159 271.795,229.100 260.300 C 229.041 248.805,228.993 258.210,228.993 281.200 M190.979 316.800 C 190.979 323.950,191.033 326.875,191.099 323.300 C 191.166 319.725,191.166 313.875,191.099 310.300 C 191.033 306.725,190.979 309.650,190.979 316.800 " stroke="none" fill="#4b65a4" fill-rule="evenodd"></path></g></svg>