<svg id="svg" version="1.1" xmlns="http://www.w3.org/2000/svg" xmlns:xlink="http://www.w3.org/1999/xlink" width="400" height="400" viewBox="0, 0, 400,400"><g id="svgg"><path id="path0" d="M177.200 91.174 C 151.290 96.646,146.026 124.372,168.733 135.776 C 171.372 137.101,172.950 137.029,173.119 135.575 C 173.227 134.654,172.901 134.383,169.915 132.903 C 165.917 130.922,161.714 127.322,162.131 126.235 C 162.285 125.835,162.654 125.612,162.965 125.731 C 166.143 126.951,178.978 126.997,185.600 125.813 C 189.306 125.151,190.284 124.478,189.545 123.098 C 189.083 122.233,189.526 122.227,181.600 123.214 C 174.248 124.130,162.036 123.134,159.354 121.400 C 157.933 120.480,157.022 115.378,158.117 114.469 C 158.485 114.164,159.840 114.164,162.817 114.469 C 168.035 115.003,185.932 114.678,187.149 114.027 C 188.127 113.504,188.315 111.696,187.428 111.355 C 187.113 111.235,183.616 111.314,179.656 111.532 C 168.071 112.170,158.395 111.340,158.404 109.710 C 158.435 104.016,163.860 102.035,180.308 101.710 C 190.806 101.502,192.144 101.173,190.239 99.267 C 189.497 98.526,178.123 98.330,171.100 98.937 C 166.733 99.315,166.240 99.013,168.700 97.468 C 173.357 94.542,178.603 93.522,188.272 93.662 C 196.349 93.780,198.471 93.331,197.181 91.777 C 195.958 90.304,183.153 89.917,177.200 91.174 M199.797 95.341 C 195.011 97.569,191.620 104.512,191.606 112.113 C 191.598 116.182,192.115 116.414,194.757 113.523 C 199.370 108.476,205.672 107.184,211.987 109.990 C 215.521 111.560,215.918 110.923,214.588 105.817 C 212.320 97.112,205.844 92.525,199.797 95.341 M202.600 112.133 C 192.607 115.424,191.297 128.650,200.515 133.188 C 209.574 137.648,219.449 129.540,216.656 119.935 C 214.994 114.218,208.021 110.347,202.600 112.133 M218.974 129.258 C 214.380 138.879,202.486 140.591,194.732 132.747 C 186.106 124.021,174.719 133.593,168.196 155.054 C 163.240 171.358,160.132 203.845,163.194 207.333 C 170.778 215.970,202.075 215.769,208.577 207.041 C 211.445 203.192,206.806 161.692,202.342 151.267 C 201.069 148.294,201.174 148.144,204.700 147.897 C 213.863 147.253,222.000 139.110,222.000 130.583 C 222.000 126.418,220.618 125.813,218.974 129.258 M213.191 216.339 C 209.310 219.515,206.059 220.762,200.672 221.142 L 197.000 221.400 196.866 222.580 C 196.368 226.953,209.027 224.736,215.100 219.388 C 218.670 216.243,216.853 213.341,213.191 216.339 M161.341 216.425 C 159.866 216.973,159.868 217.579,161.351 220.580 C 164.471 226.893,172.972 233.869,174.367 231.261 C 175.195 229.715,174.862 229.024,172.656 227.705 C 169.879 226.043,166.145 222.028,164.499 218.932 C 163.091 216.282,162.655 215.936,161.341 216.425 M137.355 240.238 C 136.989 241.694,137.637 242.600,139.044 242.600 C 140.931 242.600,140.808 239.459,138.914 239.276 C 137.803 239.168,137.590 239.300,137.355 240.238 M226.400 244.390 C 216.275 246.319,216.971 262.383,227.212 263.123 C 230.207 263.340,232.744 262.456,234.250 260.671 C 240.253 253.562,235.037 242.745,226.400 244.390 M137.900 244.832 C 137.269 245.200,137.200 246.057,137.200 253.540 C 137.200 262.302,137.300 262.800,139.056 262.800 C 140.438 262.800,140.487 262.485,140.469 253.741 C 140.450 244.433,140.182 243.503,137.900 244.832 M150.400 244.689 C 146.686 246.084,144.408 251.832,145.600 256.801 C 146.767 261.665,151.372 264.076,155.892 262.187 C 157.697 261.433,158.400 261.663,158.400 263.007 C 158.400 265.496,156.482 267.540,153.781 267.928 C 150.253 268.435,150.392 270.808,153.949 270.791 C 157.173 270.776,160.118 268.922,161.242 266.200 C 161.928 264.538,162.260 246.834,161.627 245.651 C 161.134 244.729,159.648 244.512,158.906 245.254 C 158.568 245.592,158.037 245.542,156.818 245.054 C 155.246 244.425,151.647 244.220,150.400 244.689 M172.878 245.108 C 171.814 245.638,171.406 245.672,170.784 245.283 C 167.823 243.434,167.200 244.914,167.200 253.800 C 167.200 261.381,167.467 262.803,168.890 262.794 C 170.573 262.783,170.700 262.400,170.876 256.800 C 171.104 249.541,172.316 247.200,175.845 247.200 C 178.848 247.200,179.600 249.024,179.600 256.307 C 179.600 262.160,179.784 262.800,181.466 262.800 C 184.986 262.800,183.504 246.784,179.822 245.037 C 178.107 244.223,174.586 244.259,172.878 245.108 M191.689 245.043 C 186.190 247.843,185.695 258.469,190.904 261.916 C 193.663 263.742,200.196 263.693,201.412 261.838 C 202.390 260.344,201.779 259.449,200.041 259.831 C 195.023 260.934,190.918 259.177,191.275 256.079 L 191.400 255.000 196.915 254.800 C 203.184 254.573,203.368 254.476,203.011 251.600 C 202.289 245.772,196.660 242.512,191.689 245.043 M212.248 245.046 C 211.320 245.557,210.924 245.587,210.208 245.204 C 209.719 244.943,208.888 244.790,208.360 244.864 L 207.400 245.000 207.400 253.800 L 207.400 262.600 208.800 262.600 L 210.200 262.600 210.433 257.200 C 210.749 249.883,211.622 247.999,215.020 247.292 C 216.430 247.000,216.600 246.837,216.600 245.782 C 216.600 244.348,214.242 243.948,212.248 245.046 M245.200 245.161 C 243.954 245.847,243.727 245.866,243.135 245.336 C 242.770 245.008,241.960 244.799,241.335 244.870 L 240.200 245.000 240.000 249.200 C 239.595 257.714,240.039 262.581,241.234 262.720 C 242.870 262.910,243.113 262.157,243.272 256.400 C 243.466 249.360,244.624 247.200,248.206 247.200 C 251.255 247.200,252.000 248.994,252.000 256.338 C 252.000 262.328,252.217 262.995,254.078 262.731 C 255.128 262.582,255.714 251.417,254.830 248.383 C 253.806 244.865,248.786 243.185,245.200 245.161 M118.182 245.303 C 117.912 246.007,123.451 262.058,124.108 262.475 C 125.061 263.080,127.552 262.837,127.946 262.100 C 128.841 260.428,133.605 245.789,133.415 245.295 C 133.282 244.949,132.730 244.795,131.906 244.874 L 130.606 245.000 128.603 251.067 C 125.812 259.520,125.972 259.523,123.252 250.950 L 121.365 245.000 119.879 244.876 C 118.893 244.793,118.322 244.937,118.182 245.303 M156.195 248.067 C 160.168 251.193,158.494 260.000,153.926 260.000 C 149.035 260.000,146.985 252.484,150.771 248.431 C 152.214 246.886,154.498 246.733,156.195 248.067 M197.779 248.055 C 200.727 250.374,199.836 252.000,195.619 252.000 C 191.796 252.000,191.200 251.801,191.200 250.526 C 191.200 247.789,195.424 246.202,197.779 248.055 M230.379 247.789 C 231.901 248.576,233.200 251.344,233.200 253.800 C 233.200 260.391,226.294 262.966,223.592 257.382 C 220.793 251.601,225.335 245.181,230.379 247.789 M147.398 269.700 C 147.301 269.975,147.172 271.190,147.111 272.400 L 147.000 274.600 144.143 274.600 C 140.810 274.600,140.009 275.102,138.960 277.849 C 137.181 282.507,140.188 287.430,144.307 286.603 C 145.128 286.438,146.520 286.280,147.400 286.252 L 149.000 286.200 149.265 284.200 C 149.605 281.631,149.676 270.663,149.357 269.833 C 149.069 269.081,147.651 268.985,147.398 269.700 M216.128 269.700 C 215.952 269.975,215.717 271.190,215.604 272.400 L 215.400 274.600 213.148 274.465 C 209.140 274.224,207.024 276.363,207.066 280.610 C 207.106 284.537,209.368 287.074,212.400 286.592 C 213.390 286.435,214.919 286.312,215.797 286.319 C 217.989 286.337,217.987 286.345,217.994 277.933 C 218.001 269.429,217.556 267.465,216.128 269.700 M118.544 270.203 C 118.404 270.565,118.553 271.125,118.874 271.446 C 119.675 272.246,120.875 271.728,120.721 270.649 C 120.569 269.586,118.911 269.246,118.544 270.203 M250.071 272.769 C 249.847 273.412,249.289 274.138,248.832 274.383 C 247.742 274.966,247.782 275.507,249.000 276.635 C 249.918 277.485,250.000 277.846,250.000 281.007 C 250.000 285.717,251.182 287.395,253.800 286.400 C 255.098 285.906,255.066 285.371,253.700 284.718 C 252.633 284.207,252.597 284.081,252.486 280.540 L 252.371 276.888 253.586 276.465 C 255.114 275.932,255.148 275.000,253.658 274.480 C 252.835 274.193,252.447 273.735,252.268 272.841 C 251.937 271.183,250.639 271.140,250.071 272.769 M129.432 274.700 C 129.266 274.865,128.291 275.000,127.265 275.000 L 125.400 275.000 125.137 277.943 C 124.728 282.523,125.202 286.200,126.200 286.200 C 126.926 286.200,127.022 285.855,127.235 282.483 C 127.507 278.172,128.269 276.681,130.301 276.478 C 132.248 276.282,132.800 277.467,132.800 281.840 C 132.800 285.650,133.255 286.771,134.595 286.257 C 135.363 285.963,135.465 278.219,134.722 276.589 C 133.958 274.911,130.471 273.666,129.432 274.700 M155.319 275.184 C 151.886 277.277,151.916 283.941,155.368 286.046 C 157.681 287.456,162.532 286.763,161.899 285.113 C 161.720 284.648,161.205 284.555,159.640 284.706 C 157.042 284.955,155.490 284.082,155.676 282.475 C 155.797 281.424,155.873 281.396,159.116 281.200 C 163.370 280.943,163.886 280.181,162.146 276.724 C 160.960 274.368,157.820 273.659,155.319 275.184 M170.632 274.700 C 170.466 274.865,169.491 275.000,168.465 275.000 L 166.600 275.000 166.492 282.909 C 166.394 289.982,166.453 290.846,167.049 291.074 C 168.021 291.447,168.800 290.140,168.800 288.139 L 168.800 286.430 171.300 286.659 C 177.059 287.186,179.719 278.984,174.995 275.267 C 173.905 274.410,171.267 274.067,170.632 274.700 M182.246 275.235 C 176.565 279.704,182.135 289.753,188.426 286.386 C 190.014 285.536,189.340 284.800,186.974 284.800 C 184.502 284.800,183.433 284.383,182.781 283.165 C 182.027 281.755,182.941 281.200,186.016 281.200 C 189.605 281.200,190.000 281.015,190.000 279.337 C 190.000 275.242,185.359 272.787,182.246 275.235 M197.832 274.700 C 197.666 274.865,196.691 275.000,195.665 275.000 L 193.800 275.000 193.689 280.508 C 193.593 285.249,193.666 286.051,194.216 286.261 C 195.379 286.708,195.783 285.678,195.810 282.193 C 195.845 277.608,197.067 275.878,199.788 276.561 C 201.071 276.883,201.304 277.621,201.569 282.200 C 201.780 285.856,201.869 286.200,202.600 286.200 C 203.575 286.200,204.013 278.764,203.160 276.703 C 202.369 274.793,199.008 273.530,197.832 274.700 M223.689 275.023 C 222.277 276.012,222.638 276.400,224.971 276.400 C 226.984 276.400,228.400 277.039,228.400 277.949 C 228.400 278.589,227.379 279.200,226.307 279.200 C 222.046 279.200,219.755 283.017,222.418 285.680 C 223.560 286.822,223.767 286.881,225.718 286.631 C 226.863 286.484,228.430 286.327,229.200 286.282 L 230.600 286.200 230.717 282.200 C 230.856 277.435,230.693 276.633,229.325 275.366 C 228.080 274.212,225.105 274.031,223.689 275.023 M238.800 274.810 C 238.470 275.029,237.532 275.102,236.716 274.972 C 234.824 274.670,234.730 274.999,234.884 281.395 C 234.989 285.720,235.074 286.204,235.752 286.335 C 236.879 286.551,237.187 285.710,237.194 282.400 C 237.204 278.339,238.026 276.648,240.074 276.477 C 242.091 276.310,242.527 277.229,242.789 282.196 C 242.974 285.696,243.093 286.210,243.752 286.335 C 246.082 286.780,245.717 277.094,243.332 275.218 C 242.221 274.344,239.828 274.129,238.800 274.810 M118.892 275.268 C 118.319 275.841,118.200 285.065,118.754 285.939 C 120.023 287.942,120.600 286.273,120.600 280.600 C 120.600 274.825,120.293 273.867,118.892 275.268 M146.030 277.432 C 148.198 279.740,146.804 284.800,144.000 284.800 C 141.939 284.800,140.459 282.143,140.978 279.375 C 141.524 276.465,144.167 275.449,146.030 277.432 M159.771 277.029 C 161.243 278.500,159.625 279.919,157.031 279.432 C 154.654 278.986,155.481 276.400,158.000 276.400 C 158.629 276.400,159.426 276.683,159.771 277.029 M174.010 277.500 C 175.224 279.038,174.995 282.951,173.626 284.059 C 171.363 285.892,169.140 284.436,168.891 280.959 C 168.677 277.967,169.676 276.400,171.800 276.400 C 172.787 276.400,173.372 276.691,174.010 277.500 M186.869 277.062 C 187.903 277.998,187.777 278.753,186.504 279.236 C 184.796 279.886,182.800 279.361,182.800 278.262 C 182.800 276.433,185.345 275.683,186.869 277.062 M214.609 277.358 C 216.611 280.414,215.327 284.800,212.429 284.800 C 209.825 284.800,208.393 279.447,210.416 277.275 C 211.568 276.038,213.773 276.081,214.609 277.358 M227.626 281.214 C 229.287 282.103,228.039 284.800,225.967 284.800 C 223.098 284.800,222.962 281.779,225.800 281.088 C 226.240 280.981,226.657 280.872,226.726 280.846 C 226.796 280.821,227.201 280.986,227.626 281.214 " stroke="none" fill="#fbfbfb" fill-rule="evenodd"></path><path id="path1" d="M170.643 45.891 C 170.474 46.061,168.955 46.327,167.267 46.482 C 163.088 46.867,157.669 47.783,153.700 48.775 C 152.765 49.009,151.280 49.380,150.400 49.600 C 149.520 49.820,148.125 50.156,147.300 50.347 C 145.910 50.669,135.189 54.293,131.300 55.757 C 129.030 56.610,115.173 63.679,112.400 65.398 C 111.190 66.148,109.358 67.216,108.328 67.773 C 107.299 68.329,106.343 68.969,106.203 69.195 C 106.064 69.421,104.746 70.421,103.275 71.418 C 98.400 74.723,97.582 75.365,91.477 80.681 C 85.281 86.076,75.626 96.375,71.799 101.671 C 69.083 105.431,63.622 113.686,62.331 115.985 C 59.990 120.155,54.851 130.253,54.234 131.897 C 51.645 138.795,50.983 140.620,49.988 143.600 C 47.837 150.042,47.169 152.438,46.362 156.600 C 46.149 157.700,45.792 159.500,45.569 160.600 C 43.777 169.441,43.508 173.169,43.508 189.200 C 43.508 205.271,43.760 208.751,45.582 217.900 C 45.812 219.055,46.169 220.855,46.375 221.900 C 47.220 226.182,47.796 228.208,50.381 236.000 C 51.220 238.530,52.307 241.590,52.795 242.800 C 53.284 244.010,53.934 245.676,54.241 246.502 C 54.861 248.175,61.147 260.613,62.477 262.800 C 65.168 267.223,72.137 277.317,74.164 279.729 C 79.113 285.616,80.663 287.327,84.676 291.332 C 91.349 297.993,94.146 300.463,98.800 303.800 C 99.570 304.352,101.010 305.432,102.000 306.200 C 102.990 306.967,104.845 308.272,106.121 309.098 C 107.398 309.924,109.648 311.386,111.121 312.347 C 113.819 314.107,128.312 321.521,131.100 322.567 C 140.000 325.908,140.627 326.127,144.200 327.144 C 145.740 327.582,147.990 328.248,149.200 328.623 C 150.410 328.998,152.210 329.455,153.200 329.640 C 154.190 329.824,155.990 330.168,157.200 330.405 C 166.650 332.257,169.891 332.492,186.000 332.492 C 203.354 332.492,205.362 332.316,218.800 329.612 C 224.678 328.430,228.684 327.153,240.900 322.567 C 243.688 321.521,258.181 314.107,260.879 312.347 C 262.352 311.386,264.602 309.924,265.879 309.098 C 267.155 308.272,269.010 306.967,270.000 306.200 C 270.990 305.432,272.430 304.352,273.200 303.800 C 277.854 300.463,280.651 297.993,287.324 291.332 C 291.337 287.327,292.887 285.616,297.836 279.729 C 299.863 277.317,306.832 267.223,309.523 262.800 C 310.853 260.613,317.139 248.175,317.759 246.502 C 318.066 245.676,318.717 244.010,319.207 242.800 C 320.506 239.590,323.649 230.444,324.053 228.700 C 324.396 227.219,324.789 225.621,325.630 222.300 C 325.867 221.365,326.227 219.565,326.430 218.300 C 326.634 217.035,326.988 214.875,327.218 213.500 C 328.319 206.908,328.492 203.617,328.492 189.200 C 328.492 174.783,328.319 171.492,327.218 164.900 C 326.988 163.525,326.634 161.365,326.430 160.100 C 326.227 158.835,325.867 157.035,325.630 156.100 C 325.394 155.165,325.028 153.725,324.818 152.900 C 324.608 152.075,324.272 150.680,324.071 149.800 C 323.657 147.989,320.553 138.928,319.207 135.600 C 318.717 134.390,318.066 132.724,317.759 131.898 C 317.139 130.225,310.853 117.787,309.523 115.600 C 308.536 113.978,301.611 103.634,300.197 101.671 C 296.306 96.266,286.897 86.227,280.524 80.681 C 274.407 75.356,273.598 74.721,268.725 71.418 C 267.254 70.421,265.936 69.421,265.797 69.195 C 265.657 68.969,264.701 68.329,263.672 67.773 C 262.642 67.216,260.810 66.148,259.600 65.398 C 256.827 63.679,242.970 56.610,240.700 55.757 C 236.811 54.293,226.090 50.669,224.700 50.347 C 223.004 49.955,220.560 49.357,218.200 48.757 C 215.036 47.952,209.959 47.050,204.600 46.341 C 200.802 45.838,171.089 45.444,170.643 45.891 M195.200 89.076 C 198.242 89.586,200.000 90.574,200.000 91.772 C 200.000 92.689,200.085 92.716,202.308 92.515 C 208.249 91.976,213.328 96.116,215.664 103.400 C 217.767 109.957,217.645 113.200,215.297 113.200 C 214.795 113.200,214.881 113.446,215.682 114.300 C 217.512 116.251,218.800 119.344,218.800 121.787 L 218.800 124.000 220.171 124.000 C 224.409 124.000,225.244 131.568,221.769 138.477 C 218.564 144.851,211.688 149.681,205.858 149.656 C 204.400 149.649,204.327 149.707,204.519 150.724 C 204.808 152.263,206.786 160.370,207.228 161.828 C 207.432 162.504,207.600 163.466,207.600 163.967 C 207.600 164.467,207.869 165.805,208.197 166.938 C 209.139 170.187,209.639 174.793,210.744 190.400 C 210.955 193.370,211.260 197.381,211.424 199.314 C 212.170 208.138,207.186 213.159,196.000 214.856 C 190.017 215.763,188.187 215.863,183.191 215.557 C 172.658 214.910,165.029 212.445,161.648 208.593 L 160.363 207.130 160.551 196.665 C 160.767 184.600,161.067 181.144,162.831 170.400 C 164.131 162.486,164.545 160.513,165.982 155.400 C 166.839 152.351,169.985 144.399,171.600 141.201 L 172.812 138.800 171.855 138.800 C 169.385 138.800,163.860 135.497,159.865 131.633 C 154.271 126.221,151.000 116.713,152.753 110.960 C 152.948 110.322,153.340 108.990,153.626 108.000 C 156.422 98.310,165.828 91.031,177.937 89.185 C 179.113 89.006,180.186 88.747,180.322 88.611 C 180.673 88.261,192.554 88.632,195.200 89.076 M178.067 95.950 C 177.750 96.151,179.596 96.405,182.632 96.578 C 189.749 96.984,191.658 97.332,192.333 98.350 C 192.841 99.115,195.200 97.020,195.200 95.803 C 195.200 95.453,178.628 95.594,178.067 95.950 M180.800 103.656 C 166.697 104.025,162.604 104.858,161.178 107.648 L 160.437 109.095 163.319 109.415 C 166.928 109.816,179.773 109.809,184.730 109.404 C 187.335 109.191,188.595 109.235,188.910 109.550 C 189.709 110.349,190.000 110.035,190.000 108.374 C 190.000 107.479,190.191 106.390,190.425 105.954 C 190.658 105.518,190.793 104.764,190.725 104.280 L 190.600 103.400 180.800 103.656 M188.600 115.534 C 187.524 116.131,183.437 116.499,174.200 116.830 C 173.760 116.846,170.295 116.729,166.500 116.571 C 159.891 116.295,159.600 116.315,159.601 117.041 C 159.605 118.636,161.052 120.292,162.665 120.548 C 170.752 121.833,176.153 122.028,181.800 121.240 C 190.867 119.975,191.605 120.150,191.594 123.562 C 191.587 125.767,191.348 126.201,189.792 126.837 L 188.600 127.325 190.000 127.593 C 190.770 127.741,191.832 128.003,192.361 128.177 C 193.203 128.454,193.277 128.401,192.961 127.746 C 192.503 126.797,192.489 120.029,192.943 119.100 C 193.222 118.529,193.102 118.400,192.292 118.400 C 191.117 118.400,190.392 117.634,190.049 116.031 L 189.800 114.867 188.600 115.534 M183.600 128.000 C 183.264 128.217,179.430 128.390,174.876 128.394 C 169.868 128.398,166.843 128.545,166.987 128.779 C 167.318 129.315,170.760 131.600,171.236 131.600 C 172.086 131.600,174.796 133.245,175.205 134.010 C 175.610 134.766,175.801 134.659,178.224 132.316 C 180.847 129.781,182.848 128.447,184.076 128.417 C 184.448 128.408,184.864 128.220,185.000 128.000 C 185.315 127.491,184.388 127.491,183.600 128.000 M216.730 213.235 C 217.994 213.676,219.600 215.752,219.600 216.946 C 219.600 219.136,212.577 224.175,207.600 225.555 C 206.610 225.830,205.247 226.222,204.572 226.427 C 201.449 227.375,195.976 226.650,195.192 225.184 C 194.159 223.256,195.136 219.357,196.700 219.163 C 196.865 219.142,198.620 219.075,200.600 219.014 C 205.233 218.871,207.263 218.253,210.112 216.120 C 211.897 214.783,215.077 212.800,215.434 212.800 C 215.460 212.800,216.043 212.996,216.730 213.235 M163.935 214.639 C 164.437 214.991,165.328 216.294,165.916 217.535 C 167.266 220.386,171.948 225.357,174.501 226.651 C 178.911 228.886,176.702 235.251,172.080 233.626 C 166.022 231.495,157.147 220.655,158.159 216.621 C 158.650 214.666,162.222 213.440,163.935 214.639 M141.371 237.829 C 141.839 238.296,142.002 239.298,142.010 241.729 C 142.015 243.528,142.193 245.720,142.405 246.600 C 142.671 247.700,142.646 248.785,142.327 250.073 C 141.981 251.468,141.972 253.203,142.293 256.867 C 142.857 263.309,142.182 264.800,138.702 264.800 C 136.086 264.800,135.188 262.934,135.526 258.200 C 135.573 257.540,135.499 254.939,135.361 252.419 L 135.111 247.839 134.239 250.019 C 133.759 251.219,133.128 253.010,132.836 254.000 C 132.293 255.846,131.251 258.817,130.032 262.000 C 128.330 266.444,122.391 265.739,121.000 260.928 C 120.630 259.648,119.508 256.260,118.507 253.400 C 115.533 244.903,115.738 242.800,119.540 242.800 C 122.325 242.800,122.898 243.414,124.373 247.978 C 125.088 250.190,125.813 252.000,125.984 252.000 C 126.325 252.000,128.400 245.999,128.400 245.014 C 128.400 243.027,132.655 241.983,134.756 243.454 L 135.690 244.108 135.420 242.146 C 135.144 240.136,135.634 238.081,136.525 237.514 C 137.405 236.955,140.712 237.169,141.371 237.829 M159.056 242.800 C 163.788 242.800,163.600 242.296,163.600 254.967 C 163.600 267.873,163.288 268.920,158.562 271.876 C 157.865 272.312,157.899 272.355,158.953 272.376 C 160.360 272.405,162.485 273.669,163.570 275.122 C 164.325 276.134,164.375 276.147,164.387 275.344 C 164.447 271.331,175.759 271.253,177.827 275.252 L 178.471 276.497 179.671 275.040 C 182.579 271.513,187.663 271.383,190.507 274.762 L 191.509 275.954 191.741 274.795 C 192.081 273.097,193.738 272.126,195.294 272.713 C 196.098 273.016,196.750 273.041,197.227 272.785 C 199.632 271.499,203.388 272.932,204.732 275.649 L 205.539 277.279 206.134 276.139 C 207.300 273.906,209.065 272.636,211.316 272.410 L 213.400 272.200 213.889 270.200 C 214.686 266.946,216.735 265.898,218.618 267.782 C 219.564 268.728,219.600 268.963,219.600 274.182 C 219.600 279.710,219.672 279.976,220.909 279.036 C 221.571 278.534,221.575 278.420,220.971 277.349 C 219.543 274.816,222.309 272.400,226.637 272.400 C 229.629 272.400,232.396 274.821,232.406 277.447 C 232.409 278.301,232.587 279.270,232.800 279.600 C 233.070 280.018,233.190 279.314,233.194 277.282 C 233.203 273.029,233.726 272.602,239.066 272.484 C 242.933 272.399,243.193 272.446,244.378 273.443 L 245.624 274.491 246.593 273.446 C 247.126 272.871,247.731 272.400,247.938 272.400 C 248.144 272.400,248.418 271.981,248.547 271.469 C 249.077 269.357,252.322 268.996,253.658 270.900 C 254.160 271.615,254.747 272.272,254.963 272.359 C 257.872 273.541,257.832 277.286,254.900 278.180 C 253.273 278.675,253.921 283.200,255.619 283.200 C 255.819 283.200,256.276 283.649,256.635 284.197 C 258.872 287.612,252.955 290.024,249.694 287.027 L 248.200 285.653 248.200 281.937 C 248.200 278.718,248.106 278.202,247.500 278.081 C 246.866 277.954,246.800 278.374,246.800 282.542 C 246.800 287.815,246.520 288.400,244.000 288.400 C 242.756 288.400,241.737 287.925,241.151 287.071 C 241.124 287.032,240.989 285.124,240.851 282.832 C 240.711 280.508,240.415 278.602,240.181 278.526 C 239.628 278.343,238.705 282.882,239.031 284.182 C 239.634 286.585,238.329 288.400,236.000 288.400 C 234.202 288.400,233.216 287.592,233.161 286.071 C 233.125 285.076,233.079 285.107,232.504 286.507 C 231.824 288.165,231.648 288.236,227.395 288.569 C 224.028 288.832,221.909 288.319,220.861 286.986 C 219.896 285.760,219.747 285.759,219.442 286.973 C 219.129 288.224,218.623 288.359,213.800 288.487 C 209.226 288.608,207.862 288.092,206.608 285.764 C 205.782 284.229,205.200 284.324,205.200 285.995 C 205.200 287.525,204.244 288.400,202.571 288.400 C 200.097 288.400,199.600 287.434,199.600 282.624 C 199.600 278.374,199.320 277.490,198.345 278.667 C 197.972 279.118,197.834 280.213,197.909 282.130 C 198.125 287.710,195.476 290.312,192.553 287.389 L 191.542 286.378 190.385 287.351 C 189.293 288.270,186.522 289.070,185.200 288.848 C 182.825 288.450,181.363 287.763,180.006 286.406 L 178.454 284.854 177.374 286.269 C 176.145 287.882,174.271 288.800,172.213 288.800 C 170.963 288.800,170.800 288.918,170.800 289.826 C 170.800 292.017,168.792 293.717,166.681 293.313 C 164.750 292.944,164.400 291.923,164.400 286.662 C 164.400 282.630,164.314 281.973,163.841 282.366 C 163.408 282.726,163.376 283.083,163.702 283.945 C 165.596 288.964,156.891 290.753,152.859 286.172 C 151.019 284.082,150.885 284.035,151.109 285.560 C 151.347 287.183,150.059 288.399,148.100 288.403 C 147.275 288.404,145.401 288.519,143.935 288.657 L 141.271 288.909 139.235 286.874 C 137.748 285.386,137.200 285.034,137.200 285.565 C 137.200 286.829,135.650 288.400,134.404 288.400 C 131.567 288.400,130.800 287.043,130.800 282.020 C 130.800 279.961,130.634 278.400,130.414 278.400 C 129.607 278.400,129.200 280.067,129.200 283.374 C 129.200 287.382,128.592 288.400,126.200 288.400 C 124.818 288.400,123.200 287.299,123.200 286.358 C 123.200 286.114,122.678 286.474,122.040 287.158 C 120.570 288.731,118.794 288.830,117.382 287.418 C 116.184 286.220,115.871 276.583,116.962 274.473 C 117.446 273.538,117.446 273.277,116.962 272.616 C 115.458 270.558,117.030 267.600,119.629 267.600 C 122.243 267.600,123.660 270.046,122.405 272.391 C 122.130 272.905,122.173 273.521,122.549 274.413 L 123.088 275.696 123.512 274.479 C 124.661 271.184,134.208 271.720,136.261 275.195 C 137.135 276.675,137.206 276.672,138.200 275.122 C 139.247 273.491,141.368 272.400,143.494 272.400 L 145.200 272.400 145.200 270.644 C 145.200 267.477,146.388 266.799,153.106 266.134 C 156.836 265.764,156.654 264.593,152.863 264.575 C 146.635 264.546,143.513 261.018,143.513 254.008 C 143.513 246.119,147.472 241.965,154.356 242.630 C 155.322 242.724,157.437 242.800,159.056 242.800 M181.144 243.571 C 182.953 244.494,184.125 246.362,184.528 248.965 C 184.662 249.826,184.948 250.708,185.163 250.923 C 185.540 251.300,185.626 251.071,186.242 248.064 C 186.596 246.332,190.019 243.371,192.299 242.824 C 198.215 241.405,202.950 243.789,204.490 248.960 L 204.978 250.600 205.189 247.464 C 205.461 243.417,206.148 242.724,209.765 242.851 C 211.104 242.898,213.050 242.792,214.089 242.615 C 216.652 242.180,218.224 242.854,218.814 244.641 C 219.347 246.258,219.575 246.304,220.770 245.032 C 225.037 240.490,233.801 241.962,237.476 247.838 C 237.882 248.487,237.956 248.289,237.976 246.500 C 238.018 242.828,238.827 242.549,249.200 242.629 C 252.746 242.656,254.937 243.933,256.418 246.834 C 257.229 248.425,257.628 262.340,256.894 263.440 C 255.850 265.003,252.922 265.211,251.322 263.835 L 250.200 262.871 250.000 256.420 C 249.795 249.810,249.639 249.224,248.074 249.206 C 245.895 249.181,245.111 251.391,244.994 257.879 C 244.898 263.256,244.719 263.740,242.485 264.674 C 241.337 265.154,240.994 265.140,239.781 264.564 C 238.327 263.874,238.080 263.335,237.905 260.470 L 237.800 258.740 236.371 260.870 C 231.754 267.753,221.251 266.210,217.987 258.168 C 217.132 256.061,216.981 251.157,217.724 249.597 C 217.962 249.097,217.707 249.018,216.233 249.135 C 213.158 249.379,212.403 251.155,212.394 258.160 C 212.387 263.661,212.348 263.771,210.159 264.544 C 208.768 265.035,208.367 265.034,207.188 264.538 C 205.291 263.741,205.213 263.517,205.206 258.871 L 205.200 254.742 204.146 255.571 C 203.213 256.305,202.542 256.400,198.313 256.400 C 193.203 256.400,192.655 256.686,195.068 258.096 C 196.227 258.772,196.366 258.768,198.794 257.971 C 202.928 256.614,204.985 258.469,203.442 262.162 C 201.043 267.903,187.531 265.293,186.160 258.824 C 185.591 256.141,185.253 256.294,185.227 259.246 C 185.188 263.634,183.087 265.779,179.892 264.693 C 178.100 264.084,177.830 263.099,177.940 257.600 C 178.066 251.352,177.553 249.463,175.678 249.276 C 173.763 249.085,173.100 250.964,172.961 256.972 C 172.800 263.941,171.957 265.278,168.172 264.568 C 165.393 264.047,165.200 263.357,165.200 253.926 C 165.200 243.063,165.527 242.361,170.333 242.910 C 171.360 243.027,172.920 242.971,173.800 242.785 C 176.163 242.285,179.277 242.619,181.144 243.571 M152.577 249.506 C 150.565 250.903,150.096 255.333,151.782 257.018 C 153.994 259.230,156.400 257.515,156.400 253.726 C 156.400 250.122,154.581 248.114,152.577 249.506 M195.600 249.600 C 195.600 249.820,195.971 250.000,196.424 250.000 C 196.877 250.000,197.136 249.820,197.000 249.600 C 196.864 249.380,196.493 249.200,196.176 249.200 C 195.859 249.200,195.600 249.380,195.600 249.600 M225.371 250.772 C 222.959 254.417,226.517 260.111,229.661 257.638 C 232.681 255.262,231.304 249.200,227.744 249.200 C 226.636 249.200,226.236 249.466,225.371 250.772 M151.600 274.231 L 151.600 276.061 152.618 274.852 C 153.177 274.187,154.032 273.511,154.518 273.351 C 155.394 273.061,155.393 273.057,154.400 272.769 C 151.961 272.063,151.600 272.252,151.600 274.231 M170.975 278.521 C 170.512 279.728,170.975 282.588,171.654 282.717 C 172.642 282.904,173.342 280.599,172.697 279.278 C 172.105 278.064,171.288 277.705,170.975 278.521 M211.775 278.521 C 211.303 279.750,211.775 282.588,212.473 282.721 C 213.576 282.930,214.075 281.489,213.499 279.759 C 212.964 278.154,212.142 277.564,211.775 278.521 M143.223 278.972 C 142.315 280.067,142.857 282.600,144.000 282.600 C 144.870 282.600,145.016 282.402,145.126 281.072 C 145.242 279.656,144.713 278.400,144.000 278.400 C 143.834 278.400,143.484 278.657,143.223 278.972 M232.558 281.825 C 232.416 282.389,232.491 283.244,232.723 283.725 C 233.086 284.475,233.150 284.329,233.173 282.700 C 233.203 280.603,232.954 280.248,232.558 281.825 M190.839 282.553 C 190.485 282.980,190.519 283.160,190.990 283.341 C 191.409 283.502,191.600 283.329,191.600 282.787 C 191.600 281.855,191.455 281.810,190.839 282.553 " stroke="none" fill="#000000" fill-rule="evenodd"></path><path id="path2" d="M180.322 88.611 C 180.186 88.747,179.113 89.006,177.937 89.185 C 165.828 91.031,156.422 98.310,153.626 108.000 C 153.340 108.990,152.948 110.322,152.753 110.960 C 151.000 116.713,154.271 126.221,159.865 131.633 C 163.860 135.497,169.385 138.800,171.855 138.800 L 172.812 138.800 171.600 141.201 C 169.985 144.399,166.839 152.351,165.982 155.400 C 164.545 160.513,164.131 162.486,162.831 170.400 C 161.067 181.144,160.767 184.600,160.551 196.665 L 160.363 207.130 161.648 208.593 C 165.029 212.445,172.658 214.910,183.191 215.557 C 192.002 216.097,198.021 215.063,205.000 211.810 C 210.397 209.294,212.003 206.170,211.424 199.314 C 211.260 197.381,210.955 193.370,210.744 190.400 C 209.639 174.793,209.139 170.187,208.197 166.938 C 207.869 165.805,207.600 164.467,207.600 163.967 C 207.600 163.466,207.432 162.504,207.228 161.828 C 206.786 160.370,204.808 152.263,204.519 150.724 C 204.327 149.707,204.400 149.649,205.858 149.656 C 211.688 149.681,218.564 144.851,221.769 138.477 C 225.244 131.568,224.409 124.000,220.171 124.000 L 218.800 124.000 218.800 121.787 C 218.800 119.344,217.512 116.251,215.682 114.300 C 214.881 113.446,214.795 113.200,215.297 113.200 C 217.645 113.200,217.767 109.957,215.664 103.400 C 213.328 96.116,208.249 91.976,202.308 92.515 C 200.085 92.716,200.000 92.689,200.000 91.772 C 200.000 90.574,198.242 89.586,195.200 89.076 C 192.554 88.632,180.673 88.261,180.322 88.611 M194.250 90.838 C 197.264 91.363,197.951 91.959,196.771 93.026 C 196.015 93.711,195.296 93.764,188.272 93.662 C 178.603 93.522,173.357 94.542,168.700 97.468 C 166.240 99.013,166.733 99.315,171.100 98.937 C 178.123 98.330,189.497 98.526,190.239 99.267 C 192.144 101.173,190.806 101.502,180.308 101.710 C 163.860 102.035,158.435 104.016,158.404 109.710 C 158.395 111.340,168.071 112.170,179.656 111.532 C 183.616 111.314,187.113 111.235,187.428 111.355 C 188.315 111.696,188.127 113.504,187.149 114.027 C 185.932 114.678,168.035 115.003,162.817 114.469 C 159.840 114.164,158.485 114.164,158.117 114.469 C 157.022 115.378,157.933 120.480,159.354 121.400 C 162.036 123.134,174.248 124.130,181.600 123.214 C 189.526 122.227,189.083 122.233,189.545 123.098 C 190.284 124.478,189.306 125.151,185.600 125.813 C 178.978 126.997,166.143 126.951,162.965 125.731 C 162.654 125.612,162.285 125.835,162.131 126.235 C 161.714 127.322,165.917 130.922,169.915 132.903 C 172.901 134.383,173.227 134.654,173.119 135.575 C 172.610 139.952,160.558 131.845,156.952 124.700 C 147.074 105.125,167.871 86.244,194.250 90.838 M206.094 94.876 C 210.464 96.185,215.200 103.771,215.200 109.460 C 215.200 111.252,214.929 111.297,211.987 109.990 C 205.672 107.184,199.370 108.476,194.757 113.523 C 192.115 116.414,191.598 116.182,191.606 112.113 C 191.627 100.781,198.503 92.601,206.094 94.876 M195.200 95.803 C 195.200 97.020,192.841 99.115,192.333 98.350 C 191.658 97.332,189.749 96.984,182.632 96.578 C 179.596 96.405,177.750 96.151,178.067 95.950 C 178.628 95.594,195.200 95.453,195.200 95.803 M190.425 105.954 C 190.191 106.390,190.000 107.479,190.000 108.374 C 190.000 110.035,189.709 110.349,188.910 109.550 C 188.595 109.235,187.335 109.191,184.730 109.404 C 179.773 109.809,166.928 109.816,163.319 109.415 L 160.437 109.095 161.178 107.648 C 162.604 104.858,166.697 104.025,180.800 103.656 L 190.600 103.400 190.725 104.280 C 190.793 104.764,190.658 105.518,190.425 105.954 M210.751 112.975 C 219.711 117.516,218.926 130.703,209.508 133.830 C 200.280 136.896,191.785 128.312,195.008 119.178 C 197.226 112.892,204.742 109.930,210.751 112.975 M190.798 117.798 C 191.073 118.129,191.745 118.400,192.292 118.400 C 193.102 118.400,193.222 118.529,192.943 119.100 C 192.489 120.029,192.503 126.797,192.961 127.746 C 193.277 128.401,193.203 128.454,192.361 128.177 C 191.832 128.003,190.770 127.741,190.000 127.593 L 188.600 127.325 189.792 126.837 C 191.348 126.201,191.587 125.767,191.594 123.562 C 191.605 120.150,190.867 119.975,181.800 121.240 C 176.153 122.028,170.752 121.833,162.665 120.548 C 161.052 120.292,159.605 118.636,159.601 117.041 C 159.600 116.315,159.891 116.295,166.500 116.571 C 170.295 116.729,173.760 116.846,174.200 116.830 C 183.437 116.499,187.524 116.131,188.600 115.534 L 189.800 114.867 190.049 116.031 C 190.186 116.671,190.523 117.466,190.798 117.798 M221.536 127.819 C 224.953 135.318,215.013 147.173,204.700 147.897 C 201.174 148.144,201.069 148.294,202.342 151.267 C 206.806 161.692,211.445 203.192,208.577 207.041 C 202.075 215.769,170.778 215.970,163.194 207.333 C 160.132 203.845,163.240 171.358,168.196 155.054 C 174.719 133.593,186.106 124.021,194.732 132.747 C 202.486 140.591,214.380 138.879,218.974 129.258 C 220.253 126.578,220.824 126.257,221.536 127.819 M185.000 128.000 C 184.864 128.220,184.448 128.408,184.076 128.417 C 182.848 128.447,180.847 129.781,178.224 132.316 C 175.801 134.659,175.610 134.766,175.205 134.010 C 174.796 133.245,172.086 131.600,171.236 131.600 C 170.760 131.600,167.318 129.315,166.987 128.779 C 166.843 128.545,169.868 128.398,174.876 128.394 C 179.430 128.390,183.264 128.217,183.600 128.000 C 184.388 127.491,185.315 127.491,185.000 128.000 M213.906 213.595 C 213.090 214.032,211.383 215.168,210.112 216.120 C 207.263 218.253,205.233 218.871,200.600 219.014 C 198.620 219.075,196.865 219.142,196.700 219.163 C 195.136 219.357,194.159 223.256,195.192 225.184 C 195.976 226.650,201.449 227.375,204.572 226.427 C 205.247 226.222,206.610 225.830,207.600 225.555 C 212.577 224.175,219.600 219.136,219.600 216.946 C 219.600 215.346,217.042 212.800,215.434 212.800 C 215.409 212.800,214.721 213.158,213.906 213.595 M159.906 214.824 C 157.969 215.847,157.667 217.055,158.716 219.580 C 161.930 227.313,170.954 235.334,174.582 233.681 C 177.753 232.236,177.708 228.276,174.501 226.651 C 171.948 225.357,167.266 220.386,165.916 217.535 C 164.241 213.998,162.747 213.324,159.906 214.824 M216.720 215.680 C 217.620 216.580,217.202 217.536,215.100 219.388 C 209.027 224.736,196.368 226.953,196.866 222.580 L 197.000 221.400 200.672 221.142 C 206.059 220.762,209.310 219.515,213.191 216.339 C 214.669 215.129,215.933 214.893,216.720 215.680 M164.499 218.932 C 166.145 222.028,169.879 226.043,172.656 227.705 C 174.862 229.024,175.195 229.715,174.367 231.261 C 172.972 233.869,164.471 226.893,161.351 220.580 C 159.868 217.579,159.866 216.973,161.341 216.425 C 162.655 215.936,163.091 216.282,164.499 218.932 M136.525 237.514 C 135.634 238.081,135.144 240.136,135.420 242.146 L 135.690 244.108 134.756 243.454 C 132.655 241.983,128.400 243.027,128.400 245.014 C 128.400 245.999,126.325 252.000,125.984 252.000 C 125.813 252.000,125.088 250.190,124.373 247.978 C 122.898 243.414,122.325 242.800,119.540 242.800 C 115.738 242.800,115.533 244.903,118.507 253.400 C 119.508 256.260,120.630 259.648,121.000 260.928 C 122.391 265.739,128.330 266.444,130.032 262.000 C 131.251 258.817,132.293 255.846,132.836 254.000 C 133.128 253.010,133.759 251.219,134.239 250.019 L 135.111 247.839 135.361 252.419 C 135.499 254.939,135.573 257.540,135.526 258.200 C 135.188 262.934,136.086 264.800,138.702 264.800 C 142.182 264.800,142.857 263.309,142.293 256.867 C 141.972 253.203,141.981 251.468,142.327 250.073 C 142.646 248.785,142.671 247.700,142.405 246.600 C 142.193 245.720,142.015 243.528,142.010 241.729 C 141.998 237.776,141.597 237.197,138.871 237.206 C 137.842 237.209,136.786 237.348,136.525 237.514 M140.200 241.000 C 140.200 242.498,140.126 242.600,139.044 242.600 C 137.637 242.600,136.989 241.694,137.355 240.238 C 137.849 238.267,140.200 238.897,140.200 241.000 M151.000 242.755 C 146.036 243.668,143.513 247.460,143.513 254.008 C 143.513 261.018,146.635 264.546,152.863 264.575 C 156.654 264.593,156.836 265.764,153.106 266.134 C 146.388 266.799,145.200 267.477,145.200 270.644 L 145.200 272.400 143.494 272.400 C 141.368 272.400,139.247 273.491,138.200 275.122 C 137.206 276.672,137.135 276.675,136.261 275.195 C 134.208 271.720,124.661 271.184,123.512 274.479 L 123.088 275.696 122.549 274.413 C 122.173 273.521,122.130 272.905,122.405 272.391 C 123.660 270.046,122.243 267.600,119.629 267.600 C 117.030 267.600,115.458 270.558,116.962 272.616 C 117.446 273.277,117.446 273.538,116.962 274.473 C 115.871 276.583,116.184 286.220,117.382 287.418 C 118.794 288.830,120.570 288.731,122.040 287.158 C 122.678 286.474,123.200 286.114,123.200 286.358 C 123.200 287.299,124.818 288.400,126.200 288.400 C 128.592 288.400,129.200 287.382,129.200 283.374 C 129.200 280.067,129.607 278.400,130.414 278.400 C 130.634 278.400,130.800 279.961,130.800 282.020 C 130.800 287.043,131.567 288.400,134.404 288.400 C 135.650 288.400,137.200 286.829,137.200 285.565 C 137.200 285.034,137.748 285.386,139.235 286.874 L 141.271 288.909 143.935 288.657 C 145.401 288.519,147.275 288.404,148.100 288.403 C 150.059 288.399,151.347 287.183,151.109 285.560 C 150.885 284.035,151.019 284.082,152.859 286.172 C 156.891 290.753,165.596 288.964,163.702 283.945 C 163.376 283.083,163.408 282.726,163.841 282.366 C 164.314 281.973,164.400 282.630,164.400 286.662 C 164.400 291.923,164.750 292.944,166.681 293.313 C 168.792 293.717,170.800 292.017,170.800 289.826 C 170.800 288.918,170.963 288.800,172.213 288.800 C 174.271 288.800,176.145 287.882,177.374 286.269 L 178.454 284.854 180.006 286.406 C 181.363 287.763,182.825 288.450,185.200 288.848 C 186.522 289.070,189.293 288.270,190.385 287.351 L 191.542 286.378 192.553 287.389 C 195.476 290.312,198.125 287.710,197.909 282.130 C 197.834 280.213,197.972 279.118,198.345 278.667 C 199.320 277.490,199.600 278.374,199.600 282.624 C 199.600 287.434,200.097 288.400,202.571 288.400 C 204.244 288.400,205.200 287.525,205.200 285.995 C 205.200 284.324,205.782 284.229,206.608 285.764 C 207.862 288.092,209.226 288.608,213.800 288.487 C 218.623 288.359,219.129 288.224,219.442 286.973 C 219.747 285.759,219.896 285.760,220.861 286.986 C 221.909 288.319,224.028 288.832,227.395 288.569 C 231.648 288.236,231.824 288.165,232.504 286.507 C 233.079 285.107,233.125 285.076,233.161 286.071 C 233.216 287.592,234.202 288.400,236.000 288.400 C 238.329 288.400,239.634 286.585,239.031 284.182 C 238.705 282.882,239.628 278.343,240.181 278.526 C 240.415 278.602,240.711 280.508,240.851 282.832 C 240.989 285.124,241.124 287.032,241.151 287.071 C 241.737 287.925,242.756 288.400,244.000 288.400 C 246.520 288.400,246.800 287.815,246.800 282.542 C 246.800 278.374,246.866 277.954,247.500 278.081 C 248.106 278.202,248.200 278.718,248.200 281.937 L 248.200 285.653 249.694 287.027 C 252.955 290.024,258.872 287.612,256.635 284.197 C 256.276 283.649,255.819 283.200,255.619 283.200 C 253.921 283.200,253.273 278.675,254.900 278.180 C 257.832 277.286,257.872 273.541,254.963 272.359 C 254.747 272.272,254.160 271.615,253.658 270.900 C 252.322 268.996,249.077 269.357,248.547 271.469 C 248.418 271.981,248.144 272.400,247.938 272.400 C 247.731 272.400,247.126 272.871,246.593 273.446 L 245.624 274.491 244.378 273.443 C 243.193 272.446,242.933 272.399,239.066 272.484 C 233.726 272.602,233.203 273.029,233.194 277.282 C 233.190 279.314,233.070 280.018,232.800 279.600 C 232.587 279.270,232.409 278.301,232.406 277.447 C 232.396 274.821,229.629 272.400,226.637 272.400 C 222.309 272.400,219.543 274.816,220.971 277.349 C 221.575 278.420,221.571 278.534,220.909 279.036 C 219.672 279.976,219.600 279.710,219.600 274.182 C 219.600 268.963,219.564 268.728,218.618 267.782 C 216.735 265.898,214.686 266.946,213.889 270.200 L 213.400 272.200 211.316 272.410 C 209.065 272.636,207.300 273.906,206.134 276.139 L 205.539 277.279 204.732 275.649 C 203.388 272.932,199.632 271.499,197.227 272.785 C 196.750 273.041,196.098 273.016,195.294 272.713 C 193.738 272.126,192.081 273.097,191.741 274.795 L 191.509 275.954 190.507 274.762 C 187.663 271.383,182.579 271.513,179.671 275.040 L 178.471 276.497 177.827 275.252 C 175.759 271.253,164.447 271.331,164.387 275.344 C 164.375 276.147,164.325 276.134,163.570 275.122 C 162.485 273.669,160.360 272.405,158.953 272.376 C 157.899 272.355,157.865 272.312,158.562 271.876 C 163.288 268.920,163.600 267.873,163.600 254.967 C 163.600 242.296,163.788 242.800,159.056 242.800 C 157.437 242.800,155.322 242.724,154.356 242.630 C 153.390 242.537,151.880 242.593,151.000 242.755 M173.800 242.785 C 172.920 242.971,171.360 243.027,170.333 242.910 C 165.527 242.361,165.200 243.063,165.200 253.926 C 165.200 263.357,165.393 264.047,168.172 264.568 C 171.957 265.278,172.800 263.941,172.961 256.972 C 173.100 250.964,173.763 249.085,175.678 249.276 C 177.553 249.463,178.066 251.352,177.940 257.600 C 177.830 263.099,178.100 264.084,179.892 264.693 C 183.087 265.779,185.188 263.634,185.227 259.246 C 185.253 256.294,185.591 256.141,186.160 258.824 C 187.531 265.293,201.043 267.903,203.442 262.162 C 204.985 258.469,202.928 256.614,198.794 257.971 C 196.366 258.768,196.227 258.772,195.068 258.096 C 192.655 256.686,193.203 256.400,198.313 256.400 C 202.542 256.400,203.213 256.305,204.146 255.571 L 205.200 254.742 205.206 258.871 C 205.213 263.517,205.291 263.741,207.188 264.538 C 208.367 265.034,208.768 265.035,210.159 264.544 C 212.348 263.771,212.387 263.661,212.394 258.160 C 212.403 251.155,213.158 249.379,216.233 249.135 C 217.707 249.018,217.962 249.097,217.724 249.597 C 216.981 251.157,217.132 256.061,217.987 258.168 C 221.251 266.210,231.754 267.753,236.371 260.870 L 237.800 258.740 237.905 260.470 C 238.080 263.335,238.327 263.874,239.781 264.564 C 240.994 265.140,241.337 265.154,242.485 264.674 C 244.719 263.740,244.898 263.256,244.994 257.879 C 245.111 251.391,245.895 249.181,248.074 249.206 C 249.639 249.224,249.795 249.810,250.000 256.420 L 250.200 262.871 251.322 263.835 C 252.922 265.211,255.850 265.003,256.894 263.440 C 257.628 262.340,257.229 248.425,256.418 246.834 C 254.937 243.933,252.746 242.656,249.200 242.629 C 238.827 242.549,238.018 242.828,237.976 246.500 C 237.956 248.289,237.882 248.487,237.476 247.838 C 233.801 241.962,225.037 240.490,220.770 245.032 C 219.575 246.304,219.347 246.258,218.814 244.641 C 218.224 242.854,216.652 242.180,214.089 242.615 C 213.050 242.792,211.104 242.898,209.765 242.851 C 206.148 242.724,205.461 243.417,205.189 247.464 L 204.978 250.600 204.490 248.960 C 202.950 243.789,198.215 241.405,192.299 242.824 C 190.019 243.371,186.596 246.332,186.242 248.064 C 185.626 251.071,185.540 251.300,185.163 250.923 C 184.948 250.708,184.662 249.826,184.528 248.965 C 183.761 244.012,179.529 241.574,173.800 242.785 M231.491 244.865 C 235.600 246.109,238.122 253.261,236.053 257.800 C 231.867 266.984,219.200 263.933,219.200 253.741 C 219.200 246.686,224.607 242.780,231.491 244.865 M139.977 244.973 C 140.493 245.594,140.715 261.566,140.219 262.369 C 139.862 262.947,138.277 262.917,137.680 262.320 C 136.816 261.456,137.019 245.345,137.900 244.832 C 138.871 244.267,139.422 244.304,139.977 244.973 M156.818 245.054 C 158.037 245.542,158.568 245.592,158.906 245.254 C 159.648 244.512,161.134 244.729,161.627 245.651 C 162.260 246.834,161.928 264.538,161.242 266.200 C 160.118 268.922,157.173 270.776,153.949 270.791 C 150.392 270.808,150.253 268.435,153.781 267.928 C 156.482 267.540,158.400 265.496,158.400 263.007 C 158.400 261.663,157.697 261.433,155.892 262.187 C 149.888 264.696,144.507 259.763,145.357 252.531 C 146.126 245.982,151.073 242.755,156.818 245.054 M179.822 245.037 C 183.504 246.784,184.986 262.800,181.466 262.800 C 179.784 262.800,179.600 262.160,179.600 256.307 C 179.600 249.024,178.848 247.200,175.845 247.200 C 172.316 247.200,171.104 249.541,170.876 256.800 C 170.700 262.400,170.573 262.783,168.890 262.794 C 167.467 262.803,167.200 261.381,167.200 253.800 C 167.200 244.914,167.823 243.434,170.784 245.283 C 171.406 245.672,171.814 245.638,172.878 245.108 C 174.586 244.259,178.107 244.223,179.822 245.037 M199.880 245.428 C 201.297 246.457,202.722 249.267,203.011 251.600 C 203.368 254.476,203.184 254.573,196.915 254.800 L 191.400 255.000 191.275 256.079 C 190.918 259.177,195.023 260.934,200.041 259.831 C 201.779 259.449,202.390 260.344,201.412 261.838 C 200.196 263.693,193.663 263.742,190.904 261.916 C 185.695 258.469,186.190 247.843,191.689 245.043 C 193.564 244.088,198.346 244.313,199.880 245.428 M216.600 245.782 C 216.600 246.837,216.430 247.000,215.020 247.292 C 211.622 247.999,210.749 249.883,210.433 257.200 L 210.200 262.600 208.800 262.600 L 207.400 262.600 207.400 253.800 L 207.400 245.000 208.360 244.864 C 208.888 244.790,209.719 244.943,210.208 245.204 C 210.924 245.587,211.320 245.557,212.248 245.046 C 214.242 243.948,216.600 244.348,216.600 245.782 M253.196 245.796 C 256.538 248.998,255.936 265.168,252.578 262.382 C 252.125 262.006,252.000 260.702,252.000 256.338 C 252.000 248.994,251.255 247.200,248.206 247.200 C 244.624 247.200,243.466 249.360,243.272 256.400 C 243.113 262.157,242.870 262.910,241.234 262.720 C 240.039 262.581,239.595 257.714,240.000 249.200 L 240.200 245.000 241.335 244.870 C 241.960 244.799,242.770 245.008,243.135 245.336 C 243.727 245.866,243.954 245.847,245.200 245.161 C 247.446 243.924,251.585 244.252,253.196 245.796 M123.252 250.950 C 125.972 259.523,125.812 259.520,128.603 251.067 L 130.606 245.000 131.906 244.874 C 133.896 244.682,133.839 245.210,130.973 253.620 C 127.697 263.231,127.925 262.801,126.086 262.794 C 123.841 262.785,123.819 262.749,120.793 254.009 C 117.701 245.079,117.663 244.690,119.879 244.876 L 121.365 245.000 123.252 250.950 M150.771 248.431 C 146.985 252.484,149.035 260.000,153.926 260.000 C 156.465 260.000,158.400 257.232,158.400 253.600 C 158.400 248.205,153.857 245.128,150.771 248.431 M192.369 248.369 C 191.092 249.646,190.819 251.368,191.833 251.757 C 193.385 252.353,198.763 252.016,199.139 251.300 C 200.700 248.321,194.920 245.818,192.369 248.369 M225.644 247.758 C 221.954 249.804,221.895 257.548,225.553 259.709 C 229.232 261.882,233.200 258.816,233.200 253.800 C 233.200 248.908,229.258 245.755,225.644 247.758 M155.790 250.380 C 157.316 253.332,156.069 258.000,153.753 258.000 C 150.492 258.000,149.602 251.572,152.577 249.506 C 153.624 248.779,155.181 249.202,155.790 250.380 M197.000 249.600 C 197.136 249.820,196.877 250.000,196.424 250.000 C 195.971 250.000,195.600 249.820,195.600 249.600 C 195.600 249.380,195.859 249.200,196.176 249.200 C 196.493 249.200,196.864 249.380,197.000 249.600 M229.690 249.900 C 231.917 252.440,231.904 255.873,229.661 257.638 C 226.517 260.111,222.959 254.417,225.371 250.772 C 226.551 248.988,228.539 248.587,229.690 249.900 M149.357 269.833 C 149.676 270.663,149.605 281.631,149.265 284.200 L 149.000 286.200 147.400 286.252 C 146.520 286.280,145.128 286.438,144.307 286.603 C 140.188 287.430,137.181 282.507,138.960 277.849 C 140.009 275.102,140.810 274.600,144.143 274.600 L 147.000 274.600 147.111 272.400 C 147.269 269.269,148.570 267.781,149.357 269.833 M217.757 269.833 C 218.106 270.741,218.046 285.309,217.691 285.866 C 217.528 286.122,216.676 286.326,215.797 286.319 C 214.919 286.312,213.390 286.435,212.400 286.592 C 209.368 287.074,207.106 284.537,207.066 280.610 C 207.024 276.363,209.140 274.224,213.148 274.465 L 215.400 274.600 215.604 272.400 C 215.881 269.414,217.058 268.011,217.757 269.833 M120.721 270.649 C 120.875 271.728,119.675 272.246,118.874 271.446 C 118.059 270.631,118.579 269.513,119.698 269.672 C 120.259 269.752,120.646 270.121,120.721 270.649 M252.268 272.841 C 252.447 273.735,252.835 274.193,253.658 274.480 C 255.148 275.000,255.114 275.932,253.586 276.465 L 252.371 276.888 252.486 280.540 C 252.597 284.081,252.633 284.207,253.700 284.718 C 255.066 285.371,255.098 285.906,253.800 286.400 C 251.182 287.395,250.000 285.717,250.000 281.007 C 250.000 277.846,249.918 277.485,249.000 276.635 C 247.782 275.507,247.742 274.966,248.832 274.383 C 249.289 274.138,249.847 273.412,250.071 272.769 C 250.639 271.140,251.937 271.183,252.268 272.841 M154.400 272.769 C 155.393 273.057,155.394 273.061,154.518 273.351 C 154.032 273.511,153.177 274.187,152.618 274.852 L 151.600 276.061 151.600 274.231 C 151.600 272.252,151.961 272.063,154.400 272.769 M133.142 274.970 C 135.149 276.008,136.380 285.572,134.595 286.257 C 133.255 286.771,132.800 285.650,132.800 281.840 C 132.800 277.467,132.248 276.282,130.301 276.478 C 128.269 276.681,127.507 278.172,127.235 282.483 C 127.022 285.855,126.926 286.200,126.200 286.200 C 125.202 286.200,124.728 282.523,125.137 277.943 L 125.400 275.000 127.265 275.000 C 128.291 275.000,129.266 274.865,129.432 274.700 C 129.924 274.210,131.958 274.358,133.142 274.970 M160.713 275.024 C 162.249 276.100,163.486 279.289,162.799 280.403 C 162.539 280.825,161.457 281.059,159.116 281.200 C 155.873 281.396,155.797 281.424,155.676 282.475 C 155.490 284.082,157.042 284.955,159.640 284.706 C 161.899 284.489,162.761 285.254,161.389 286.258 C 159.250 287.822,154.687 286.456,153.468 283.887 C 150.842 278.353,156.167 271.840,160.713 275.024 M174.995 275.267 C 179.719 278.984,177.059 287.186,171.300 286.659 L 168.800 286.430 168.800 288.139 C 168.800 290.140,168.021 291.447,167.049 291.074 C 166.453 290.846,166.394 289.982,166.492 282.909 L 166.600 275.000 168.465 275.000 C 169.491 275.000,170.466 274.865,170.632 274.700 C 171.267 274.067,173.905 274.410,174.995 275.267 M187.913 275.024 C 189.127 275.875,190.000 277.678,190.000 279.337 C 190.000 281.015,189.605 281.200,186.016 281.200 C 182.941 281.200,182.027 281.755,182.781 283.165 C 183.433 284.383,184.502 284.800,186.974 284.800 C 189.340 284.800,190.014 285.536,188.426 286.386 C 186.149 287.605,182.137 286.500,180.784 284.281 C 177.587 279.037,183.213 271.732,187.913 275.024 M201.856 274.984 C 203.804 276.348,204.457 286.200,202.600 286.200 C 201.869 286.200,201.780 285.856,201.569 282.200 C 201.304 277.621,201.071 276.883,199.788 276.561 C 197.067 275.878,195.845 277.608,195.810 282.193 C 195.783 285.678,195.379 286.708,194.216 286.261 C 193.666 286.051,193.593 285.249,193.689 280.508 L 193.800 275.000 195.665 275.000 C 196.691 275.000,197.666 274.865,197.832 274.700 C 198.349 274.186,200.981 274.371,201.856 274.984 M229.325 275.366 C 230.693 276.633,230.856 277.435,230.717 282.200 L 230.600 286.200 229.200 286.282 C 228.430 286.327,226.863 286.484,225.718 286.631 C 223.767 286.881,223.560 286.822,222.418 285.680 C 219.755 283.017,222.046 279.200,226.307 279.200 C 227.379 279.200,228.400 278.589,228.400 277.949 C 228.400 277.039,226.984 276.400,224.971 276.400 C 222.638 276.400,222.277 276.012,223.689 275.023 C 225.105 274.031,228.080 274.212,229.325 275.366 M243.332 275.218 C 245.717 277.094,246.082 286.780,243.752 286.335 C 243.093 286.210,242.974 285.696,242.789 282.196 C 242.527 277.229,242.091 276.310,240.074 276.477 C 238.026 276.648,237.204 278.339,237.194 282.400 C 237.187 285.710,236.879 286.551,235.752 286.335 C 235.074 286.204,234.989 285.720,234.884 281.395 C 234.730 274.999,234.824 274.670,236.716 274.972 C 237.532 275.102,238.470 275.029,238.800 274.810 C 239.828 274.129,242.221 274.344,243.332 275.218 M120.600 280.600 C 120.600 286.273,120.023 287.942,118.754 285.939 C 118.200 285.065,118.319 275.841,118.892 275.268 C 120.293 273.867,120.600 274.825,120.600 280.600 M142.022 277.178 C 140.448 278.752,140.487 282.173,142.099 283.900 C 144.158 286.106,147.000 284.192,147.000 280.600 C 147.000 277.069,144.115 275.085,142.022 277.178 M156.229 277.029 C 154.582 278.676,157.006 280.364,159.431 279.259 C 161.196 278.454,160.168 276.400,158.000 276.400 C 157.371 276.400,156.574 276.683,156.229 277.029 M169.590 277.500 C 168.376 279.038,168.605 282.951,169.974 284.059 C 172.237 285.892,174.460 284.436,174.709 280.959 C 174.923 277.967,173.924 276.400,171.800 276.400 C 170.813 276.400,170.228 276.691,169.590 277.500 M183.280 276.880 C 182.292 277.868,182.709 279.147,184.104 279.408 C 185.634 279.695,187.600 279.056,187.600 278.272 C 187.600 276.779,184.409 275.751,183.280 276.880 M210.416 277.275 C 209.258 278.518,209.266 282.267,210.429 283.746 C 211.943 285.671,214.787 284.786,215.439 282.188 C 216.473 278.068,212.917 274.590,210.416 277.275 M172.697 279.278 C 173.073 280.049,173.086 280.607,172.751 281.569 C 172.090 283.465,171.034 283.061,170.875 280.851 C 170.662 277.886,171.616 277.062,172.697 279.278 M213.499 279.759 C 214.075 281.489,213.576 282.930,212.473 282.721 C 211.990 282.629,211.765 282.102,211.675 280.851 C 211.445 277.654,212.573 276.979,213.499 279.759 M144.777 278.972 C 145.685 280.067,145.143 282.600,144.000 282.600 C 143.130 282.600,142.984 282.402,142.874 281.072 C 142.758 279.656,143.287 278.400,144.000 278.400 C 144.166 278.400,144.516 278.657,144.777 278.972 M225.800 281.088 C 223.873 281.557,223.111 283.054,224.229 284.171 C 225.636 285.579,228.400 284.460,228.400 282.483 C 228.400 281.790,227.241 280.657,226.726 280.846 C 226.657 280.872,226.240 280.981,225.800 281.088 M233.173 282.700 C 233.150 284.329,233.086 284.475,232.723 283.725 C 232.339 282.930,232.546 280.800,233.008 280.800 C 233.113 280.800,233.188 281.655,233.173 282.700 M191.600 282.787 C 191.600 283.329,191.409 283.502,190.990 283.341 C 190.519 283.160,190.485 282.980,190.839 282.553 C 191.455 281.810,191.600 281.855,191.600 282.787 " stroke="none" fill="#040404" fill-rule="evenodd"></path></g></svg>